<svg width="14" height="8" viewBox="0 0 14 8" fill="none" xmlns="http://www.w3.org/2000/svg">
<path d="M13.1929 1.66131C12.2719 0.538683 10.9086 0.232718 9.63189 0.869396C9.15998 1.10562 8.75417 1.42958 8.38028 1.79629C7.93116 2.23724 7.51168 2.70744 7.08308 3.16863C6.92121 3.34186 6.95541 3.31262 6.82774 3.15514C6.49717 2.74343 6.178 2.31823 5.81323 1.92903C5.30712 1.38909 4.73945 0.934638 4.02815 0.680417C2.71726 0.21472 1.33343 0.666919 0.622129 1.84803C-0.153002 3.13039 -0.205438 4.47349 0.473942 5.80758C1.23767 7.30591 2.87001 7.86385 4.43167 7.20468C4.95831 6.98195 5.40971 6.65124 5.82691 6.26878C6.28059 5.85258 6.70463 5.40713 7.13323 4.96843C7.20847 4.89194 7.24722 4.89644 7.31334 4.97968C7.63251 5.38463 7.9494 5.79184 8.30505 6.16754C8.92972 6.82447 9.65697 7.30141 10.5735 7.4544C11.5424 7.61413 12.3722 7.35766 13.0334 6.63099C13.6922 5.90432 14.0023 5.04267 14 3.8728C13.9954 3.17763 13.7674 2.36548 13.1929 1.66131ZM6.46069 3.9223C5.93406 4.51398 5.42794 5.12141 4.80784 5.62311C4.361 5.98306 3.88452 6.29353 3.32369 6.45551C3.11851 6.514 2.90877 6.5455 2.72182 6.541C1.82358 6.53875 1.23312 6.1068 0.968659 5.28114C0.713321 4.48249 0.72244 3.69957 1.1328 2.95041C1.43146 2.40372 1.82586 1.94477 2.43229 1.71305C3.13219 1.44533 3.81613 1.51282 4.48183 1.83004C4.75084 1.95827 4.98566 2.13375 5.20452 2.33398C5.67416 2.76368 6.09137 3.23838 6.44474 3.76482C6.47893 3.81656 6.51769 3.85706 6.46069 3.9223ZM12.5728 5.58261C11.7749 6.60624 10.3318 6.80647 9.26713 6.05056C8.76557 5.69285 8.36889 5.23615 7.99728 4.7547C7.90609 4.63547 7.81717 4.51398 7.7237 4.39475C7.68722 4.3475 7.67583 4.30925 7.7237 4.25751C8.22526 3.69058 8.69946 3.09889 9.26029 2.5837C9.68433 2.19449 10.1357 1.84129 10.6829 1.62756C10.8949 1.54432 11.1138 1.48133 11.3417 1.45658C12.0097 1.38459 12.4976 1.66131 12.835 2.21699C13.1017 2.65569 13.1998 3.14164 13.2043 3.71532C13.1884 4.3565 13.0151 5.01567 12.5728 5.58261Z" fill="#4D4D4D"/>
</svg>
