<svg width="122" height="16" viewBox="0 0 122 16" fill="none" xmlns="http://www.w3.org/2000/svg">
<path d="M3.84 3.856H9.2V5.024H3.84V3.856ZM9.664 3.856H15.168V5.024H9.664V3.856ZM5.888 3.088H7.264V7.248H5.888V3.088ZM8.352 8.128H10.032V11.248H8.352V8.128ZM11.472 3.088H12.864V7.248H11.472V3.088ZM6 10.24V10.864H12.416V10.24H6ZM6 8.736V9.36H12.416V8.736H6ZM4.368 7.664H14.128V11.952H4.368V7.664ZM10.944 12.752C11.824 12.72 12.896 12.688 14.112 12.64L14.096 13.424C13.008 13.552 12.048 13.632 11.12 13.712L10.944 12.752ZM5.904 4.448L6.88 4.816C6.336 5.76 5.296 6.752 4.272 7.248C4.064 6.928 3.664 6.464 3.376 6.208C4.352 5.872 5.376 5.152 5.904 4.448ZM11.472 4.448L12.464 4.816C11.92 5.76 10.88 6.752 9.872 7.248C9.664 6.928 9.264 6.464 8.976 6.208C9.936 5.872 10.96 5.152 11.472 4.448ZM12.976 4.608C13.552 5.216 14.624 5.888 15.52 6.224C15.216 6.464 14.8 6.944 14.576 7.264C13.648 6.8 12.56 5.84 11.968 5.04L12.976 4.608ZM6.144 11.728H8C7.616 13.552 6.72 14.752 3.808 15.504C3.632 15.072 3.152 14.352 2.8 14.016C5.232 13.552 5.856 12.832 6.144 11.728ZM8.992 11.68H10.64V13.632C10.64 14.032 10.752 14.08 11.424 14.08C11.728 14.08 13.12 14.08 13.504 14.08C14 14.08 14.096 13.952 14.16 13.136C14.496 13.36 15.136 13.568 15.584 13.648C15.392 15.008 14.96 15.36 13.696 15.36C13.312 15.36 11.6 15.36 11.232 15.36C9.424 15.36 8.992 14.976 8.992 13.632V11.68ZM8.144 6.72L10.032 6.928C9.68 7.488 9.28 7.968 9.008 8.336L7.616 8.032C7.808 7.6 8.032 7.088 8.144 6.72ZM11.744 11.36L12.96 11.68C12.704 12.256 12.528 12.816 12.368 13.216L11.424 12.928C11.552 12.464 11.696 11.792 11.744 11.36ZM13.088 12.256L14.112 11.936C14.464 12.384 14.816 13.024 14.96 13.44L13.888 13.808C13.76 13.376 13.424 12.72 13.088 12.256ZM7.2 5.024C7.6 5.168 8.896 5.728 9.216 5.92L8.352 6.896C7.968 6.56 6.912 5.872 6.416 5.568L7.2 5.024ZM7.488 0.415999H9.488V2.544H7.488V0.415999ZM2.704 1.584H15.344V3.168H2.704V1.584ZM1.6 1.584H3.376V6.72C3.376 9.264 3.136 13.104 1.76 15.504C1.44 15.168 0.688 14.544 0.288 14.352C1.504 12.176 1.6 9.024 1.6 6.72V1.584ZM20.88 3.584H27.104V4.944H20.88V3.584ZM24 2.016C22.624 3.392 20.16 4.928 17.696 5.888C17.488 5.456 17.04 4.736 16.672 4.336C19.2 3.488 21.728 1.872 22.992 0.464H24.832C26.576 2.112 29.008 3.408 31.376 4.064C30.96 4.496 30.512 5.168 30.224 5.696C28.112 4.912 25.456 3.408 24 2.016ZM20.928 6.912V7.808H26.992V6.912H20.928ZM19.216 5.616H28.8V9.088H19.216V5.616ZM16.656 13.344H31.312V15.008H16.656V13.344ZM18.368 9.824H29.664V14.192H27.776V11.312H26.384V14.192H24.624V11.312H23.264V14.192H21.504V11.312H20.16V14.192H18.368V9.824ZM37.1932 14.1591C36.3902 14.1591 35.6742 14.0114 35.0455 13.7159C34.4205 13.4205 33.9242 13.0133 33.5568 12.4943C33.1894 11.9754 32.9981 11.3807 32.983 10.7102H35.3693C35.3958 11.161 35.5852 11.5265 35.9375 11.8068C36.2898 12.0871 36.7083 12.2273 37.1932 12.2273C37.5795 12.2273 37.9205 12.142 38.2159 11.9716C38.5152 11.7973 38.7481 11.5568 38.9148 11.25C39.0852 10.9394 39.1705 10.5833 39.1705 10.1818C39.1705 9.77273 39.0833 9.41288 38.9091 9.10227C38.7386 8.79167 38.5019 8.54924 38.1989 8.375C37.8958 8.20076 37.5492 8.11174 37.1591 8.10795C36.8182 8.10795 36.4867 8.17803 36.1648 8.31818C35.8466 8.45833 35.5985 8.64962 35.4205 8.89205L33.233 8.5L33.7841 2.36364H40.8977V4.375H35.8125L35.5114 7.28977H35.5795C35.7841 7.00189 36.0928 6.76326 36.5057 6.57386C36.9186 6.38447 37.3807 6.28977 37.892 6.28977C38.5928 6.28977 39.2178 6.45455 39.767 6.78409C40.3163 7.11364 40.75 7.56629 41.0682 8.14205C41.3864 8.71402 41.5436 9.37311 41.5398 10.1193C41.5436 10.9034 41.3617 11.6004 40.9943 12.2102C40.6307 12.8163 40.1212 13.2936 39.4659 13.642C38.8144 13.9867 38.0568 14.1591 37.1932 14.1591ZM45.4965 1.184H55.5605V2.96H45.4965V1.184ZM47.0965 4.256H53.8325V5.728H47.0965V4.256ZM46.7605 6.72H54.1525V8.24H46.7605V6.72ZM44.3285 1.184H46.2325V6.752C46.2325 9.392 45.9765 13.184 44.2165 15.52C43.9125 15.152 43.0965 14.528 42.6645 14.288C44.2005 12.192 44.3285 9.104 44.3285 6.752V1.184ZM54.8085 1.184H56.7445V13.312C56.7445 14.32 56.5365 14.8 55.9125 15.104C55.2885 15.392 54.3765 15.424 52.9845 15.424C52.9205 14.928 52.6485 14.112 52.3925 13.648C53.2085 13.696 54.1685 13.68 54.4405 13.664C54.7125 13.664 54.8085 13.568 54.8085 13.312V1.184ZM49.4965 3.2H51.3045V7.536H49.4965V3.2ZM48.3125 9.152H53.5445V13.52H48.3125V12.08H51.7685V10.608H48.3125V9.152ZM47.3365 9.152H49.0805V14.4H47.3365V9.152ZM62.2805 0.351999L64.2325 0.848C63.3845 3.232 61.9765 5.536 60.5525 6.976C60.1845 6.64 59.3685 6 58.9045 5.728C60.3445 4.48 61.5925 2.432 62.2805 0.351999ZM62.6165 2.176H72.7925V4.032H61.6885L62.6165 2.176ZM61.4805 5.952H72.4245V7.744H63.4165V11.104H61.4805V5.952ZM58.9525 10.16H73.6725V12.016H58.9525V10.16ZM66.1845 3.136H68.1685V15.44H66.1845V3.136ZM77.8965 4.128V6.384C77.8965 8.944 77.6725 12.848 76.3125 15.344C75.9445 15.024 75.1125 14.448 74.6485 14.272C75.8965 12 75.9925 8.688 75.9925 6.384V2.304H82.1045C81.8645 1.84 81.5765 1.376 81.2885 0.992L83.0005 0.32C83.5125 0.895999 83.9605 1.68 84.2325 2.304H89.6405V4.128H77.8965ZM89.3685 8.544H84.6485C85.7205 10.768 87.6245 12.72 89.8965 13.728C89.4485 14.112 88.8245 14.864 88.5525 15.36C86.5365 14.304 84.9045 12.592 83.6725 10.512C82.8885 12.448 81.5125 14.176 78.9845 15.408C78.7445 14.944 78.2325 14.288 77.7525 13.936C80.5845 12.656 81.7685 10.672 82.2805 8.544H78.4245V6.768H82.6005C82.6805 6 82.7285 5.264 82.7765 4.544H84.8085C84.7605 5.28 84.6965 6.016 84.6005 6.768H89.3685V8.544ZM97.3845 1.84H105.097V3.584H97.3845V1.84ZM96.4245 4.944H105.801V6.72H96.4245V4.944ZM96.7765 8.16H105.641V9.936H96.7765V8.16ZM100.233 0.4H102.137V5.92H100.233V0.4ZM102.137 6.528H104.041V13.296C104.041 14.272 103.849 14.8 103.209 15.088C102.569 15.376 101.657 15.424 100.441 15.424C100.377 14.864 100.121 14.048 99.8645 13.52C100.649 13.552 101.529 13.552 101.801 13.536C102.057 13.536 102.137 13.488 102.137 13.264V6.528ZM97.3365 10.8L98.7605 9.92C99.4645 10.624 100.312 11.632 100.697 12.336L99.1765 13.328C98.8405 12.624 98.0245 11.568 97.3365 10.8ZM90.7285 8.944C92.2965 8.592 94.6325 7.936 96.8405 7.312L97.0965 8.992C95.0805 9.632 92.8885 10.288 91.1925 10.784L90.7285 8.944ZM93.6085 0.415999H95.3685V15.44H93.6085V0.415999ZM91.4965 1.248L93.0965 1.52C92.8885 3.632 92.5045 5.856 91.9285 7.296C91.6405 7.056 90.9525 6.624 90.5685 6.432C91.0805 5.136 91.3525 3.136 91.4965 1.248ZM91.9285 3.44H96.6965V5.264H91.5765L91.9285 3.44ZM107.353 1.184H121.177V2.688H107.353V1.184ZM113.177 0.415999H115.145V9.664H113.177V0.415999ZM110.105 6.288V7.008H118.169V6.288H110.105ZM110.105 4.512V5.232H118.169V4.512H110.105ZM108.297 3.392H120.073V8.16H108.297V3.392ZM116.425 8.656L117.737 7.776C119.017 8.368 120.521 9.392 121.289 10.16L119.961 11.184C119.193 10.368 117.705 9.28 116.425 8.656ZM107.401 9.056C110.409 9.072 115.145 9.072 119.529 9.024L119.433 10.48C115.128 10.576 110.521 10.64 107.481 10.656L107.401 9.056ZM110.377 11.328H112.281V13.136C112.281 13.584 112.441 13.632 113.369 13.632C113.785 13.632 115.609 13.632 116.169 13.632C116.889 13.632 117.033 13.456 117.097 12.24C117.513 12.496 118.265 12.752 118.761 12.848C118.537 14.736 118.009 15.184 116.329 15.184C115.849 15.184 113.657 15.184 113.193 15.184C110.953 15.184 110.377 14.72 110.377 13.152V11.328ZM112.809 11.248L114.057 10.24C114.921 10.752 115.993 11.536 116.505 12.112L115.193 13.232C114.729 12.64 113.673 11.792 112.809 11.248ZM118.201 11.792L119.865 11.248C120.601 12.208 121.321 13.488 121.545 14.4L119.769 14.976C119.561 14.112 118.905 12.784 118.201 11.792ZM108.345 11.168L110.009 11.856C109.657 12.896 109.145 14.144 108.521 14.992L106.857 14.048C107.481 13.312 108.041 12.144 108.345 11.168Z" fill="url(#paint0_linear_3_91)"/>
<defs>
<linearGradient id="paint0_linear_3_91" x1="61.5" y1="-1" x2="61.5" y2="18" gradientUnits="userSpaceOnUse">
<stop stop-color="#BF8B6A"/>
<stop offset="1" stop-color="#594131"/>
</linearGradient>
</defs>
</svg>
