<svg height="512pt" viewBox="0 -29 512 512" width="512pt" xmlns="http://www.w3.org/2000/svg"><path d="m240.390625 85.960938h-229.984375c-5.746094 0-10.40625 4.65625-10.40625 10.40625v337.171874c0 5.746094 4.660156 10.40625 10.40625 10.40625h229.984375zm0 0" fill="#93dcfc"/><path d="m10.40625 443.945312h229.984375v-15.609374h-240.390625v5.199218c0 5.75 4.660156 10.410156 10.40625 10.410156zm0 0" fill="#40c1fa"/><path d="m271.609375 85.960938h229.984375c5.746094 0 10.40625 4.65625 10.40625 10.40625v337.171874c0 5.746094-4.660156 10.40625-10.40625 10.40625h-229.984375zm0 0" fill="#93dcfc"/><path d="m496.390625 85.960938v331.964843c0 5.75-4.660156 10.40625-10.40625 10.40625h-214.375v15.609375h229.984375c5.746094 0 10.40625-4.65625 10.40625-10.40625v-337.167968c0-5.746094-4.660156-10.40625-10.40625-10.40625zm0 0" fill="#40c1fa"/><path d="m256 412.722656h-214.375c-5.742188 0-10.40625-4.660156-10.40625-10.40625v-310.789062c0-3.476563 1.738281-6.722656 4.632812-8.660156l23.964844-15.972657c.8125-.539062 1.695313-.96875 2.621094-1.257812v309.625c0 3.445312 2.800781 6.242187 6.246094 6.242187h144.222656c13.925781 0 26.921875 6.953125 34.632812 18.535156zm0 0" fill="#feba80"/><path d="m247.542969 400.039062c-.371094-.558593-.769531-1.097656-1.164063-1.636718-.328125-.433594-.660156-.863282-1-1.289063h-194.238281c-2.761719 0-5.40625 1.097657-7.359375 3.046875l-9.515625 9.515625c1.882813 1.882813 4.488281 3.046875 7.359375 3.046875h214.375zm0 0" fill="#fda961"/><path d="m455.65625 412.722656h-199.65625l8.457031-12.683594c7.71875-11.578124 20.714844-18.535156 34.632813-18.535156h144.226562l3.140625-3.105468 16.558594 16.5625c6.554687 6.554687 1.914063 17.761718-7.359375 17.761718zm0 0" fill="#feba80"/><path d="m449.5625 65.148438v310.113281l-3.109375 3.136719 11.609375 11.609374c2.625 2.621094.765625 7.105469-2.941406 7.105469h-188.5c-.757813.945313-1.488282 1.910157-2.164063 2.925781l-8.457031 12.683594h214.375c5.746094 0 10.40625-4.65625 10.40625-10.40625v-310.785156c0-3.480469-1.742188-6.730469-4.636719-8.660156zm0 0" fill="#fda961"/><path d="m261.203125 454.351562h-10.40625c-5.746094 0-10.40625-4.660156-10.40625-10.40625v-31.222656h31.21875v31.222656c0 5.746094-4.660156 10.40625-10.40625 10.40625zm0 0" fill="#40c1fa"/><path d="m256 85.960938v326.761718l-8.460938-12.683594c-7.710937-11.582031-20.707031-18.535156-34.632812-18.535156h-144.222656c-3.445313 0-6.246094-2.800781-6.246094-6.242187v-309.625c1.011719-.324219 2.074219-.488281 3.15625-.488281h152.347656c11.042969 0 21.625 4.378906 29.441406 12.195312zm0 0" fill="#f7e5c1"/><path d="m220.585938 365.894531h-158.148438v9.367188c0 3.449219 2.796875 6.242187 6.246094 6.242187h144.226562c13.917969 0 26.914063 6.957032 34.636719 18.535156l8.453125 12.683594v-27.054687s-6.839844-8.203125-9.410156-10.652344c-6.847656-6.515625-16.554688-9.121094-26.003906-9.121094zm0 0" fill="#f3d69e"/><path d="m256 412.722656 8.457031-12.683594c7.71875-11.578124 20.714844-18.535156 34.632813-18.535156h144.226562c3.449219 0 6.246094-2.796875 6.246094-6.242187v-310.113281h-155.507812c-11.039063 0-21.628907 4.382812-29.433594 12.191406l-8.621094 8.621094zm0 0" fill="#f7e5c1"/><path d="m431.871094 65.148438v288.257812c0 5.746094-4.660156 10.40625-10.40625 10.40625h-128.617188c-13.917968 0-26.914062 6.957031-34.636718 18.535156l-2.210938 3.320313v27.058593l8.457031-12.6875c7.71875-11.578124 20.714844-18.535156 34.632813-18.535156h144.226562c3.449219 0 6.246094-2.792968 6.246094-6.242187v-310.113281zm0 0" fill="#f3d69e"/><g fill="#5f6c75"><path d="m302.671875 249.863281h-12.851563c-4.308593 0-7.804687-3.496093-7.804687-7.804687 0-4.3125 3.496094-7.804688 7.804687-7.804688h12.851563c4.3125 0 7.804687 3.492188 7.804687 7.804688 0 4.308594-3.492187 7.804687-7.804687 7.804687zm0 0"/><path d="m200.847656 124.984375h-82.210937c-4.3125 0-7.808594-3.492187-7.808594-7.804687 0-4.308594 3.496094-7.804688 7.808594-7.804688h82.210937c4.308594 0 7.804688 3.492188 7.804688 7.804688-.003906 4.308593-3.496094 7.804687-7.804688 7.804687zm0 0"/><path d="m222.179688 166.609375h-124.878907c-4.3125 0-7.804687-3.492187-7.804687-7.804687 0-4.308594 3.492187-7.804688 7.804687-7.804688h124.878907c4.308593 0 7.804687 3.496094 7.804687 7.804688 0 4.3125-3.496094 7.804687-7.804687 7.804687zm0 0"/><path d="m222.179688 208.238281h-124.878907c-4.3125 0-7.804687-3.496093-7.804687-7.804687 0-4.3125 3.492187-7.804688 7.804687-7.804688h124.878907c4.308593 0 7.804687 3.492188 7.804687 7.804688 0 4.308594-3.496094 7.804687-7.804687 7.804687zm0 0"/><path d="m222.179688 249.863281h-124.878907c-4.3125 0-7.804687-3.496093-7.804687-7.804687 0-4.3125 3.492187-7.804688 7.804687-7.804688h124.878907c4.308593 0 7.804687 3.492188 7.804687 7.804688 0 4.308594-3.496094 7.804687-7.804687 7.804687zm0 0"/><path d="m222.179688 291.488281h-124.878907c-4.3125 0-7.804687-3.492187-7.804687-7.804687 0-4.308594 3.492187-7.804688 7.804687-7.804688h124.878907c4.308593 0 7.804687 3.492188 7.804687 7.804688 0 4.308594-3.496094 7.804687-7.804687 7.804687zm0 0"/><path d="m222.179688 333.113281h-124.878907c-4.3125 0-7.804687-3.492187-7.804687-7.804687 0-4.308594 3.492187-7.804688 7.804687-7.804688h124.878907c4.308593 0 7.804687 3.496094 7.804687 7.804688 0 4.3125-3.496094 7.804687-7.804687 7.804687zm0 0"/><path d="m306.035156 166.609375h-16.214844c-4.308593 0-7.804687-3.492187-7.804687-7.804687 0-4.308594 3.496094-7.804688 7.804687-7.804688h16.214844c4.3125 0 7.804688 3.496094 7.804688 7.804688 0 4.3125-3.492188 7.804687-7.804688 7.804687zm0 0"/><path d="m414.699219 249.863281h-30.148438c-4.308593 0-7.804687-3.496093-7.804687-7.804687 0-4.3125 3.496094-7.804688 7.804687-7.804688h30.148438c4.3125 0 7.804687 3.492188 7.804687 7.804688 0 4.308594-3.492187 7.804687-7.804687 7.804687zm0 0"/><path d="m414.699219 291.488281h-124.878907c-4.308593 0-7.804687-3.492187-7.804687-7.804687 0-4.308594 3.496094-7.804688 7.804687-7.804688h124.878907c4.3125 0 7.804687 3.492188 7.804687 7.804688 0 4.308594-3.492187 7.804687-7.804687 7.804687zm0 0"/><path d="m414.699219 333.113281h-124.878907c-4.308593 0-7.804687-3.492187-7.804687-7.804687 0-4.308594 3.496094-7.804688 7.804687-7.804688h124.878907c4.3125 0 7.804687 3.496094 7.804687 7.804688 0 4.3125-3.492187 7.804687-7.804687 7.804687zm0 0"/></g><path d="m313.601562 278.164062 56.429688-21.945312c3.632812-1.414062 6.796875-3.820312 9.128906-6.941406l30.15625-40.355469c4.40625-5.898437 1.460938-14.382813-5.648437-16.285156l-6.007813-1.605469 31.183594-25.292969c2.144531-1.738281 3.921875-3.882812 5.226562-6.320312 9.976563-18.621094 52.683594-102.578125 40.941407-154.53125-.789063-3.496094-4.324219-5.597657-7.785157-4.664063-68.632812 18.492188-117.855468 88.757813-126.210937 101.335938-.824219 1.242187-1.371094 2.644531-1.605469 4.121094l-4.667968 29.421874c-.800782 5.035157-6.976563 7.042969-10.582032 3.433594l-.082031-.082031c-3.125-3.121094-8.414063-2.101563-10.152344 1.957031l-23.730469 55.34375c-.578124 1.347656-.664062 2.859375-.238281 4.265625zm0 0" fill="#fff692"/><path d="m467.226562.222656c-3.820312 1.03125-7.578124 2.226563-11.273437 3.554688 12.101563 55.269531-36.667969 146.167968-42.507813 156.777344-.371093.675781-.863281 1.261718-1.460937 1.746093l-24.394531 19.785157c-3.78125 3.066406-2.488282 9.128906 2.214844 10.386718 4.339843 1.160156 5.886718 6.519532 2.832031 9.8125l-39.84375 42.988282c-.699219.75-1.503907 1.394531-2.390625 1.914062l-39.246094 22.898438 2.445312 8.078124 56.429688-21.945312c3.632812-1.414062 6.796875-3.820312 9.128906-6.941406l30.15625-40.355469c4.40625-5.898437 1.460938-14.382813-5.648437-16.285156l-6.007813-1.605469 31.183594-25.292969c2.144531-1.738281 3.921875-3.882812 5.226562-6.320312 9.976563-18.621094 52.683594-102.578125 40.941407-154.53125-.789063-3.496094-4.324219-5.597657-7.785157-4.664063zm0 0" fill="#fff263"/><path d="m300.285156 333.117188c-.632812 0-1.269531-.078126-1.910156-.238282-4.179688-1.050781-6.71875-5.292968-5.667969-9.472656 15.164063-60.308594 52.160157-176.960938 129.601563-280.625 2.578125-3.453125 7.472656-4.164062 10.925781-1.582031 3.453125 2.578125 4.160156 7.472656 1.582031 10.925781-75.816406 101.484375-112.09375 215.914062-126.96875 275.089844-.890625 3.539062-4.070312 5.902344-7.5625 5.902344zm0 0" fill="#ffe046"/></svg>