<svg xmlns="http://www.w3.org/2000/svg" xmlns:xlink="http://www.w3.org/1999/xlink" width="20" height="20" viewBox="0 0 20 20" fill="none">
<path    stroke="rgba(51, 51, 51, 1.00)" stroke-width="1.5" stroke-linejoin="round" stroke-linecap="round"  d="M12.084 12.5L12.084 8.33333C12.084 6.49237 10.5916 5 8.75065 5C6.90969 5 5.41732 6.49237 5.41732 8.33333L5.41732 15C5.41732 16.841 6.90969 18.3333 8.75065 18.3333C9.59603 18.3333 10.3679 18.0186 10.9555 17.5">
</path>
<path    stroke="rgba(51, 51, 51, 1.00)" stroke-width="1.5" stroke-linejoin="round" stroke-linecap="round"  d="M9.87785 2.49999C10.4654 1.98135 11.2373 1.66666 12.0827 1.66666C13.9236 1.66666 15.416 3.15904 15.416 4.99999L15.416 11.6667C15.416 13.5076 13.9236 15 12.0827 15C10.2417 15 8.74935 13.5076 8.74935 11.6667L8.74935 7.49999">
</path>
</svg>
