<svg width="56" height="56" viewBox="0 0 56 56" fill="none" xmlns="http://www.w3.org/2000/svg">
<circle cx="28" cy="28" r="22" stroke="#24292E" stroke-width="4"/>
<path fill-rule="evenodd" clip-rule="evenodd" d="M44.7601 2.84563C44.8053 2.53563 44.4636 2.33832 44.2178 2.53253L42.8163 3.63966L41.2597 2.90684C40.9869 2.77848 40.6852 3.05715 40.781 3.34932L41.327 5.0152L40.1072 6.32999C39.8933 6.56049 40.0486 6.93009 40.3538 6.91648L42.0931 6.83867L42.8957 8.38405C43.0363 8.65503 43.434 8.60466 43.5266 8.30418L44.0554 6.59045L45.7711 6.23035C46.072 6.16723 46.1625 5.76665 45.9147 5.59486L44.5023 4.61305L44.7601 2.84563Z" fill="#24292E"/>
<path fill-rule="evenodd" clip-rule="evenodd" d="M53.0704 2.90633C53.1417 2.41817 52.6036 2.10746 52.2164 2.41328L50.0096 4.1567L47.5584 3.00272C47.1287 2.80059 46.6537 3.2394 46.8045 3.69949L47.6643 6.32277L45.7436 8.39317C45.4068 8.75615 45.6512 9.33815 46.1319 9.31673L48.8708 9.1942L50.1346 11.6277C50.3559 12.0544 50.9822 11.9751 51.1281 11.5019L51.9608 8.80332L54.6625 8.23628C55.1364 8.13688 55.2789 7.50608 54.8887 7.23556L52.6645 5.6895L53.0704 2.90633Z" fill="#24292E"/>
<path fill-rule="evenodd" clip-rule="evenodd" d="M9.07042 44.9063C9.14171 44.4182 8.60355 44.1075 8.21644 44.4133L6.0096 46.1567L3.55838 45.0027C3.12872 44.8006 2.65368 45.2394 2.80454 45.6995L3.66432 48.3228L1.74356 50.3932C1.40675 50.7561 1.6512 51.3382 2.13188 51.3167L4.87079 51.1942L6.13463 53.6277C6.35593 54.0544 6.98218 53.9751 7.12812 53.5019L7.96076 50.8033L10.6625 50.2363C11.1364 50.1369 11.2789 49.5061 10.8887 49.2356L8.66449 47.6895L9.07042 44.9063Z" fill="#24292E"/>
<circle cx="39.5" cy="43.5" r="2.5" fill="#FEDAA3"/>
<circle cx="46.5" cy="43.5" r="2.5" fill="#FEDAA3"/>
<path fill-rule="evenodd" clip-rule="evenodd" d="M44.5 35C46.7543 35 48.9163 35.8955 50.5104 37.4896C52.1045 39.0837 53 41.2457 53 43.5C53 45.7543 52.1045 47.9163 50.5104 49.5104C48.9163 51.1045 46.7543 52 44.5 52H44V52.99C44 53.1227 43.9738 53.2541 43.923 53.3767C43.8722 53.4993 43.7977 53.6107 43.7038 53.7045C43.6099 53.7983 43.4985 53.8727 43.3758 53.9234C43.2532 53.9741 43.1217 54.0001 42.989 54C40.529 53.998 38.037 53.177 36.146 51.496C34.238 49.798 33.002 47.275 33 44.009V43.5C33 41.2457 33.8955 39.0837 35.4896 37.4896C37.0837 35.8955 39.2457 35 41.5 35H44.5ZM39.5 42C39.1022 42 38.7206 42.158 38.4393 42.4393C38.158 42.7206 38 43.1022 38 43.5C38 43.8978 38.158 44.2794 38.4393 44.5607C38.7206 44.842 39.1022 45 39.5 45C39.8978 45 40.2794 44.842 40.5607 44.5607C40.842 44.2794 41 43.8978 41 43.5C41 43.1022 40.842 42.7206 40.5607 42.4393C40.2794 42.158 39.8978 42 39.5 42ZM46.5 42C46.1022 42 45.7206 42.158 45.4393 42.4393C45.158 42.7206 45 43.1022 45 43.5C45 43.8978 45.158 44.2794 45.4393 44.5607C45.7206 44.842 46.1022 45 46.5 45C46.8978 45 47.2794 44.842 47.5607 44.5607C47.842 44.2794 48 43.8978 48 43.5C48 43.1022 47.842 42.7206 47.5607 42.4393C47.2794 42.158 46.8978 42 46.5 42Z" fill="#24292E"/>
</svg>
