<svg width="68" height="14" viewBox="0 0 68 14" fill="none" xmlns="http://www.w3.org/2000/svg">
<path d="M1.73438 8.04199V12H0.367188V1.41113H3.375C4.51888 1.41113 5.40527 1.68685 6.03418 2.23828C6.66764 2.78971 6.98438 3.57812 6.98438 4.60352C6.98438 5.64258 6.61523 6.48568 5.87695 7.13281C5.13867 7.77539 4.21582 8.07845 3.1084 8.04199H1.73438ZM1.73438 2.61426V6.83887H2.99902C3.83301 6.83887 4.46647 6.65202 4.89941 6.27832C5.33236 5.90007 5.54883 5.36003 5.54883 4.6582C5.54883 3.29557 4.74219 2.61426 3.12891 2.61426H1.73438ZM12.8223 5.76562C12.599 5.60612 12.2913 5.52637 11.8994 5.52637C11.3799 5.52637 10.9515 5.77018 10.6143 6.25781C10.277 6.74089 10.1084 7.37891 10.1084 8.17188V12H8.76855V4.43945H10.1084V5.97754H10.1357C10.5186 4.86556 11.1794 4.30957 12.1182 4.30957C12.4235 4.30957 12.6582 4.34375 12.8223 4.41211V5.76562ZM13.6084 8.30176C13.6084 7.05306 13.957 6.06868 14.6543 5.34863C15.3516 4.62402 16.2972 4.26172 17.4912 4.26172C18.626 4.26172 19.5146 4.61035 20.1572 5.30762C20.8044 6.00033 21.1279 6.95964 21.1279 8.18555C21.1279 9.37956 20.7839 10.3434 20.0957 11.0771C19.4076 11.8109 18.4847 12.1777 17.3271 12.1777C16.1969 12.1777 15.2946 11.8223 14.6201 11.1113C13.9456 10.4004 13.6084 9.46387 13.6084 8.30176ZM14.9756 8.26074C14.9756 9.13118 15.1943 9.81706 15.6318 10.3184C16.0739 10.8197 16.6663 11.0703 17.4092 11.0703C18.1748 11.0703 18.7581 10.8265 19.1592 10.3389C19.5602 9.84668 19.7607 9.14258 19.7607 8.22656C19.7607 7.30599 19.5602 6.59961 19.1592 6.10742C18.7581 5.61523 18.1748 5.36914 17.4092 5.36914C16.6572 5.36914 16.0625 5.62663 15.625 6.1416C15.1921 6.65658 14.9756 7.36296 14.9756 8.26074ZM29.5566 9.72363C30.7643 10.2614 32.0677 10.8607 33.4668 11.5215L36.5566 8.84863H28.9004V7.83691L29.5635 6.1416H26.3027V5.10254H29.9736L30.7119 3.22949H27.1367V2.19043H31.1221L31.8398 0.37207H33.084L32.3662 2.19043H38.8398V3.22949H31.9561L31.2178 5.10254H39.7148V6.1416H30.8076L30.1445 7.82324H38.1152V8.88965L34.4785 12C35.0892 12.2917 35.7181 12.5947 36.3652 12.9092L35.6953 13.9482C33.4076 12.7451 31.1699 11.6423 28.9824 10.6396L29.5566 9.72363ZM40.2207 11.8975H44.6094V0.604492H45.7578V11.8975H48.1504V0.604492H49.2988V11.8975H53.7285V12.9092H40.2207V11.8975ZM41.8066 3.28418C42.554 5.04329 43.2786 6.91178 43.9805 8.88965L42.8594 9.39551C42.2487 7.47233 41.5651 5.58105 40.8086 3.72168L41.8066 3.28418ZM49.791 9.0127C50.7025 7.0804 51.4681 5.21191 52.0879 3.40723L53.1953 3.84473C52.3477 6.02311 51.541 7.89616 50.7754 9.46387L49.791 9.0127ZM60.25 1.45215C62.9115 1.40658 65.1992 1.21517 67.1133 0.87793L67.4824 1.88965C64.903 2.18132 62.8112 2.34082 61.207 2.36816V4.62402H66.9766V5.44434C66.612 7.63184 65.9147 9.38639 64.8848 10.708C65.5501 11.4053 66.5208 12.0433 67.7969 12.6221C67.4688 12.9958 67.1908 13.333 66.9629 13.6338C65.7826 12.9137 64.8688 12.1982 64.2217 11.4873C63.4697 12.2666 62.4329 13.0368 61.1113 13.7979C60.9199 13.4788 60.6966 13.1553 60.4414 12.8271C61.8132 12.1618 62.8704 11.4531 63.6133 10.7012C62.7064 9.42969 62.1208 7.70475 61.8564 5.52637H61.207V7.61816C61.207 10.152 60.6191 12.2165 59.4434 13.8115C59.2246 13.4925 58.9967 13.2008 58.7598 12.9365C59.3431 12.016 59.7396 11.1273 59.9492 10.2705C60.1497 9.44108 60.25 8.31543 60.25 6.89355V1.45215ZM58.5547 13.6201H57.5977V8.43848H56.0869C56.0413 10.6214 55.6608 12.4124 54.9453 13.8115C54.7448 13.5563 54.4805 13.292 54.1523 13.0186C54.8086 11.8792 55.1367 10.1475 55.1367 7.82324V0.836914H56.0938V4.56934H57.5156V0.481445H58.4727V4.56934H59.6211V5.41699H56.0938V7.59082H58.5547V13.6201ZM65.9375 5.52637H62.8135C63.0413 7.31283 63.529 8.77799 64.2764 9.92188C65.0693 8.83724 65.623 7.37207 65.9375 5.52637Z" fill="url(#paint0_linear_856_102)"/>
<defs>
<linearGradient id="paint0_linear_856_102" x1="-1" y1="17" x2="13.1772" y2="-22.6181" gradientUnits="userSpaceOnUse">
<stop stop-color="#42FFD2"/>
<stop offset="1" stop-color="#FF007A"/>
</linearGradient>
</defs>
</svg>
