<svg width="32" height="32" viewBox="0 0 32 32" fill="none" xmlns="http://www.w3.org/2000/svg">
<path fill-rule="evenodd" clip-rule="evenodd" d="M25.2936 21.0938C23.8842 23.2651 22.5509 23.9603 22.0272 24.1983C19.7893 25.3506 17.5228 25.0649 18.0656 25.084C15.8943 25.084 14.0278 24.0841 12.647 22.9413C11.7233 22.1795 9.86627 20.0273 9.38059 19.6082C8.4759 18.8178 6.48559 17.9798 5.03809 18.8274H5C6.82842 17.2275 9.4663 16.7609 10.8471 17.3799C11.39 17.4941 12.0375 17.9703 11.9423 18.8274C11.9709 19.5035 10.9614 20.0463 10.4757 19.1988C10.5424 20.4558 11.8661 20.3034 12.3137 19.932C12.9708 19.3606 12.8851 18.075 12.3042 17.3513C11.3042 16.3799 9.49487 16.1323 8.6378 16.2466C9.30441 15.5705 10.7614 15.0372 11.9423 15.5133C12.0089 16.1228 12.9803 16.0942 13.0374 15.5133C13.0755 15.0086 13.0755 14.2182 10.8376 14.4087C11.7518 13.7802 12.2756 13.6754 13.1231 13.6659C13.8564 13.6564 14.1231 13.723 14.8659 13.304C15.5991 12.8659 17.0466 11.6279 17.0657 10.7614V13.304C15.4182 14.0468 14.4945 15.8562 14.4945 17.7322C14.7421 20.2177 16.8752 22.1604 19.8083 22.1604C22.7414 22.1604 25.1317 19.8463 25.1317 16.9989C25.1317 15.58 24.5413 14.2944 23.5889 13.3611C26.9601 16.0276 25.7412 20.4844 25.2936 21.0938Z" fill="#1C1C1C"/>
<path fill-rule="evenodd" clip-rule="evenodd" d="M21.8176 11.7708C20.932 12.5707 17.818 14.2468 17.437 14.3991C18.4941 13.6373 18.9036 12.5517 18.9036 12.5517C20.9987 11.7041 22.1986 10.3995 21.7224 8.76151C21.2367 7.17117 19.3131 6.5236 16.4276 7.34258C15.6753 7.56161 15.0658 8.0949 14.504 8.47582V8.49487C13.7992 9.20909 12.2184 9.24719 11.1995 9.22814C12.666 9.30432 13.7516 7.78064 13.4088 8.13299C14.104 7.44734 14.6278 6.59026 14.9325 5.63796C15.0753 5.34275 15.1801 5.06658 15.2372 4.81898C15.2848 4.60947 15.2753 4.3714 15.2182 4.17141C15.2182 4.11428 15.2277 4.05714 15.2277 4C15.6277 4.39997 15.6562 4.79993 15.6181 5.15229C15.561 5.87604 15.2277 6.58074 14.8563 7.04737C14.7325 7.16164 14.6182 7.27592 14.5135 7.39972C14.6278 7.30449 14.742 7.19021 14.8563 7.04737C15.7134 6.25696 17.0085 5.65701 18.5417 5.60939C20.2749 5.60939 22.7223 6.39028 23.227 8.10442C23.4842 9.02816 23.1128 10.5899 21.8176 11.7708Z" fill="#1C1C1C"/>
<path fill-rule="evenodd" clip-rule="evenodd" d="M23.3129 7.31403C23.8748 8.10444 24.2081 10.8852 21.475 12.1803C24.0462 11.4089 25.5413 8.70439 23.3129 7.31403Z" fill="#1C1C1C"/>
<path fill-rule="evenodd" clip-rule="evenodd" d="M15.9706 8.86624C18.0942 8.50436 17.3133 11.0184 17.4371 14.761C18.1228 14.1134 18.9037 13.2849 18.9037 13.2849V7.76157C18.9037 7.76157 17.1324 7.49492 15.9706 8.86624Z" fill="#1C1C1C"/>
<path fill-rule="evenodd" clip-rule="evenodd" d="M15.9706 8.86627C18.818 8.12347 18.9037 10.39 18.9037 12.5517C18.9037 14.7134 18.9037 7.7616 18.9037 7.7616C18.5418 7.7616 16.7896 7.45686 15.9706 8.86627Z" fill="#1C1C1C"/>
<path fill-rule="evenodd" clip-rule="evenodd" d="M17.0425 18.8062C17.0425 16.3683 16.9759 15.5494 17.7758 14.7494C19.4614 13.4162 20.6708 12.7877 21.0422 12.5877C20.5565 13.2067 20.2137 13.9495 20.0613 14.759C20.0328 15.4732 19.9471 15.7779 19.2519 16.2541C18.4996 16.7493 17.1854 17.5492 17.0425 18.8062ZM17.4139 18.4348C17.7187 17.8825 18.5377 17.2445 19.29 16.635C19.5376 16.435 19.7756 16.2541 19.9852 16.0827C19.9852 16.0827 19.9852 17.654 19.9852 17.8825C19.9852 18.8443 19.3281 19.1872 18.8995 19.5586C18.2901 20.149 17.6234 20.7299 17.0521 21.387C17.1568 20.8537 16.8045 19.1395 17.4139 18.4348ZM17.0425 22.4917C17.0425 21.5298 18.69 20.3871 19.9756 19.1395V24.1582C19.8518 25.72 19.1566 27.6055 15.9379 28.0245C17.233 27.6817 17.0425 25.2914 17.0425 22.4917Z" fill="#1C1C1C"/>
</svg>
