<svg width="32" height="32" viewBox="0 0 32 32" fill="none" xmlns="http://www.w3.org/2000/svg">
<path d="M18.5855 24.6288C18.8636 24.3959 19.1041 24.1253 19.3295 23.8323C19.833 23.1634 20.1111 22.4119 20.2238 21.5853C20.3215 20.8864 20.314 20.1875 20.1562 19.4887C19.9457 18.5493 19.4798 17.7602 18.811 17.0764C18.1422 16.3925 17.3456 15.8665 16.5039 15.4081C15.9403 15.0999 15.3617 14.7994 14.8055 14.4837C14.3697 14.2357 13.9639 13.9351 13.6332 13.5519C13.265 13.131 13.0696 12.6351 12.9945 12.0865C12.8968 11.35 12.8968 10.6211 13.0395 9.89212C13.1673 9.23832 13.4604 8.65216 13.791 8.08103C14.0315 7.67522 14.3021 7.30699 14.6778 7.01391C15.0986 6.69077 15.5721 6.51041 16.1056 6.51793C17.4884 6.52544 18.8185 6.82604 20.066 7.41971C21.8771 8.27641 23.2899 9.57649 24.2743 11.3275C24.8379 12.3194 25.1911 13.3865 25.3414 14.5138C25.597 16.385 25.3039 18.1735 24.4547 19.8644C23.5454 21.6605 22.1852 23.0131 20.4042 23.945C19.8631 24.2306 19.307 24.4485 18.7208 24.6213C18.6832 24.6288 18.6306 24.6213 18.5855 24.6288ZM17.8791 9.11808C17.2704 9.13311 16.6692 9.43371 16.3236 10.1326C16.0004 10.7939 16.1883 11.5153 16.7895 11.8836C17.1577 12.1165 17.5635 12.2293 17.9994 12.124C18.4879 12.0113 18.796 11.6807 18.9688 11.2298C19.1416 10.7789 19.3446 10.7488 19.6827 10.854C20.0585 10.9667 20.3515 11.2147 20.6146 11.4928C20.9753 11.8685 21.2609 12.2969 21.5088 12.7553C21.5164 12.7778 21.5389 12.7929 21.5464 12.8154C21.5539 12.7929 21.5614 12.7703 21.5614 12.7403C21.569 12.4697 21.5239 12.2067 21.4337 11.9512C21.073 10.9292 20.4267 10.1326 19.5099 9.55395C19.0665 9.28341 18.5705 9.11808 17.8791 9.11808Z" fill="#1C1C1C"/>
<path d="M6.56934 15.7537C6.5994 13.3264 7.43355 11.2147 9.10937 9.44874C10.432 8.04346 12.0552 7.1567 13.9415 6.72835C13.9565 6.72835 13.964 6.72083 13.979 6.72083C13.9941 6.72083 14.0166 6.71332 14.0316 6.71332C14.0241 6.72835 14.0091 6.75089 14.0016 6.76592C13.7611 7.05149 13.5056 7.32203 13.2877 7.62262C12.9044 8.14115 12.6714 8.7198 12.5136 9.34353C12.3408 10.0274 12.2431 10.7188 12.2431 11.4176C12.2431 11.8986 12.2957 12.372 12.4385 12.8304C12.6188 13.4316 12.9795 13.9051 13.438 14.3259C13.9865 14.8294 14.6103 15.2202 15.2491 15.5884C15.8878 15.9566 16.5266 16.3249 17.1127 16.7683C17.7741 17.2718 18.3677 17.8429 18.8186 18.5493C19.3898 19.4436 19.6227 20.428 19.5927 21.4801C19.5776 22.0813 19.4499 22.6524 19.1493 23.1785C18.7735 23.8323 18.2099 24.2756 17.5261 24.5762C16.9624 24.8242 16.3763 24.967 15.7676 24.9971C15.4219 25.0121 15.0762 24.967 14.738 24.9294C13.7611 24.8092 12.8217 24.5462 11.9425 24.1103C9.22961 22.7802 7.48615 20.6685 6.78727 17.7227C6.62946 17.0764 6.56934 16.4151 6.56934 15.7537ZM8.15498 15.1676C8.18504 15.4907 8.20007 15.8214 8.24516 16.1445C8.34285 16.866 8.55327 17.5573 8.79375 18.2412C9.15446 19.2482 9.64293 20.1875 10.3794 20.9841C11.1609 21.8333 12.0928 22.4044 13.2576 22.5472C13.6709 22.5998 14.0767 22.5698 14.4675 22.3894C14.9635 22.164 15.3467 21.8183 15.5271 21.2922C15.6398 20.9616 15.6323 20.6159 15.5722 20.2777C15.4444 19.6164 15.1138 19.2557 14.4224 19.1054C14.0617 19.0302 13.6935 19.2632 13.5883 19.6014C13.5131 19.8419 13.6333 20.0673 13.8813 20.1349C14.0692 20.1875 14.2421 20.15 14.3999 20.0372C14.4675 19.9922 14.5276 19.932 14.5953 19.8794C14.6779 19.8118 14.7155 19.8193 14.7681 19.902C14.8583 20.0372 14.8959 20.1951 14.8808 20.3604C14.8357 20.7136 14.6253 20.9315 14.3022 21.0518C13.964 21.1795 13.6108 21.187 13.2651 21.1119C12.431 20.9315 11.7997 20.1199 11.8223 19.2632C11.8298 18.8048 11.9876 18.3915 12.3182 18.0759C12.8593 17.5498 13.5281 17.4145 14.2571 17.5348C15.0612 17.6625 15.73 18.0533 16.2711 18.662C16.6919 19.143 16.9549 19.6916 16.9624 20.3454C16.9624 20.3904 16.9775 20.443 16.9925 20.4881C17.0301 20.4506 17.0752 20.4205 17.0977 20.3829C17.3532 19.9696 17.496 19.3834 17.0601 18.8424C16.8122 18.5418 16.5416 18.2712 16.2335 18.0308C15.4895 17.4521 14.738 16.881 13.979 16.3174C13.4906 15.9491 13.0096 15.5809 12.6113 15.1075C11.8448 14.1982 11.3789 13.1686 11.2586 11.9813C11.1534 10.9292 11.3413 9.92218 11.7997 8.9753C11.9275 8.71228 12.0778 8.46429 12.2205 8.20878C12.2281 8.19375 12.2356 8.17872 12.2356 8.17121C12.2205 8.17121 12.2055 8.17121 12.198 8.17872C11.8223 8.4192 11.4089 8.60707 11.0858 8.9227C10.9505 9.05797 10.8077 9.18572 10.6725 9.32099C9.98862 10.0199 9.43251 10.8089 9.01919 11.6957C8.47812 12.7929 8.17001 13.9427 8.15498 15.1676Z" fill="#1C1C1C"/>
<path d="M18.5856 24.6288C18.5947 24.638 18.5947 24.638 18.5856 24.6288C18.5947 24.6288 18.5947 24.6288 18.5856 24.6288Z" fill="#1C1C1C"/>
</svg>
