<svg width="32" height="32" viewBox="0 0 32 32" fill="none" xmlns="http://www.w3.org/2000/svg">
<path d="M13.0699 6.14981C13.0088 6.30699 12.8953 6.36812 12.7468 6.31572C12.4412 6.2022 12.3364 6.01882 12.4674 5.69571C12.5896 5.39007 12.8516 5.23288 13.166 5.16302C13.6725 5.04077 14.1266 5.17176 14.5283 5.49486C15.1308 5.97515 15.7246 6.47291 16.3446 6.92701C16.8861 7.3287 17.4973 7.59068 18.1523 7.76533C18.519 7.86139 18.8683 8.02731 19.2177 8.19323C20.4839 8.80451 21.5842 9.62537 22.4662 10.7257C22.9727 11.3544 23.3569 12.0443 23.6276 12.804C23.6363 12.8128 23.6363 12.8302 23.6276 12.839C23.6189 12.8128 23.6014 12.7866 23.5927 12.7691C22.5011 10.4812 20.7109 9.04029 18.2483 8.46394C17.6807 8.33295 17.1044 8.23689 16.5106 8.27182C14.6767 8.35915 13.0088 8.89184 11.5679 10.0533C10.4938 10.9265 9.77773 12.0443 9.2887 13.328C8.87827 14.4108 8.73855 15.5373 8.83461 16.6813C9.00926 18.7247 9.85632 20.4276 11.3758 21.8073C12.5547 22.8727 13.9344 23.5015 15.4976 23.7285C17.2703 23.9905 18.9295 23.615 20.4664 22.7155C21.4881 22.1217 22.3177 21.327 22.9989 20.3665C23.0163 20.3403 23.0338 20.3228 23.06 20.2966C23.0513 20.3141 23.0513 20.3228 23.0425 20.3403C22.309 21.5541 21.3833 22.5933 20.1957 23.3792C19.3923 23.9032 18.519 24.2612 17.5759 24.4358C17.3751 24.4708 17.2004 24.5494 17.0432 24.6891C16.8861 24.8288 16.8337 25.0035 16.9035 25.2043C16.9996 25.4576 17.1218 25.7108 17.3314 25.9029C17.4711 26.0339 17.6371 26.1125 17.8204 26.1387C17.9165 26.1562 18.0038 26.13 18.0737 26.0514C18.1872 25.9116 18.1697 25.8505 18.0126 25.7807C18.1697 25.7021 18.3444 25.7108 18.4405 25.8069C18.5365 25.9029 18.5802 26.1038 18.519 26.2522C18.3881 26.5753 18.1261 26.7412 17.7942 26.8198C17.3838 26.9159 16.9996 26.8373 16.6415 26.6364C16.3097 26.4618 16.0128 26.2173 15.7421 25.9553C15.6198 25.8418 15.4976 25.7283 15.3666 25.6235C14.8601 25.2305 14.3449 24.8375 13.7685 24.5494C13.6113 24.4708 13.4367 24.4096 13.2708 24.366C12.3538 24.1215 11.5155 23.7198 10.7383 23.1871C9.34983 22.2352 8.32812 20.9865 7.64698 19.4495C7.39373 18.8906 7.25401 18.2881 7.14922 17.6856C7.0095 16.9084 6.96584 16.1224 7.02696 15.3278C7.16669 13.5288 7.7605 11.9133 8.9394 10.5336C9.81266 9.51185 10.8082 8.65606 12.0482 8.1059C12.3888 7.94872 12.7468 7.84393 13.1048 7.71294C13.393 7.60815 13.6637 7.48589 13.917 7.31124C14.0742 7.19772 14.1091 7.11912 14.0654 6.93574C13.9781 6.5515 13.7685 6.24586 13.4629 6.01008C13.3756 5.94022 13.2533 5.90529 13.1398 5.86163C13.0874 5.84417 13.0175 5.8529 12.9651 5.87036C12.8516 5.90529 12.7992 5.98389 12.8254 6.07121C12.8691 6.16727 12.9215 6.19347 13.0699 6.14981Z" fill="#1C1C1C"/>
<path d="M19.7589 22.0868C19.8899 21.9995 20.0296 21.9122 20.1606 21.8161C21.4007 20.9516 22.1517 19.764 22.4136 18.2707C22.5272 17.6332 22.4922 16.9957 22.37 16.3582C22.2041 15.5025 21.8809 14.6991 21.3745 13.983C20.5099 12.7779 19.331 12.0705 17.864 11.8697C17.2876 11.7911 16.6938 11.7998 16.1087 11.8959C15.8293 11.9396 15.6284 12.0967 15.5062 12.3587C15.4625 12.446 15.4188 12.5246 15.3664 12.6032C15.0171 13.1097 14.5019 13.2669 13.9343 13.0311C13.7858 12.97 13.6374 12.8827 13.5151 12.7779C13.192 12.5246 12.8427 12.3762 12.4323 12.4548C11.7773 12.577 11.3931 13.1883 11.5503 13.8607C11.559 13.8782 11.559 13.9044 11.5678 13.9568C11.3844 13.7559 11.2709 13.5376 11.2272 13.2931C11.1661 12.9875 11.2185 12.6993 11.3495 12.4286C11.5328 12.0531 11.8647 11.8784 12.2664 11.8173C12.6157 11.7649 12.9562 11.8173 13.2968 11.8784C13.454 11.9046 13.6287 11.9046 13.7858 11.8784C14.1788 11.8086 14.4146 11.5029 14.4321 11.075C14.4321 10.9528 14.4233 10.8218 14.4408 10.6995C14.4844 10.3852 14.6678 10.1494 14.9298 9.97472C15.2442 9.76514 15.6022 9.65162 15.969 9.59922C16.6938 9.49443 17.4186 9.47697 18.1347 9.59049C19.1215 9.73894 20.0209 10.0882 20.8505 10.6471C22.2041 11.5641 23.1734 12.7866 23.7061 14.341C24.0117 15.2317 24.1078 16.1574 23.968 17.083C23.8021 18.1484 23.3917 19.1177 22.7542 19.9823C22.1255 20.8293 21.3483 21.4755 20.3789 21.8947C20.213 21.9646 20.0296 22.017 19.855 22.0781C19.8288 22.0868 19.7939 22.0868 19.7677 22.0956C19.7589 22.0956 19.7589 22.0868 19.7589 22.0868Z" fill="#1C1C1C"/>
<path d="M18.2745 19.4758C17.9513 19.1876 17.5846 19.0566 17.1654 19.0653C16.7812 19.0741 16.4668 19.24 16.1786 19.4845C15.7595 19.8338 15.4364 20.2442 15.3403 20.7944C15.2617 21.2572 15.3578 21.6938 15.5586 22.113C15.6721 22.3575 15.8293 22.5846 15.9603 22.8116C15.9167 22.8029 15.8643 22.7854 15.8119 22.7679C14.7552 22.4536 13.7772 21.9733 12.9388 21.2397C11.8473 20.3054 11.1487 19.1265 10.8692 17.703C10.8605 17.6768 10.8605 17.6506 10.8692 17.6245C11.0613 18.2183 11.3233 18.7772 11.6726 19.2924C12.0219 19.8076 12.4324 20.2704 12.9563 20.6459C12.9738 20.4975 12.9738 20.3665 12.9912 20.2355C13.1222 19.2836 13.6462 18.6374 14.5107 18.2532C15.384 17.869 16.266 17.8515 17.1392 18.2619C17.637 18.4977 17.995 18.8907 18.2308 19.3884C18.2483 19.4146 18.257 19.4496 18.2745 19.4758Z" fill="#1C1C1C"/>
<path d="M21.3484 19.4233C21.296 18.7247 21.0165 18.1222 20.4926 17.6331C20.2306 17.3799 19.9162 17.2314 19.5757 17.1267C19.2962 17.0306 19.1128 16.8297 19.0517 16.5328C19.043 16.5066 19.043 16.4804 19.0517 16.4542C19.1303 16.1311 19.4447 15.9478 19.7591 16.0351C19.8202 16.0525 19.8726 16.07 19.925 16.1049C20.3965 16.3931 20.8244 16.725 21.1825 17.1528C21.4095 17.4236 21.5056 17.7467 21.5929 18.0785C21.7937 18.8644 21.7326 19.6242 21.2698 20.3228C21.165 20.4887 21.0165 20.6284 20.8856 20.7681C20.9205 20.6372 20.9729 20.4974 20.9903 20.3664C21.0951 19.7464 20.903 19.2312 20.4402 18.812C20.2481 18.6461 20.0298 18.5239 19.7765 18.4453C19.6281 18.4016 19.4971 18.2968 19.3836 18.192C19.2526 18.0698 19.305 17.7641 19.4621 17.6506C19.663 17.5022 19.9075 17.5022 20.1346 17.6506C20.7546 18.0523 21.1475 18.6199 21.3222 19.336C21.3309 19.3622 21.3397 19.3971 21.3484 19.4233Z" fill="#1C1C1C"/>
<path d="M16.1088 12.219C16.4668 12.1317 16.8336 12.1055 17.2003 12.123C18.615 12.1928 19.7852 12.7954 20.7632 13.7909C20.8855 13.9131 20.9728 14.0616 21.0601 14.2101C21.5754 15.0309 21.9247 15.9216 22.0644 16.8822C22.1342 17.3451 22.1692 17.8341 22.0295 18.5676C22.0033 18.4279 21.9771 18.2882 21.9509 18.1484C21.8373 17.642 21.654 17.1529 21.3309 16.7425C21.2261 16.6115 21.1038 16.5067 20.9903 16.3845C20.9553 16.3495 20.9292 16.2971 20.9204 16.2535C20.772 15.092 20.3179 14.0878 19.4184 13.3106C18.8508 12.8128 18.1784 12.5247 17.4449 12.3675C17.0082 12.2714 16.5629 12.2278 16.1088 12.219Z" fill="#1C1C1C"/>
<path d="M20.4314 19.2138C20.8418 19.9299 20.7807 20.7682 20.1519 21.3708C19.7677 21.7463 19.3049 22.017 18.7722 22.148C18.4316 22.2265 18.091 22.2527 17.7767 22.0956C17.5583 21.982 17.3575 21.8161 17.1741 21.6502C16.8685 21.3708 16.624 21.0389 16.5279 20.6198C16.5192 20.5936 16.5192 20.5586 16.5192 20.5499C16.6676 20.6896 16.8161 20.8555 16.982 20.9778C17.3138 21.2223 17.6981 21.2922 18.1085 21.266C18.7984 21.231 19.2961 20.8468 19.7415 20.3752C20.0297 20.0696 20.2392 19.7028 20.3964 19.3099C20.3964 19.2924 20.4139 19.2575 20.4314 19.2138Z" fill="#1C1C1C"/>
<path d="M16.2572 19.8338C16.0913 20.5586 16.3445 21.1612 16.7986 21.6851C17.0431 21.9646 17.3226 22.2178 17.6457 22.3924C17.864 22.506 18.1085 22.5584 18.3443 22.6195C18.7285 22.7068 19.1215 22.7068 19.5145 22.6282C19.5232 22.6282 19.5407 22.6282 19.5581 22.6457C19.366 22.6981 19.1826 22.7592 18.9905 22.8116C18.126 23.0299 17.2614 23.0823 16.3795 22.8989C16.3271 22.8902 16.2659 22.8465 16.231 22.8029C15.9254 22.3837 15.707 21.9209 15.6459 21.3969C15.5761 20.7857 15.7769 20.2792 16.2135 19.86C16.2223 19.8425 16.231 19.8425 16.2572 19.8338Z" fill="#1C1C1C"/>
<path d="M14.1002 5.00587C14.5543 4.97967 14.9909 5.0408 15.4188 5.19798C15.838 5.34644 16.2135 5.58222 16.5366 5.88786C17.0868 6.41181 17.6893 6.86591 18.4054 7.14535C18.5713 7.20648 18.7372 7.25014 18.9119 7.30254C18.6586 7.3724 18.4141 7.3724 18.1696 7.33747C17.5234 7.25014 16.9645 6.95323 16.4318 6.58646C16.0825 6.34195 15.7507 6.06251 15.4538 5.75687C15.1132 5.40756 14.6853 5.21545 14.2312 5.04953C14.1875 5.0408 14.1439 5.02333 14.1002 5.00587Z" fill="#1C1C1C"/>
<path d="M12.1006 24.6804C12.4936 24.6192 12.8691 24.6716 13.2446 24.7852C13.9694 24.9947 14.5806 25.4052 15.1221 25.9291C15.3229 26.1212 15.5325 26.3046 15.7508 26.4793C16.0739 26.7325 16.4319 26.9159 16.8598 26.9596C16.6765 27.012 16.2922 27.012 16.0302 26.9683C15.4801 26.8722 14.9998 26.619 14.5894 26.2435C14.048 25.7457 13.4629 25.2916 12.7992 24.9685C12.5809 24.855 12.3451 24.7764 12.1006 24.6804Z" fill="#1C1C1C"/>
<path d="M11.4456 15.8168C11.7687 15.8168 12.0306 16.0788 12.0306 16.4019C12.0306 16.725 11.7687 16.9869 11.4456 16.9869C11.1225 16.9869 10.8692 16.725 10.8605 16.4106C10.8605 16.0787 11.1225 15.8168 11.4456 15.8168Z" fill="#1C1C1C"/>
<path d="M13.882 18.2968C14.5107 17.738 15.1918 17.3275 16.0651 17.3363C16.3271 17.345 16.5803 17.3974 16.8161 17.5196C16.886 17.5546 16.9471 17.5982 16.9995 17.6506C17.113 17.7554 17.1043 17.8777 16.9908 17.9825C15.8992 17.4585 14.8775 17.7205 13.882 18.2968Z" fill="#1C1C1C"/>
<path d="M14.0041 15.1794C13.7945 15.1794 13.6199 15.0047 13.6199 14.7951C13.6199 14.5768 13.8033 14.4022 14.0128 14.4109C14.2224 14.4196 14.3883 14.5943 14.3883 14.8039C14.3883 15.0134 14.2137 15.1794 14.0041 15.1794Z" fill="#1C1C1C"/>
</svg>
