<svg id="图层_1" data-name="图层 1" xmlns="http://www.w3.org/2000/svg" viewBox="0 0 40 40"><defs><style>.cls-1{fill:#dbb9c8;}.cls-2{fill:#cf82b8;}</style></defs><path class="cls-1" d="M32.86,15.45H29.39v-6a.67.67,0,0,0-.67-.67h-2.1a.67.67,0,0,0-.67.67v6H22.54v-6a.67.67,0,0,0-.67-.67h-2.1a.67.67,0,0,0-.67.67v6H15.69v-6A.67.67,0,0,0,15,8.77h-2.1a.68.68,0,0,0-.68.67v6H8.78A3.19,3.19,0,0,0,5.61,19l.23,2.19A4.48,4.48,0,0,0,9,22.62c3,0,3-2.48,5.92-2.48s3,2.48,5.91,2.48,3-2.48,5.92-2.48,3,2.48,5.92,2.48a4.3,4.3,0,0,0,3.1-1.36L36,19A3.18,3.18,0,0,0,32.86,15.45Z"/><path class="cls-2" d="M26.78,23.57c-3,0-3,2.49-5.91,2.49s-3-2.49-5.92-2.49S12,26.06,9,26.06A3.93,3.93,0,0,1,6.23,25L7,32.71A2.53,2.53,0,0,0,9.54,35H32.1a2.54,2.54,0,0,0,2.52-2.27L35.4,25a3.88,3.88,0,0,1-2.7,1C29.74,26.06,29.74,23.57,26.78,23.57Z"/><path class="cls-2" d="M22,6.83a2.25,2.25,0,0,0-1.13-1.95,2.24,2.24,0,0,0,0,3.89A2.25,2.25,0,0,0,22,6.83Z"/><path class="cls-2" d="M15.1,6.83A2.25,2.25,0,0,0,14,4.88a2.24,2.24,0,0,0,0,3.89A2.25,2.25,0,0,0,15.1,6.83Z"/><path class="cls-2" d="M28.8,6.83a2.25,2.25,0,0,0-1.13-1.95,2.24,2.24,0,0,0,0,3.89A2.25,2.25,0,0,0,28.8,6.83Z"/></svg>