<svg xmlns="http://www.w3.org/2000/svg" xmlns:xlink="http://www.w3.org/1999/xlink" width="14" height="14" viewBox="0 0 14 14" fill="none">
<path d="M7 0C7.11456 0 7.22905 0.00281036 7.34347 0.0084312C7.45789 0.0140531 7.57211 0.0224781 7.68612 0.0337062C7.80014 0.0449355 7.9138 0.0589547 8.02711 0.0757641C8.14044 0.0925734 8.25326 0.112153 8.36562 0.134503C8.47798 0.156853 8.58973 0.181945 8.70086 0.209781C8.81198 0.237617 8.92236 0.268162 9.03198 0.301417C9.14162 0.334672 9.25037 0.370597 9.35823 0.409191C9.46609 0.447786 9.57294 0.489003 9.67878 0.532844C9.78462 0.576687 9.88933 0.623098 9.99289 0.672078C10.0964 0.721058 10.1987 0.772547 10.2998 0.826547C10.4008 0.880558 10.5005 0.937011 10.5987 0.995906C10.697 1.0548 10.7937 1.11607 10.889 1.17972C10.9842 1.24336 11.0779 1.30931 11.1699 1.37755C11.2619 1.44579 11.3522 1.51625 11.4407 1.58892C11.5293 1.66159 11.616 1.73641 11.7009 1.81334C11.7858 1.89028 11.8687 1.96925 11.9497 2.05025C12.0307 2.13127 12.1097 2.2142 12.1867 2.29909C12.2636 2.38397 12.3384 2.47069 12.4111 2.55925C12.4837 2.6478 12.5542 2.73809 12.6225 2.83011C12.6907 2.92212 12.7566 3.01575 12.8203 3.111C12.8839 3.20627 12.9452 3.30302 13.0041 3.40128C13.063 3.49955 13.1194 3.59919 13.1735 3.70022C13.2275 3.80125 13.2789 3.90355 13.3279 4.00711C13.3769 4.11067 13.4233 4.21537 13.4672 4.32122C13.511 4.42705 13.5522 4.53391 13.5908 4.64176C13.6294 4.74962 13.6653 4.85837 13.6986 4.968C13.7318 5.07764 13.7624 5.18801 13.7902 5.29914C13.818 5.41026 13.8431 5.52201 13.8655 5.63437C13.8878 5.74673 13.9074 5.85956 13.9242 5.97289C13.941 6.0862 13.9551 6.19986 13.9663 6.31387C13.9775 6.42789 13.986 6.54211 13.9916 6.65653C13.9972 6.77095 14 6.88544 14 7C14 7.11456 13.9972 7.22905 13.9916 7.34347C13.986 7.45789 13.9775 7.57211 13.9663 7.68612C13.9551 7.80014 13.941 7.9138 13.9242 8.02711C13.9074 8.14044 13.8878 8.25326 13.8655 8.36562C13.8431 8.47798 13.818 8.58973 13.7902 8.70086C13.7624 8.81198 13.7318 8.92236 13.6986 9.03198C13.6653 9.14162 13.6294 9.25037 13.5908 9.35823C13.5522 9.46609 13.511 9.57294 13.4672 9.67878C13.4233 9.78462 13.3769 9.88933 13.3279 9.99289C13.2789 10.0964 13.2275 10.1987 13.1735 10.2998C13.1194 10.4008 13.063 10.5005 13.0041 10.5987C12.9452 10.697 12.8839 10.7937 12.8203 10.889C12.7566 10.9842 12.6907 11.0779 12.6225 11.1699C12.5542 11.2619 12.4837 11.3522 12.4111 11.4407C12.3384 11.5293 12.2636 11.616 12.1867 11.7009C12.1097 11.7858 12.0307 11.8687 11.9497 11.9497C11.8687 12.0307 11.7858 12.1097 11.7009 12.1867C11.616 12.2636 11.5293 12.3384 11.4407 12.4111C11.3522 12.4837 11.2619 12.5542 11.1699 12.6225C11.0779 12.6907 10.9842 12.7566 10.889 12.8203C10.7937 12.8839 10.697 12.9452 10.5987 13.0041C10.5005 13.063 10.4008 13.1194 10.2998 13.1735C10.1987 13.2275 10.0964 13.2789 9.99289 13.3279C9.88933 13.3769 9.78462 13.4233 9.67878 13.4672C9.57294 13.511 9.46609 13.5522 9.35823 13.5908C9.25037 13.6294 9.14162 13.6653 9.03198 13.6986C8.92236 13.7318 8.81198 13.7624 8.70086 13.7902C8.58973 13.818 8.47798 13.8431 8.36562 13.8655C8.25326 13.8878 8.14044 13.9074 8.02711 13.9242C7.9138 13.941 7.80014 13.9551 7.68612 13.9663C7.57211 13.9775 7.45789 13.986 7.34347 13.9916C7.22905 13.9972 7.11456 14 7 14C6.88544 14 6.77095 13.9972 6.65653 13.9916C6.54211 13.986 6.42789 13.9775 6.31387 13.9663C6.19986 13.9551 6.0862 13.941 5.97289 13.9242C5.85956 13.9074 5.74672 13.8878 5.63436 13.8655C5.522 13.8431 5.41026 13.818 5.29914 13.7902C5.18801 13.7624 5.07764 13.7318 4.968 13.6986C4.85837 13.6653 4.74962 13.6294 4.64176 13.5908C4.53391 13.5522 4.42705 13.511 4.32122 13.4672C4.21537 13.4233 4.11067 13.3769 4.00711 13.3279C3.90355 13.2789 3.80125 13.2275 3.70022 13.1735C3.59919 13.1194 3.49955 13.063 3.40128 13.0041C3.30302 12.9452 3.20627 12.8839 3.111 12.8203C3.01575 12.7566 2.92212 12.6907 2.83011 12.6225C2.73809 12.5542 2.6478 12.4837 2.55925 12.4111C2.47069 12.3384 2.38397 12.2636 2.29909 12.1867C2.2142 12.1097 2.13127 12.0307 2.05025 11.9497C1.96925 11.8687 1.89028 11.7858 1.81334 11.7009C1.73641 11.616 1.66159 11.5293 1.58892 11.4407C1.51625 11.3522 1.44579 11.2619 1.37755 11.1699C1.30931 11.0779 1.24336 10.9842 1.17972 10.889C1.11607 10.7937 1.0548 10.697 0.995906 10.5987C0.937011 10.5005 0.880558 10.4008 0.826547 10.2998C0.772547 10.1987 0.721058 10.0964 0.672078 9.99289C0.623098 9.88933 0.576687 9.78462 0.532844 9.67878C0.489003 9.57294 0.447786 9.46609 0.409191 9.35823C0.370597 9.25037 0.334672 9.14162 0.301417 9.03198C0.268162 8.92236 0.237617 8.81198 0.209781 8.70086C0.181945 8.58973 0.156852 8.47798 0.134503 8.36562C0.112153 8.25326 0.0925734 8.14044 0.0757641 8.02711C0.0589547 7.9138 0.0449355 7.80014 0.0337062 7.68612C0.0224781 7.57211 0.0140531 7.45789 0.0084312 7.34347C0.00281036 7.22905 0 7.11456 0 7C0 6.88544 0.00281036 6.77095 0.0084312 6.65653C0.0140531 6.54211 0.0224781 6.42789 0.0337062 6.31387C0.0449355 6.19986 0.0589547 6.0862 0.0757641 5.97289C0.0925734 5.85956 0.112153 5.74672 0.134503 5.63436C0.156852 5.522 0.181945 5.41026 0.209781 5.29914C0.237617 5.18801 0.268162 5.07764 0.301417 4.968C0.334672 4.85837 0.370597 4.74962 0.409191 4.64176C0.447786 4.53391 0.489003 4.42705 0.532844 4.32122C0.576687 4.21537 0.623098 4.11067 0.672078 4.00711C0.721058 3.90355 0.772547 3.80125 0.826547 3.70022C0.880558 3.59919 0.937011 3.49955 0.995906 3.40128C1.0548 3.30302 1.11607 3.20627 1.17972 3.111C1.24336 3.01575 1.30931 2.92212 1.37755 2.83011C1.44579 2.73809 1.51625 2.6478 1.58892 2.55925C1.66159 2.47069 1.73641 2.38397 1.81334 2.29909C1.89028 2.2142 1.96925 2.13127 2.05025 2.05025C2.13127 1.96925 2.2142 1.89028 2.29909 1.81334C2.38397 1.73641 2.47069 1.66159 2.55925 1.58892C2.6478 1.51625 2.73809 1.44579 2.83011 1.37755C2.92212 1.30931 3.01575 1.24336 3.111 1.17972C3.20627 1.11607 3.30302 1.0548 3.40128 0.995906C3.49955 0.937011 3.59919 0.880558 3.70022 0.826547C3.80125 0.772547 3.90355 0.721058 4.00711 0.672078C4.11067 0.623098 4.21537 0.576687 4.32122 0.532844C4.42705 0.489003 4.53391 0.447786 4.64176 0.409191C4.74962 0.370597 4.85837 0.334672 4.968 0.301417C5.07764 0.268162 5.18801 0.237617 5.29914 0.209781C5.41026 0.181945 5.52201 0.156853 5.63437 0.134503C5.74673 0.112153 5.85956 0.0925734 5.97289 0.0757641C6.0862 0.0589547 6.19986 0.0449355 6.31387 0.0337062C6.42789 0.0224781 6.54211 0.0140531 6.65653 0.0084312C6.77095 0.00281036 6.88544 0 7 0ZM6.128 8.381L4.573 6.825C4.56605 6.81805 4.55894 6.81126 4.55167 6.80466C4.54439 6.79805 4.53695 6.79162 4.52936 6.78537C4.52176 6.77914 4.51401 6.77309 4.50612 6.76723C4.49823 6.76137 4.4902 6.7557 4.48203 6.75023C4.47386 6.74476 4.46556 6.7395 4.45714 6.73445C4.44872 6.72939 4.44017 6.72455 4.4315 6.71991C4.42283 6.71526 4.41406 6.71083 4.40517 6.70662C4.39628 6.70242 4.38731 6.69844 4.37823 6.69467C4.36916 6.69091 4.35998 6.68736 4.35073 6.68405C4.34148 6.68072 4.33216 6.67764 4.32275 6.67478C4.31334 6.67192 4.30387 6.6693 4.29434 6.66691C4.2848 6.66451 4.27522 6.66234 4.26558 6.66042C4.25594 6.6585 4.24625 6.65683 4.23653 6.65537C4.22681 6.65392 4.21706 6.65272 4.20728 6.65175C4.19748 6.65078 4.18769 6.65006 4.17787 6.64958C4.16805 6.64909 4.15823 6.64884 4.14841 6.64884C4.13858 6.64883 4.12875 6.64906 4.11894 6.64955C4.10911 6.65003 4.09931 6.65075 4.08953 6.6517C4.07975 6.65266 4.07 6.65386 4.06027 6.65531C4.05055 6.65675 4.04086 6.65842 4.03122 6.66034C4.02158 6.66225 4.012 6.66439 4.00245 6.66678C3.99292 6.66917 3.98345 6.6718 3.97405 6.67464C3.96464 6.6775 3.95531 6.68058 3.94605 6.68389C3.9368 6.68719 3.92762 6.69072 3.91855 6.69448C3.90947 6.69825 3.90048 6.70223 3.89159 6.70644C3.8827 6.71064 3.87392 6.71505 3.86525 6.71969C3.85658 6.72431 3.84803 6.72916 3.83959 6.7342C3.83117 6.73925 3.82286 6.74451 3.81469 6.74998C3.80651 6.75544 3.79848 6.76109 3.79059 6.76695C3.7827 6.77281 3.77495 6.77886 3.76734 6.78509C3.75975 6.79133 3.75231 6.79773 3.74503 6.80434C3.73773 6.81095 3.73062 6.81772 3.72367 6.82467C3.71672 6.83162 3.70995 6.83873 3.70334 6.84601C3.69673 6.85331 3.69033 6.86075 3.68409 6.86834C3.67786 6.87595 3.67181 6.8837 3.66595 6.89159C3.66009 6.89948 3.65444 6.90751 3.64898 6.91569C3.64353 6.92386 3.63827 6.93217 3.63322 6.94059C3.62817 6.94903 3.62333 6.95758 3.61869 6.96625C3.61405 6.97492 3.60964 6.9837 3.60544 6.99259C3.60123 7.00148 3.59725 7.01047 3.59348 7.01955C3.58972 7.02862 3.58619 7.03778 3.58289 7.04705C3.57958 7.05631 3.5765 7.06564 3.57364 7.07505C3.5708 7.08445 3.56819 7.09392 3.5658 7.10345C3.56341 7.113 3.56127 7.12258 3.55934 7.13222C3.55742 7.14186 3.55575 7.15155 3.55431 7.16126C3.55287 7.171 3.55167 7.18075 3.5507 7.19053C3.54975 7.20031 3.54903 7.21011 3.54855 7.21994C3.54806 7.22975 3.54783 7.23958 3.54784 7.24941C3.54784 7.25923 3.54809 7.26905 3.54858 7.27887C3.54906 7.28869 3.54978 7.29848 3.55075 7.30826C3.55172 7.31806 3.55292 7.32781 3.55437 7.33753C3.55583 7.34725 3.5575 7.35694 3.55942 7.36658C3.56134 7.37622 3.56352 7.3858 3.56591 7.39533C3.5683 7.40487 3.57092 7.41434 3.57378 7.42375C3.57664 7.43314 3.57972 7.44247 3.58305 7.45173C3.58636 7.46098 3.58991 7.47016 3.59367 7.47923C3.59744 7.48831 3.60142 7.49728 3.60562 7.50617C3.60983 7.51506 3.61427 7.52383 3.61891 7.5325C3.62355 7.54117 3.62839 7.54972 3.63345 7.55814C3.6385 7.56656 3.64377 7.57486 3.64923 7.58303C3.6547 7.5912 3.66037 7.59923 3.66623 7.60712C3.67209 7.61501 3.67814 7.62276 3.68439 7.63036C3.69062 7.63795 3.69705 7.64539 3.70366 7.65266C3.71027 7.65994 3.71705 7.66705 3.724 7.674L5.704 9.654C5.71092 9.66098 5.71801 9.66778 5.72528 9.67442C5.73255 9.68106 5.73997 9.6875 5.74755 9.69376C5.75512 9.70003 5.76286 9.70611 5.77075 9.71198C5.77862 9.71787 5.78664 9.72356 5.79481 9.72904C5.80298 9.73453 5.81126 9.73983 5.81969 9.7449C5.82811 9.74998 5.83666 9.75484 5.84531 9.7595C5.85398 9.76417 5.86275 9.76861 5.87164 9.77283C5.88051 9.77706 5.8895 9.78106 5.89858 9.78484C5.90766 9.78862 5.91683 9.79217 5.92608 9.7955C5.93533 9.79883 5.94465 9.80194 5.95408 9.8048C5.96348 9.80767 5.97295 9.81031 5.98248 9.8127C5.99203 9.81511 6.00162 9.81728 6.01126 9.8192C6.02091 9.82112 6.03059 9.82281 6.04033 9.82426C6.05006 9.82572 6.05981 9.82692 6.06959 9.82789C6.07939 9.82887 6.08919 9.82959 6.09901 9.83008C6.10884 9.83056 6.11867 9.83081 6.1285 9.83081C6.13833 9.83081 6.14816 9.83056 6.15798 9.83008C6.16781 9.82959 6.17761 9.82887 6.18741 9.82789C6.1972 9.82692 6.20695 9.82572 6.21667 9.82426C6.22641 9.82281 6.23609 9.82112 6.24573 9.8192C6.25537 9.81728 6.26497 9.81511 6.27451 9.8127C6.28405 9.81031 6.29351 9.80767 6.30294 9.8048C6.31234 9.80194 6.32167 9.79883 6.33092 9.7955C6.34019 9.79217 6.34934 9.78862 6.35842 9.78484C6.3675 9.78106 6.37648 9.77706 6.38537 9.77283C6.39425 9.76861 6.40301 9.76417 6.41169 9.7595C6.42034 9.75484 6.42889 9.74998 6.43731 9.7449C6.44573 9.73983 6.45403 9.73453 6.46219 9.72904C6.47036 9.72356 6.47837 9.71787 6.48625 9.71198C6.49414 9.70611 6.50187 9.70003 6.50945 9.69376C6.51703 9.6875 6.52445 9.68106 6.53172 9.67442C6.53898 9.66778 6.54608 9.66098 6.553 9.654L10.653 5.553C10.66 5.54608 10.6669 5.539 10.6736 5.53173C10.6803 5.52448 10.6868 5.51706 10.6931 5.50948C10.6995 5.50191 10.7056 5.49419 10.7115 5.4863C10.7175 5.4784 10.7232 5.47039 10.7288 5.46223C10.7343 5.45406 10.7396 5.44576 10.7448 5.43734C10.7499 5.42892 10.7549 5.42036 10.7596 5.41169C10.7643 5.40301 10.7688 5.39423 10.7731 5.38534C10.7773 5.37645 10.7814 5.36745 10.7852 5.35836C10.7891 5.34926 10.7927 5.34008 10.7961 5.33081C10.7995 5.32155 10.8026 5.31219 10.8055 5.30276C10.8085 5.29334 10.8112 5.28384 10.8136 5.27428C10.8161 5.26472 10.8183 5.25511 10.8203 5.24544C10.8222 5.23576 10.824 5.22606 10.8255 5.2163C10.827 5.20655 10.8282 5.19676 10.8293 5.18694C10.8303 5.17712 10.8311 5.16728 10.8316 5.15742C10.8321 5.14756 10.8324 5.1377 10.8325 5.12784C10.8325 5.11797 10.8323 5.10809 10.8319 5.09823C10.8314 5.08837 10.8307 5.07853 10.8298 5.0687C10.8289 5.05887 10.8277 5.04908 10.8263 5.03931C10.8249 5.02955 10.8233 5.01981 10.8214 5.01012C10.8195 5.00044 10.8173 4.9908 10.815 4.98122C10.8126 4.97164 10.81 4.96212 10.8072 4.95267C10.8044 4.94322 10.8013 4.93383 10.798 4.92453C10.7947 4.91523 10.7912 4.90601 10.7874 4.89687C10.7837 4.88775 10.7797 4.87872 10.7755 4.86978C10.7713 4.86086 10.7669 4.85203 10.7622 4.84331C10.7576 4.83461 10.7527 4.82601 10.7477 4.81753C10.7426 4.80905 10.7374 4.8007 10.7319 4.79248C10.7264 4.78428 10.7207 4.7762 10.7149 4.76826C10.709 4.76033 10.703 4.75255 10.6967 4.74491C10.6905 4.73726 10.684 4.7298 10.6774 4.72247C10.6708 4.71514 10.664 4.708 10.657 4.70101C10.65 4.69403 10.6429 4.68723 10.6356 4.68059C10.6282 4.67395 10.6208 4.66751 10.6131 4.66125C10.6055 4.65498 10.5977 4.64892 10.5898 4.64305C10.5819 4.63716 10.5738 4.63148 10.5656 4.626C10.5574 4.62051 10.549 4.61525 10.5406 4.61017C10.5321 4.60511 10.5235 4.60025 10.5148 4.59561C10.5061 4.59097 10.4973 4.58653 10.4884 4.58233C10.4794 4.57812 10.4704 4.57412 10.4613 4.57036C10.4522 4.56659 10.4429 4.56306 10.4336 4.55975C10.4243 4.55645 10.415 4.55337 10.4055 4.55051C10.3961 4.54767 10.3865 4.54506 10.377 4.54269C10.3674 4.54031 10.3577 4.53817 10.3481 4.53626C10.3384 4.53437 10.3287 4.5327 10.3189 4.53128C10.3091 4.52986 10.2993 4.52869 10.2895 4.52775C10.2797 4.52681 10.2698 4.52611 10.26 4.52566C10.2501 4.5252 10.2402 4.525 10.2304 4.52503C10.2205 4.52506 10.2106 4.52534 10.2008 4.52586C10.1909 4.52639 10.1811 4.52716 10.1713 4.52816C10.1615 4.52917 10.1517 4.53042 10.1419 4.53191C10.1321 4.53339 10.1224 4.53512 10.1128 4.53709C10.1031 4.53906 10.0935 4.54127 10.0839 4.54372C10.0743 4.54616 10.0648 4.54883 10.0554 4.55175C10.046 4.55467 10.0366 4.55781 10.0274 4.56119C10.0181 4.56456 10.0089 4.56816 9.99979 4.57198C9.99069 4.57581 9.98169 4.57986 9.9728 4.58414C9.9639 4.58841 9.95511 4.59289 9.94644 4.59759C9.93776 4.6023 9.9292 4.60722 9.92076 4.61234C9.91234 4.61748 9.90403 4.62281 9.89586 4.62834C9.88769 4.63389 9.87965 4.63962 9.87176 4.64556C9.86387 4.65148 9.85614 4.65761 9.84856 4.66394C9.84098 4.67025 9.83354 4.67675 9.82628 4.68342C9.81901 4.69011 9.81192 4.69697 9.805 4.704L6.128 8.381Z"   fill="#FFFFFF" >
</path>
</svg>
