<svg id="图层_1" data-name="图层 1" xmlns="http://www.w3.org/2000/svg" viewBox="0 0 40 40"><defs><style>.cls-1{fill:#eb7373;}.cls-2{fill:#eda994;}</style></defs><path class="cls-1" d="M21.94,5.64h-.75v-2a1.1,1.1,0,0,0-1.1-1.1h-.18a1.1,1.1,0,0,0-1.1,1.1v2h-.75A3.07,3.07,0,0,0,15,8.4c0,.29.05.44.19.52l.33-.17h0a9.63,9.63,0,0,1,8.94,0h0l.31.16A4.13,4.13,0,0,0,25,8.49,3.08,3.08,0,0,0,21.94,5.64Z"/><path class="cls-2" d="M25,8.87V8.73a2,2,0,0,0,0-.24,4.13,4.13,0,0,1-.22.42l.06,0a10.2,10.2,0,0,1-.33,17.85c6.48-1.16,11.21-4.75,11.21-9S31.24,10.13,25,8.87Z"/><path class="cls-2" d="M15,8.4a1.75,1.75,0,0,0,0,.33v.14C8.76,10.13,4.28,13.63,4.28,17.78s4.73,7.85,11.21,9a10.2,10.2,0,0,1-.33-17.85l0,0C15.06,8.84,15,8.69,15,8.4Z"/><ellipse class="cls-2" cx="20" cy="17.78" rx="6.59" ry="9.41"/><rect class="cls-1" x="14.66" y="27.91" width="10.05" height="1.93"/><polygon class="cls-1" points="14.66 30.56 13.57 36.85 25.8 36.85 24.71 30.56 14.66 30.56"/></svg>