<svg width="14" height="13" viewBox="0 0 14 13" fill="none" xmlns="http://www.w3.org/2000/svg">
<path d="M7.01186 0.691299C3.59204 0.691299 0.819702 2.01059 0.819702 5.43345C0.819702 8.85632 5.0694 12.6458 7.01186 12.6458C9.0747 12.6427 13.2022 8.85023 13.2022 5.43041C13.2022 2.01059 10.4311 0.691299 7.01186 0.691299ZM7.92746 10.0789C7.92746 10.2724 7.8506 10.458 7.71378 10.5948C7.57696 10.7316 7.39139 10.8085 7.1979 10.8085H6.83312C6.63963 10.8085 6.45406 10.7316 6.31724 10.5948C6.18042 10.458 6.10356 10.2724 6.10356 10.0789C6.10356 9.88545 6.18042 9.69988 6.31724 9.56306C6.45406 9.42624 6.63963 9.34938 6.83312 9.34938H7.1979C7.39139 9.34938 7.57696 9.42624 7.71378 9.56306C7.8506 9.69988 7.92746 9.88545 7.92746 10.0789ZM8.03446 7.50359C8.01367 7.76044 7.89696 8.00005 7.70753 8.17476C7.51811 8.34947 7.26986 8.44648 7.01216 8.44648C6.75447 8.44648 6.50622 8.34947 6.3168 8.17476C6.12737 8.00005 6.01066 7.76044 5.98987 7.50359L5.57766 2.34801H8.44727L8.03446 7.50359Z" fill="#4D4D4D"/>
</svg>
