<svg width="16" height="16" viewBox="0 0 16 16" fill="none" xmlns="http://www.w3.org/2000/svg">
<g clip-path="url(#clip0_1_147)">
<path d="M13.6816 12.7024C13.111 12.7133 12.5475 12.5739 12.0477 12.2983C11.7245 12.1367 11.4748 12.0131 10.9165 12.0131C10.3581 12.0131 10.1084 12.1391 9.7852 12.2983C9.28541 12.5739 8.72195 12.7133 8.15132 12.7024C7.58072 12.713 7.01731 12.5737 6.51745 12.2983C6.19423 12.1367 5.94535 12.0131 5.38618 12.0131C4.82701 12.0131 4.57813 12.1391 4.25491 12.2983C3.75505 12.5737 3.19164 12.713 2.62104 12.7024C2.05041 12.7133 1.48695 12.5739 0.987163 12.2983C0.890197 12.2499 0.798887 12.2046 0.704346 12.165C2.2962 14.476 5.03791 16 8.15536 16C11.2728 16 14.0137 14.4728 15.5983 12.1626C15.5029 12.2022 15.4124 12.2434 15.3155 12.2959C14.8159 12.5722 14.2524 12.7124 13.6816 12.7024Z" fill="#4D4D4D"/>
<path d="M10.8841 4.74873C11.878 4.74873 12.5253 5.47598 12.5253 5.47598L14.4913 4.28895L12.5253 3.25384C12.5253 3.25384 12.1786 4.06755 10.8147 4.06755C9.1727 4.06755 8.66363 3.0785 8.66363 3.0785V2.00137L8.67898 1.95127C8.84892 1.86612 8.99208 1.73577 9.09273 1.57453C9.19337 1.4133 9.24761 1.22743 9.24947 1.03736C9.24947 0.462842 8.75979 -0.00259399 8.15537 -0.00259399C7.55095 -0.00259399 7.06046 0.462842 7.06046 1.03736C7.06249 1.22749 7.11688 1.41338 7.21766 1.57461C7.31845 1.73584 7.46173 1.86616 7.63175 1.95127L7.6463 2.00137V3.0785C7.6463 3.0785 7.13804 4.06755 5.49608 4.06755C4.13209 4.06755 3.78544 3.25384 3.78544 3.25384L1.81946 4.28734L3.78544 5.47436C3.78544 5.47436 4.43188 4.74712 5.42659 4.74712C6.4213 4.74712 6.19019 5.47436 6.19019 5.47436L5.15508 11.1517C5.23023 11.1477 5.30861 11.1444 5.39184 11.1444C5.96251 11.1332 6.52606 11.2725 7.02572 11.5485C7.19658 11.6405 7.37705 11.7133 7.56388 11.7658V6.15555H8.74363V11.7658C8.93072 11.7123 9.11144 11.6386 9.2826 11.546C9.78221 11.27 10.3458 11.1307 10.9165 11.142C10.9973 11.142 11.0781 11.142 11.154 11.1493L10.1205 5.47436C10.1205 5.47436 9.88944 4.74873 10.8841 4.74873Z" fill="#4D4D4D"/>
</g>
<defs>
<clipPath id="clip0_1_147">
<rect width="16" height="16" fill="white"/>
</clipPath>
</defs>
</svg>
