<svg width="16" height="16" viewBox="0 0 16 16" fill="none" xmlns="http://www.w3.org/2000/svg">
<path d="M10.8265 5.16965C10.2669 4.61078 9.55413 4.23036 8.77835 4.07646C8.00258 3.92256 7.19859 4.0021 6.46801 4.30501C5.73742 4.60792 5.11303 5.12061 4.67374 5.77829C4.23446 6.43596 4 7.20911 4 8C4 8.79089 4.23446 9.56403 4.67374 10.2217C5.11303 10.8794 5.73742 11.3921 6.46801 11.695C7.19859 11.9979 8.00258 12.0774 8.77835 11.9235C9.55413 11.7696 10.2669 11.3892 10.8265 10.8304C11.1985 10.4588 11.4936 10.0177 11.695 9.53199C11.8964 9.04633 12 8.52575 12 8C12 7.47425 11.8964 6.95366 11.695 6.46801C11.4936 5.98235 11.1985 5.54115 10.8265 5.16965ZM8.90092 8.90141C8.72229 9.08006 8.49471 9.20173 8.24693 9.25103C7.99916 9.30034 7.74233 9.27505 7.50892 9.17839C7.27552 9.08172 7.07602 8.91801 6.93566 8.70796C6.7953 8.4979 6.72039 8.25095 6.72039 7.99832C6.72039 7.74569 6.7953 7.49873 6.93566 7.28868C7.07602 7.07863 7.27552 6.91492 7.50892 6.81825C7.74233 6.72158 7.99916 6.6963 8.24693 6.7456C8.49471 6.7949 8.72229 6.91658 8.90092 7.09523C9.14029 7.33487 9.27468 7.65978 9.27452 7.99849C9.27436 8.33721 9.13967 8.66199 8.90007 8.90141H8.90092Z" fill="#4D4D4D"/>
<path d="M13.4427 2.55734C12.4286 1.54323 10.2629 1.96089 7.99956 3.42195C5.73698 1.96089 3.57131 1.54323 2.5572 2.55734C1.5431 3.57144 1.96376 5.73787 3.42182 8.00044C1.96001 10.263 1.54385 12.4325 2.5572 13.4435C3.57055 14.4546 5.73698 14.04 7.99956 12.5782C10.2629 14.04 12.4316 14.4562 13.4427 13.4428C14.4538 12.4294 14.0391 10.263 12.578 8.00044C14.0391 5.73787 14.4568 3.57144 13.4427 2.55734ZM12.3121 7.60081C12.2575 7.73252 12.1979 7.86473 12.1333 7.99744C12.1979 8.12965 12.2575 8.26186 12.3121 8.39406C12.9258 9.87541 12.8958 11.2749 12.0868 12.0839C11.2777 12.8929 9.87753 12.923 8.39618 12.3093C8.26473 12.2552 8.13252 12.1951 7.99956 12.1305C7.86735 12.1951 7.73514 12.2552 7.60368 12.3093C6.12234 12.923 4.72213 12.8929 3.9131 12.0839C3.10407 11.2749 3.07402 9.87541 3.68774 8.39406C3.74032 8.26586 3.79992 8.13465 3.86652 8.00044C3.79992 7.86773 3.74158 7.73452 3.6915 7.60081C3.07778 6.11947 3.10782 4.72001 3.91685 3.91098C4.72588 3.10195 6.12609 3.0719 7.60744 3.68562C7.73915 3.73971 7.8711 3.79905 8.00331 3.86365C8.13352 3.80105 8.26448 3.74271 8.39618 3.68862C9.87753 3.0749 11.277 3.10495 12.0868 3.91398C12.8966 4.72301 12.9258 6.12247 12.3121 7.60081Z" fill="#4D4D4D"/>
</svg>
