<svg width="13" height="14" viewBox="0 0 13 14" fill="none" xmlns="http://www.w3.org/2000/svg">
<path fill-rule="evenodd" clip-rule="evenodd" d="M6.54462 2.09565C3.65354 1.79543 0.967613 4.35025 1.13821 7.24664C1.22264 8.68003 2.06025 10.0446 3.23603 10.9344C4.4136 11.8255 5.84089 12.1773 7.07341 11.74C7.38469 11.6295 7.565 11.5331 7.66234 11.4625C7.60282 11.3962 7.51051 11.315 7.38059 11.2165C7.26448 11.1286 7.13988 11.0426 7.00536 10.9498C6.97121 10.9262 6.93643 10.9022 6.90098 10.8776C6.73567 10.763 6.55271 10.6334 6.39974 10.4991C6.26081 10.3772 6.07032 10.1881 5.98299 9.93693C5.93411 9.79631 5.9151 9.62925 5.96134 9.45307C6.00674 9.28006 6.10322 9.14329 6.21069 9.03967C6.54756 8.71486 6.94083 8.62933 7.32139 8.70334C7.64489 8.76626 7.94516 8.94365 8.162 9.07423C8.19653 9.09503 8.22981 9.11521 8.26204 9.13474C8.46326 9.25672 8.62319 9.35367 8.78724 9.41956C8.96261 9.48999 9.07986 9.49698 9.17881 9.46855C10.1803 9.18077 10.5933 8.41106 10.9578 7.12568C11.2941 5.93972 10.8973 4.7756 10.0376 3.83931C9.17243 2.89716 7.87402 2.2337 6.54462 2.09565ZM7.72002 11.5398C7.71999 11.5398 7.71969 11.5392 7.71922 11.538C7.71982 11.5392 7.72006 11.5399 7.72002 11.5398ZM7.73265 11.4016C7.7333 11.4006 7.73369 11.4001 7.73372 11.4001C7.73375 11.4001 7.73343 11.4006 7.73265 11.4016ZM0.00972382 7.31311C-0.202178 3.71548 3.08198 0.599552 6.66139 0.971253C8.26506 1.13779 9.8182 1.92905 10.8702 3.07472C11.9276 4.22625 12.5136 5.78305 12.0454 7.43408C11.6669 8.76876 11.107 10.0907 9.49101 10.555C9.06641 10.677 8.67844 10.5941 8.36595 10.4686C8.27803 10.4333 8.19114 10.3923 8.10709 10.3491C8.26346 10.47 8.42859 10.6123 8.55979 10.773C8.69963 10.9442 8.85599 11.2036 8.84132 11.5299C8.82581 11.875 8.62821 12.1394 8.39122 12.3281C8.1596 12.5126 7.84186 12.6668 7.45145 12.8054C5.76366 13.4043 3.94254 12.8867 2.55387 11.8358C1.16341 10.7836 0.11695 9.13358 0.00972382 7.31311Z" fill="#4D4D4D"/>
<circle cx="6.41457" cy="4.73635" r="0.5" fill="#4D4D4D" stroke="#4D4D4D" stroke-width="0.884074"/>
<circle cx="8.86391" cy="6.6205" r="0.5" fill="#4D4D4D" stroke="#4D4D4D" stroke-width="0.884074"/>
<circle cx="3.40004" cy="6.24361" r="0.5" fill="#4D4D4D" stroke="#4D4D4D" stroke-width="0.884074"/>
</svg>
