<svg width="16" height="8" viewBox="0 0 16 8" fill="none" xmlns="http://www.w3.org/2000/svg">
<path d="M13.4928 0.516235C14.144 0.516235 14.6392 0.615812 14.9783 0.814966C15.3228 1.00874 15.5623 1.24019 15.6969 1.50931C15.8369 1.77844 15.9149 2.02873 15.931 2.26018C15.9472 2.49163 15.9472 2.64772 15.931 2.72846C15.9041 2.92761 15.8638 3.09985 15.8099 3.24518C15.7615 3.38513 15.6942 3.53046 15.6081 3.68117C15.4359 3.99874 15.2152 4.26517 14.946 4.48047C14.6715 4.69577 14.3513 4.85994 13.9853 4.97297C13.6192 5.08601 13.1967 5.14252 12.7177 5.14252H12.1202L11.9426 6.48278C11.8995 6.77881 11.7703 7.02103 11.555 7.20942C11.3397 7.40319 11.0868 7.50007 10.7961 7.50007H10.3521L11.1837 1.35591C11.2213 1.10831 11.329 0.906469 11.5066 0.750376C11.6896 0.594282 11.9022 0.516235 12.1444 0.516235H13.4928ZM14.3809 2.83342C14.4186 2.58044 14.4024 2.37052 14.3324 2.20366C14.2678 2.0368 14.1763 1.91569 14.0579 1.84034C13.9395 1.7596 13.8103 1.70847 13.6704 1.68694C13.5304 1.66541 13.3824 1.65464 13.2263 1.65464H12.6046L12.2817 4.00412L12.968 3.99604C13.2048 3.99604 13.4066 3.96375 13.5735 3.89916C13.7404 3.83457 13.883 3.74576 14.0014 3.63272C14.1198 3.51969 14.214 3.38244 14.284 3.22096C14.3109 3.16175 14.3297 3.10523 14.3405 3.05141C14.3567 2.99758 14.3701 2.92492 14.3809 2.83342Z" fill="#4D4D4D"/>
<path d="M6.36194 7.49999L7.25813 1.1459C7.28504 0.957515 7.36847 0.804113 7.50842 0.685697C7.65375 0.561899 7.82061 0.5 8.00899 0.5H8.85674L7.9767 6.74105C7.9444 6.96173 7.84483 7.14205 7.67797 7.28199C7.51649 7.42732 7.32541 7.49999 7.10473 7.49999H6.36194Z" fill="#4D4D4D"/>
<path d="M2.59206 5.78027L4.56207 1.3316C4.86349 0.7772 5.28871 0.5 5.83773 0.5H6.37867C6.37867 0.5 6.37867 0.502691 6.37867 0.508074L3.27833 7.49999H1.42136L0.0568848 0.5H0.815822C1.05265 0.5 1.25988 0.575355 1.43751 0.726066C1.61513 0.871395 1.72816 1.06247 1.7766 1.29931L2.58398 5.78027H2.59206Z" fill="#4D4D4D"/>
</svg>
