<svg width="16" height="16" viewBox="0 0 16 16" fill="none" xmlns="http://www.w3.org/2000/svg">
<path d="M7.076 9.416C6.824 7.532 9.38 7.112 9.38 5.948C9.38 5.216 8.804 4.808 7.856 4.808C7.124 4.808 6.524 5.144 5.936 5.756L4.952 4.856C5.72 3.968 6.776 3.38 8.06 3.38C9.8 3.38 11.072 4.196 11.072 5.792C11.072 7.544 8.444 7.76 8.636 9.416H7.076ZM7.868 12.62C7.244 12.62 6.8 12.176 6.8 11.552C6.8 10.928 7.256 10.496 7.868 10.496C8.468 10.496 8.924 10.928 8.924 11.552C8.924 12.176 8.468 12.62 7.868 12.62Z" fill="black"/>
</svg>
