<svg width="16" height="16" viewBox="0 0 16 16" fill="none" xmlns="http://www.w3.org/2000/svg">
<path d="M14.5554 7.6249C14.5183 7.85953 14.4103 8.05712 14.2312 8.21766C14.046 8.38437 13.8361 8.46773 13.6014 8.46773H9.78554L9.52621 10.2738C9.52004 10.3541 9.53856 10.4282 9.58178 10.4961C9.63735 10.5578 9.70836 10.5887 9.7948 10.5887H14.1386L14.046 11.237C14.0336 11.3049 14.0028 11.3605 13.9534 11.4037C13.9101 11.447 13.8515 11.4686 13.7774 11.4686H8.47962C8.18942 11.4686 7.96096 11.3667 7.79425 11.1629C7.61519 10.9653 7.54727 10.7184 7.59049 10.422L7.99801 7.51376H12.6382C12.7123 7.51376 12.7771 7.48906 12.8327 7.43966C12.8821 7.39644 12.913 7.3347 12.9253 7.25443L13.1939 5.40206H8.29439L8.39627 4.67964C8.40862 4.63642 8.43023 4.59937 8.4611 4.5685C8.49815 4.53762 8.53828 4.52219 8.5815 4.52219H15L14.5554 7.6249Z" fill="#4D4D4D"/>
<path d="M5.39011 5.69841C5.68031 5.30324 6.04461 5.10565 6.48301 5.10565H7.22395L5.18635 8.20837L6.44596 11.4778H5.3438C5.0783 11.4778 4.88071 11.3389 4.75104 11.061L4.01936 9.06972L2.61156 11.237C2.50042 11.3975 2.35532 11.4778 2.17625 11.4778H1L3.20432 8.21763L1.90766 5.10565H2.83384C3.20432 5.10565 3.48217 5.29706 3.66741 5.67989L4.37131 7.34702L5.39011 5.69841Z" fill="#4D4D4D"/>
</svg>
