<svg width="64" height="16" viewBox="0 0 64 16" fill="none" xmlns="http://www.w3.org/2000/svg">
<path d="M1.072 1.888H14.912V3.44H1.072V1.888ZM4.784 6.528H11.984V7.776H4.784V6.528ZM4.784 8.432H11.984V9.696H4.784V8.432ZM0.912 10.368H15.056V11.952H0.912V10.368ZM10.48 2.224C11.504 3.744 13.552 5.2 15.552 5.904C15.152 6.256 14.592 6.944 14.32 7.392C12.256 6.48 10.208 4.736 8.992 2.8L10.48 2.224ZM3.824 4.448H11.968V5.888H5.792V11.072H3.824V4.448ZM1.952 13.616C4.496 13.536 8.592 13.328 12.416 13.12L12.384 14.592C8.72 14.88 4.8 15.12 2.144 15.296L1.952 13.616ZM4.656 10.944L6.928 11.024C6.432 12.256 5.792 13.472 5.296 14.288L3.44 14.112C3.904 13.2 4.4 11.904 4.656 10.944ZM9.792 12.336L11.424 11.568C12.432 12.48 13.808 13.824 14.48 14.704L12.736 15.6C12.144 14.72 10.832 13.312 9.792 12.336ZM6.496 0.415999L8.48 0.751999C7.232 3.488 5.104 5.936 1.472 7.616C1.248 7.168 0.704 6.496 0.32 6.176C3.712 4.784 5.632 2.576 6.496 0.415999ZM19.776 0.415999H21.344V3.2H19.776V0.415999ZM20.416 1.04H23.936V2.176H20.416V1.04ZM19.328 2.656H22.784V3.792H18.416L19.328 2.656ZM22.416 2.656H22.704L22.976 2.608L23.984 3.136C22.736 5.456 20.048 6.768 17.296 7.44C17.12 7.088 16.752 6.544 16.48 6.24C18.944 5.76 21.472 4.592 22.416 2.88V2.656ZM17.792 4.576L18.704 3.808C19.392 4.08 20.288 4.544 20.736 4.912L19.776 5.744C19.36 5.392 18.48 4.88 17.792 4.576ZM18.8 2.336L20.144 2.736C19.456 3.664 18.352 4.56 17.328 5.104C17.088 4.848 16.56 4.384 16.24 4.16C17.248 3.712 18.24 3.056 18.8 2.336ZM24.432 0.976H29.376V2.272H24.432V0.976ZM28.96 0.976H29.28L29.552 0.912L30.624 1.36C29.712 3.856 27.664 5.424 25.312 6.24C25.12 5.856 24.704 5.232 24.384 4.912C26.448 4.336 28.288 2.976 28.96 1.2V0.976ZM24.288 3.504L25.36 2.464C27.264 3.28 29.744 4.64 31.008 5.68L29.84 6.88C28.672 5.84 26.24 4.4 24.288 3.504ZM23.92 6.496C22.48 7.728 19.824 8.944 17.264 9.616C17.104 9.232 16.752 8.64 16.48 8.288C19.104 7.712 21.712 6.56 23.088 5.296H24.608C26.448 6.752 29.088 7.712 31.536 8.128C31.2 8.512 30.848 9.104 30.64 9.52C28.4 9.008 25.52 7.808 23.92 6.496ZM20.496 8.736H28.576V12.56H20.496V11.552H26.768V9.728H20.496V8.736ZM19.536 8.752H21.344V14.32L19.536 14.448V8.752ZM28.928 11.536L30.256 12.368C29.28 13.056 28.16 13.776 27.28 14.224L26.288 13.52C27.152 13.024 28.272 12.16 28.928 11.536ZM24.384 11.984C25.504 13.344 28.032 13.968 31.184 14.112C30.864 14.432 30.48 15.056 30.288 15.472C26.896 15.184 24.4 14.272 23.008 12.368L24.384 11.984ZM20.496 10.192H27.312V11.056H20.496V10.192ZM21.824 7.344H26V8.352H21.824V7.344ZM17.664 13.808C19.44 13.68 22.112 13.472 24.672 13.248V14.624C22.256 14.848 19.68 15.088 17.84 15.248L17.664 13.808ZM42.656 7.552H41.632C41.328 9.824 40.56 11.616 37.904 12.72C37.68 12.224 37.184 11.504 36.752 11.136C38.896 10.368 39.472 9.12 39.696 7.552H37.088V5.904H41.44V4.048H39.44C39.12 4.64 38.784 5.168 38.416 5.6C38.048 5.296 37.28 4.816 36.848 4.592C37.712 3.712 38.4 2.32 38.768 0.927999L40.56 1.328C40.448 1.696 40.32 2.08 40.176 2.448H41.44V0.527999H43.328V2.448H46.656V4.048H43.328V5.904H47.296V7.552H44.528V10.352C44.528 10.8 44.576 10.848 44.832 10.848H45.504C45.76 10.848 45.824 10.64 45.872 9.184C46.224 9.504 47.008 9.808 47.536 9.92C47.344 12.048 46.864 12.592 45.712 12.592H44.496C42.976 12.592 42.656 12.032 42.656 10.352V7.552ZM36.704 3.408L35.136 4.624C34.688 3.856 33.632 2.752 32.736 1.968L34.176 0.895999C35.088 1.616 36.192 2.672 36.704 3.408ZM36.352 6.592V11.936C36.784 12.016 37.168 12.4 37.888 12.832C38.88 13.424 40.256 13.504 41.904 13.504C43.504 13.504 45.968 13.376 47.504 13.152C47.312 13.664 47.008 14.608 46.992 15.12C45.808 15.2 43.424 15.28 41.872 15.28C39.968 15.28 38.72 15.088 37.632 14.464C36.992 14.096 36.496 13.616 36.144 13.616C35.536 13.616 34.672 14.544 33.808 15.552L32.544 13.888C33.184 13.312 33.872 12.816 34.528 12.448V8.352H32.768V6.592H36.352ZM54 8.832L52.32 9.328V13.344C52.32 14.256 52.16 14.72 51.664 15.024C51.168 15.328 50.448 15.376 49.408 15.376C49.344 14.896 49.12 14.112 48.88 13.6C49.44 13.632 50.016 13.632 50.208 13.616C50.4 13.616 50.48 13.552 50.48 13.344V9.856C49.904 10.032 49.376 10.16 48.864 10.304L48.448 8.48C49.024 8.352 49.712 8.176 50.48 8V5.2H48.672V3.456H50.48V0.447999H52.32V3.456H54.016V5.2H52.32V7.504L53.744 7.12L54 8.832ZM59.488 10.256V11.376H63.36V13.056H59.488V15.392H57.584V13.056H53.808V11.376H57.584V10.256H54.608V8.592H57.584V7.344H59.488V8.592H62.336V10.256H59.488ZM60.096 2.768H57.2C57.6 3.28 58.064 3.776 58.592 4.208C59.152 3.76 59.664 3.28 60.096 2.768ZM61.6 1.024L62.736 1.632C62.096 3.008 61.168 4.192 60.032 5.168C61.104 5.776 62.368 6.256 63.744 6.56C63.36 6.928 62.832 7.664 62.592 8.128C61.072 7.728 59.728 7.072 58.544 6.256C57.312 7.04 55.936 7.664 54.528 8.096C54.336 7.664 53.888 6.944 53.536 6.608C54.832 6.272 56.08 5.76 57.2 5.136C56.496 4.432 55.888 3.648 55.376 2.768H54.416V1.088H61.296L61.6 1.024Z" fill="url(#paint0_linear_3_242)"/>
<defs>
<linearGradient id="paint0_linear_3_242" x1="32" y1="-1" x2="32" y2="18" gradientUnits="userSpaceOnUse">
<stop stop-color="#BF8B6A"/>
<stop offset="1" stop-color="#594131"/>
</linearGradient>
</defs>
</svg>
