<svg width="61" height="60" viewBox="0 0 61 60" fill="none" xmlns="http://www.w3.org/2000/svg">
<g clip-path="url(#clip0_2045_2224)">
<path fill-rule="evenodd" clip-rule="evenodd" d="M17 25.5C18.1935 25.5 19.3381 25.9741 20.182 26.818C21.0259 27.6619 21.5 28.8065 21.5 30C21.5 31.1935 21.0259 32.3381 20.182 33.182C19.3381 34.0259 18.1935 34.5 17 34.5C15.8065 34.5 14.6619 34.0259 13.818 33.182C12.9741 32.3381 12.5 31.1935 12.5 30C12.5 28.8065 12.9741 27.6619 13.818 26.818C14.6619 25.9741 15.8065 25.5 17 25.5ZM44 25.5C45.1935 25.5 46.3381 25.9741 47.182 26.818C48.0259 27.6619 48.5 28.8065 48.5 30C48.5 31.1935 48.0259 32.3381 47.182 33.182C46.3381 34.0259 45.1935 34.5 44 34.5C42.8065 34.5 41.6619 34.0259 40.818 33.182C39.9741 32.3381 39.5 31.1935 39.5 30C39.5 28.8065 39.9741 27.6619 40.818 26.818C41.6619 25.9741 42.8065 25.5 44 25.5ZM30.9068 25.5C32.1003 25.5 33.2449 25.9741 34.0888 26.818C34.9327 27.6619 35.4068 28.8065 35.4068 30C35.4068 31.1935 34.9327 32.3381 34.0888 33.182C33.2449 34.0259 32.1003 34.5 30.9068 34.5C29.7133 34.5 28.5687 34.0259 27.7248 33.182C26.8809 32.3381 26.4068 31.1935 26.4068 30C26.4068 28.8065 26.8809 27.6619 27.7248 26.818C28.5687 25.9741 29.7133 25.5 30.9068 25.5Z" fill="white" fill-opacity="0.6"/>
</g>
<defs>
<clipPath id="clip0_2045_2224">
<rect width="36" height="36" fill="white" transform="translate(12.5 12)"/>
</clipPath>
</defs>
</svg>
