<svg width="32" height="32" viewBox="0 0 32 32" fill="none" xmlns="http://www.w3.org/2000/svg">
<path d="M12.2137 11.2934C12.4461 11.2713 12.6784 11.2824 12.9108 11.227C13.2317 11.1607 13.5304 11.0168 13.7849 10.8177C14.2607 10.4525 14.7917 10.2202 15.3782 10.1317C16.0088 10.0321 16.6174 10.0985 17.2149 10.2866C17.5579 10.3861 17.8345 10.6296 18.1222 10.8398C18.5426 11.1496 18.9962 11.3045 19.5273 11.3377C19.9257 11.3598 20.324 11.3819 20.7112 11.4705C21.4747 11.6364 22.0279 12.0901 22.3598 12.8093C22.4594 13.0195 22.5922 13.2186 22.725 13.3957C22.9905 13.7387 23.3888 13.8493 23.7761 13.971C24.2851 14.1149 24.7387 14.3472 25.0817 14.7566C25.4136 15.1439 25.6349 15.5754 25.6903 16.0843C25.7677 16.8589 26.1107 17.5006 26.7082 17.9985C27.1286 18.3636 27.5048 18.7841 27.7814 19.2709C27.8368 19.3594 27.881 19.459 27.9142 19.5586C28.0138 19.8241 27.9142 20.0122 27.6487 20.1007C27.4052 20.1782 27.1618 20.2335 26.9184 20.2999C26.0554 20.5323 25.1924 20.7425 24.3404 20.997C23.7097 21.1851 23.0901 21.4064 22.4594 21.6166C22.3598 21.6498 22.2492 21.6719 22.1496 21.683C21.8951 21.7272 21.8177 21.683 21.7181 21.4395C21.1981 20.2225 20.324 19.293 19.3503 18.4632C18.786 17.9764 18.1443 17.6223 17.4251 17.4121C16.8165 17.235 16.1969 17.1465 15.5663 17.2129C14.7254 17.3014 13.9287 17.5227 13.1874 17.9653C12.4571 18.3968 11.8265 18.9168 11.3286 19.6139C10.9856 20.1007 10.6536 20.5986 10.3217 21.0965C10.2221 21.2404 10.1557 21.4064 10.0672 21.5502C9.98977 21.694 9.85699 21.7383 9.70209 21.7162C9.55825 21.694 9.40335 21.6719 9.25951 21.6387C8.41861 21.3953 7.56665 21.1408 6.72575 20.8863C5.94017 20.654 5.16566 20.3995 4.38008 20.1671C3.94857 20.0344 3.87111 19.8684 4.04815 19.4479C4.18092 19.1381 4.41327 18.8947 4.65669 18.6624C5.17672 18.1755 5.58611 17.6112 5.92911 16.9916C6.10614 16.6708 6.20572 16.3056 6.24998 15.9405C6.34956 15.1439 6.78107 14.5685 7.46707 14.1813C7.68836 14.0595 7.92071 13.9489 8.15306 13.8714C8.85013 13.6502 9.34803 13.2076 9.70209 12.5658C10.0893 11.8466 10.72 11.4594 11.4945 11.3156C11.7269 11.2713 11.9703 11.2824 12.2027 11.2713C12.2137 11.2824 12.2137 11.2934 12.2137 11.2934ZM15.9756 13.0084C15.8761 13.108 15.7765 13.2186 15.6769 13.3182C15.6548 13.3404 15.5884 13.3625 15.5773 13.3514C15.3339 13.2076 15.0905 13.0416 14.8249 12.8867C14.8803 12.8425 14.9245 12.8203 14.9577 12.7871C15.0905 12.6544 15.2454 12.5326 15.3671 12.3888C15.4999 12.2339 15.4335 12.079 15.2454 12.0458C14.9909 11.9905 14.7807 12.079 14.6258 12.2671C14.327 12.6101 14.2385 13.0416 14.1389 13.4621C14.1058 13.6059 14.0394 13.6834 13.9066 13.7387C13.8181 13.7719 13.7406 13.794 13.6521 13.8272C13.4861 13.8936 13.4087 14.0263 13.464 14.1923C13.5083 14.3362 13.5968 14.4689 13.6632 14.6017C13.7406 14.7566 13.8513 14.9115 13.9066 15.0775C14.0172 15.3873 13.8181 15.7192 13.5193 15.8077C13.1874 15.8962 12.9219 15.7303 12.8444 15.3652C12.8001 15.1217 12.7891 14.8562 12.7338 14.6128C12.6563 14.2587 12.5346 14.0817 12.1252 14.1702C11.915 14.2144 11.7601 14.3362 11.738 14.5132C11.7158 14.6681 11.7822 14.7677 12.0146 14.8783C12.1252 14.9336 12.1252 14.9558 12.0367 15.0553C11.7933 15.3098 11.5388 15.5532 11.2954 15.8188C11.2401 15.8741 11.1958 15.9516 11.1847 16.029C11.1405 16.2946 11.1405 16.5712 11.0851 16.8367C11.0298 17.1244 11.0298 17.1465 11.3064 17.224C11.6937 17.3346 12.092 17.3125 12.4793 17.235C12.6231 17.2019 12.778 17.1687 12.8887 17.0248C12.7338 16.9806 12.5789 16.9363 12.435 16.892C12.2248 16.8367 11.9924 16.8146 11.8043 16.6708C11.6162 16.5159 11.5609 16.3278 11.6052 16.1065C11.6384 15.8852 11.7933 15.7524 12.0146 15.6971C12.2469 15.6307 12.4682 15.6971 12.6674 15.8188C12.8776 15.9516 13.0768 16.1065 13.287 16.2503C13.3534 16.3056 13.4198 16.3056 13.4751 16.2392C13.5636 16.1507 13.641 16.0511 13.7406 15.9626C13.7738 15.9294 13.8513 15.9073 13.8734 15.9184C14.0615 16.029 14.2385 16.1507 14.4266 16.2503C14.6147 16.361 14.8139 16.4605 15.0241 16.5712C15.2896 16.1839 15.5331 15.8077 15.7765 15.4426C15.5884 15.2988 15.5441 15.2988 15.4667 15.4758C15.3339 15.7524 15.3339 15.7635 15.0241 15.7192C14.7917 15.686 14.5594 15.6086 14.2938 15.5311C14.4709 15.3209 14.6258 15.1549 14.7586 15C14.6147 14.8562 14.4709 14.7455 14.3602 14.6128C14.1058 14.2919 14.2717 13.6834 14.7586 13.617C14.9577 13.5948 15.1126 13.6391 15.2786 13.7387C15.3671 13.8051 15.4667 13.8493 15.5552 13.9157C15.7654 13.4842 16.042 13.5174 16.3408 13.8383C16.5178 13.7608 16.6727 13.6612 16.8497 13.617C17.2149 13.5174 17.6021 13.7608 17.6243 14.1038C17.6464 14.4025 17.5468 14.657 17.2702 14.8119C17.2038 14.8451 17.1485 14.8894 17.071 14.9336C17.237 15.1439 17.3808 15.332 17.5468 15.5422C17.3587 15.5975 17.1706 15.6639 16.9825 15.7192C16.5953 15.8409 16.5953 15.8299 16.3961 15.4869C16.3076 15.332 16.2633 15.3209 16.1084 15.4426C16.3961 15.8077 16.6948 16.1839 16.9936 16.5601C17.0378 16.5269 17.0821 16.5159 17.1153 16.4937C17.3366 16.3388 17.5579 16.1729 17.7792 16.018C17.9562 15.8962 18.0004 15.8962 18.1553 16.0511C18.2549 16.1507 18.3545 16.2503 18.4652 16.3388C18.609 16.4716 18.6311 16.4716 18.786 16.3388C18.9188 16.2171 19.0626 16.0843 19.1954 15.9626C19.3503 15.8299 19.5273 15.7524 19.7376 15.7524C20.0142 15.7635 20.2023 15.9405 20.2023 16.2282C20.2023 16.6265 20.0806 16.7703 19.6933 16.8367C19.6048 16.8478 19.5163 16.8367 19.4388 16.8589C19.3171 16.892 19.1733 16.9031 19.0737 16.9695C18.9299 17.058 18.952 17.1687 19.118 17.2019C19.3503 17.2572 19.6048 17.3014 19.8482 17.3125C20.2023 17.3346 20.5342 17.2682 20.8329 17.0912C20.8993 17.0469 20.9436 17.0027 20.8993 16.9252C20.7444 16.6597 20.7334 16.361 20.7444 16.0622C20.7444 16.029 20.7223 15.9848 20.7002 15.9626C20.5674 15.8299 20.4236 15.6971 20.2908 15.5643C20.1138 15.3873 19.9478 15.1992 19.7818 15.0111C19.7265 14.9447 19.7265 14.9115 19.815 14.8783C19.9035 14.8562 19.981 14.8119 20.0474 14.7566C20.2023 14.6349 20.2133 14.4357 20.0695 14.303C19.7929 14.0706 19.3171 14.0927 19.1622 14.4911C19.0737 14.7345 19.0626 14.9779 19.0626 15.2324C19.0626 15.4315 19.0073 15.6196 18.8082 15.6971C18.5758 15.7856 18.3324 15.7967 18.1222 15.6196C17.923 15.4537 17.9119 15.1992 18.0668 14.9558C18.1885 14.7677 18.3324 14.5906 18.4652 14.4136C18.6643 14.1481 18.5205 13.8383 18.2549 13.7387C18.1664 13.7055 18.089 13.6834 18.0004 13.6612C17.923 13.6391 17.8455 13.6059 17.8455 13.4953C17.8345 13.3846 17.8013 13.285 17.7792 13.1744C17.6906 12.7761 17.5025 12.4441 17.1706 12.2007C16.9936 12.0679 16.8055 11.9905 16.5842 12.1011C16.5067 12.1454 16.4625 12.2007 16.4957 12.3003C16.5289 12.422 16.5842 12.4995 16.6838 12.5769C16.8165 12.6765 16.9493 12.7982 17.0821 12.9199C16.9272 13.108 16.728 13.2076 16.5399 13.3293C16.4846 13.3625 16.4404 13.3625 16.3961 13.3293C16.2191 13.2076 16.0974 13.108 15.9756 13.0084ZM9.62464 18.1645C9.71316 18.1423 9.81274 18.1313 9.87912 18.087C9.93444 18.0538 10.0008 17.9653 10.0008 17.91C10.0008 17.8547 9.92338 17.7661 9.86806 17.744C9.67996 17.6666 9.51399 17.7219 9.35909 17.8436C9.25951 17.921 9.27058 18.0317 9.38122 18.087C9.45867 18.1313 9.54719 18.1423 9.62464 18.1645ZM22.2824 17.7329V17.744C22.2603 17.744 22.2271 17.7329 22.2049 17.744C22.1386 17.7883 22.05 17.8215 22.0058 17.8768C21.9505 17.9542 21.9947 18.0428 22.0722 18.1091C22.1828 18.2198 22.3045 18.2419 22.4484 18.1866C22.5369 18.1534 22.6365 18.1202 22.6365 18.0096C22.6365 17.8879 22.5701 17.8215 22.4705 17.7772C22.4041 17.744 22.3377 17.744 22.2824 17.7329ZM21.6075 14.9447C21.6075 15.1107 21.696 15.1881 21.8841 15.1881C22.0611 15.1881 22.1496 15.1107 22.1496 14.9779C22.1496 14.8341 21.9947 14.7013 21.8398 14.7013C21.6849 14.7013 21.6075 14.7898 21.6075 14.9447ZM9.86806 15.343C10.023 15.343 10.1668 15.2324 10.1668 15.0996C10.1668 14.9447 10.1004 14.8672 9.96764 14.8672C9.83486 14.8672 9.69103 15.0222 9.69103 15.1771C9.67996 15.2656 9.75741 15.343 9.86806 15.343ZM24.7276 17.6887C24.7608 17.6887 24.8051 17.6998 24.8272 17.6887C24.8825 17.6444 24.9489 17.5891 24.9711 17.5338C24.9821 17.5006 24.9268 17.4121 24.8825 17.3899C24.794 17.3236 24.617 17.3568 24.5506 17.4342C24.5174 17.4785 24.4842 17.5449 24.5064 17.5891C24.5174 17.6334 24.5838 17.6666 24.6281 17.6998C24.6613 17.6998 24.6944 17.6887 24.7276 17.6887ZM7.33429 17.6666C7.42281 17.6776 7.50026 17.6444 7.51133 17.5338C7.52239 17.4453 7.41175 17.3568 7.29004 17.3568C7.16833 17.3568 7.07981 17.4121 7.07981 17.5006C7.07981 17.5891 7.19046 17.6666 7.33429 17.6666Z" fill="#1C1C1C"/>
<path d="M14.0394 21.0412C14.1279 20.9637 14.2053 20.8973 14.2939 20.8088C14.1168 20.5986 13.9509 20.3884 13.7849 20.1892C13.5193 19.8683 13.2649 19.5475 12.9993 19.2155C12.8997 19.0938 12.8997 18.95 12.9329 18.8062C12.9551 18.6513 13.121 18.5517 13.3423 18.5517C13.5415 18.5627 13.7185 18.6291 13.8181 18.8172C14.139 19.3594 14.4709 19.9015 14.7918 20.4437C14.9135 20.3994 15.0241 20.3552 15.1458 20.2999C15.0241 20.0896 14.8913 19.8794 14.7696 19.6692C14.5926 19.3704 14.4045 19.0717 14.2385 18.773C14.1832 18.6623 14.139 18.5406 14.1168 18.4189C14.0615 18.0648 14.4266 17.8989 14.7143 18.0427C14.9135 18.1423 15.013 18.3083 15.0794 18.5074C15.2454 18.9721 15.4003 19.4479 15.5663 19.9126C15.5773 19.9458 15.5884 19.9679 15.6327 19.9901C15.6216 19.813 15.6216 19.636 15.6105 19.459C15.5884 19.1602 15.5441 18.8725 15.5109 18.5738C15.4888 18.4189 15.4667 18.2529 15.4556 18.098C15.4446 17.921 15.4999 17.7882 15.6659 17.7108C15.865 17.6223 16.0531 17.6555 16.2191 17.7772C16.3518 17.8767 16.374 18.0206 16.3408 18.1755C16.3076 18.4078 16.2855 18.6513 16.2523 18.8947C16.2191 19.1934 16.1969 19.4922 16.1748 19.7798C16.1748 19.8241 16.1748 19.8794 16.1969 19.9347C16.2965 19.6692 16.3961 19.3926 16.5068 19.127C16.6174 18.8394 16.717 18.5517 16.8498 18.2751C17.0047 17.9542 17.3145 17.8878 17.58 18.098C17.7238 18.2087 17.7681 18.3746 17.6796 18.5295C17.5026 18.8394 17.3034 19.1381 17.1153 19.4479C17.0047 19.636 16.894 19.8352 16.7944 20.0343C16.7612 20.1007 16.7391 20.1671 16.717 20.2335C16.7723 20.2556 16.8166 20.2777 16.8498 20.2999C17.0932 20.4105 17.0932 20.4105 17.2259 20.1782C17.4362 19.802 17.6575 19.4147 17.8787 19.0274C17.923 18.9389 17.9894 18.8615 18.0447 18.7951C18.2328 18.5738 18.5205 18.5627 18.7196 18.7619C18.8303 18.8725 18.8414 19.0164 18.786 19.1492C18.7418 19.2598 18.6643 19.3483 18.5979 19.4479C18.2771 19.8573 17.9562 20.2667 17.6243 20.6761C17.58 20.7314 17.5911 20.7756 17.6464 20.8199C17.7128 20.8752 17.7792 20.9416 17.8898 21.0522C17.9673 20.9637 18.0336 20.8752 18.1111 20.7867C18.4652 20.3994 18.8303 20.0233 19.1844 19.6471C19.2175 19.6028 19.2729 19.5696 19.3061 19.5364C19.5052 19.3815 19.7044 19.4036 19.8814 19.5696C20.0584 19.7466 20.0916 20.0011 19.9478 20.1782C19.8814 20.2667 19.7818 20.322 19.6933 20.3884C19.3171 20.6539 18.9409 20.9195 18.5758 21.174C18.5426 21.1961 18.5094 21.2182 18.4762 21.2514C18.2881 21.4063 18.2881 21.4395 18.443 21.6719C18.7307 21.517 19.0295 21.3731 19.3171 21.2182C19.6048 21.0633 19.8925 20.8973 20.1912 20.7535C20.3461 20.6761 20.5342 20.6539 20.6891 20.7646C20.8772 20.8863 20.9768 21.0744 20.9547 21.2957C20.9325 21.528 20.7998 21.705 20.5785 21.7825C20.158 21.9374 19.7486 22.0812 19.3171 22.214C18.8414 22.3689 18.3545 22.5128 17.8677 22.6566C17.7238 22.7009 17.7128 22.6898 17.6685 22.5459C17.5247 21.9817 17.2813 21.4838 16.7612 21.174C16.0642 20.7535 14.8913 20.9305 14.4266 21.8821C14.316 22.1034 14.2164 22.3247 14.1943 22.5681C14.1943 22.6123 14.1611 22.6566 14.139 22.7119C13.8513 22.6345 13.5857 22.5681 13.3091 22.4906C12.7338 22.3357 12.1584 22.1808 11.572 22.0149C11.3839 21.9595 11.2179 21.8821 11.0409 21.8046C10.6979 21.6497 10.6868 21.2846 10.8528 21.008C10.8971 20.9416 10.9524 20.8863 11.0077 20.8199C11.1626 20.6539 11.3507 20.5875 11.5609 20.6871C11.8929 20.831 12.2137 21.008 12.5346 21.174C12.8223 21.3289 13.11 21.4948 13.3976 21.6608C13.464 21.705 13.5304 21.7161 13.5747 21.6276C13.6521 21.4838 13.6521 21.4284 13.5525 21.3731C13.287 21.2182 13.0214 21.0633 12.7559 20.8973C12.5125 20.7424 12.2691 20.5654 12.0256 20.3884C11.8929 20.2888 11.8044 20.145 11.7822 19.9679C11.7601 19.813 11.7822 19.6803 11.915 19.5807C12.0588 19.459 12.2248 19.4258 12.3797 19.5364C12.5789 19.6803 12.778 19.8352 12.9661 20.0011C13.2759 20.2888 13.5636 20.5986 13.8623 20.8973C13.9509 20.9637 13.9951 21.008 14.0394 21.0412Z" fill="#1C1C1C"/>
<path d="M14.161 23.2984C14.3934 23.2209 14.6258 23.1435 14.8581 23.0771C15.0462 23.0218 15.0241 23.0218 15.0241 22.8337C15.0241 22.6456 15.0351 22.4464 15.0683 22.2583C15.1015 22.0813 15.2232 21.9596 15.3892 21.8932C15.7101 21.7715 16.0309 21.7494 16.3629 21.8711C16.562 21.9485 16.7059 22.0813 16.7391 22.2915C16.7723 22.4685 16.7944 22.6456 16.7944 22.8226C16.7944 22.9222 16.8165 22.9775 16.9272 23.0107C17.1595 23.0771 17.3808 23.1545 17.6021 23.232C17.7681 23.2873 17.8013 23.3648 17.7127 23.5086C17.5578 23.7631 17.3476 23.9512 17.071 24.0729C16.5067 24.3163 15.9203 24.3384 15.3228 24.2499C14.7917 24.1725 14.3934 23.9069 14.161 23.409C14.15 23.3869 14.1389 23.3758 14.1389 23.3537C14.15 23.3426 14.15 23.3316 14.161 23.2984Z" fill="#1C1C1C"/>
<path d="M26.321 14.7345C26.2325 14.7234 26.1329 14.7124 26.0554 14.6903C25.8673 14.646 25.801 14.4911 25.7788 14.3251C25.7456 13.9932 25.9005 13.6059 26.2214 13.4178C26.3874 13.3183 26.5755 13.3183 26.7304 13.4289C26.8742 13.5285 27.007 13.6613 27.1066 13.8051C27.2615 14.0374 27.184 14.3362 26.9295 14.5354C26.7525 14.6571 26.5533 14.7234 26.321 14.7345Z" fill="#1C1C1C"/>
<path d="M5.85151 14.6791C5.56383 14.6902 5.34254 14.5906 5.16551 14.4136C4.93316 14.1923 4.91103 13.9378 5.09912 13.6833C5.2319 13.5063 5.36467 13.3293 5.60809 13.3072C5.89576 13.274 6.08386 13.4289 6.2277 13.6502C6.36047 13.8604 6.39367 14.1038 6.33834 14.3583C6.29409 14.5796 6.16131 14.6791 5.92896 14.6902C5.90683 14.6791 5.86257 14.6791 5.85151 14.6791Z" fill="#1C1C1C"/>
<path d="M2.76465 19.459C2.53229 19.4701 2.3442 19.3815 2.16716 19.2488C2.05652 19.1602 1.99013 19.0496 2.0012 18.9058C2.0012 18.607 2.13397 18.3636 2.36633 18.1866C2.56549 18.0317 2.79784 18.0981 2.997 18.2198C3.30681 18.4079 3.42851 18.7066 3.42851 19.0607C3.42851 19.2266 3.25148 19.3815 3.03019 19.4258C2.94168 19.4479 2.85316 19.4479 2.76465 19.459Z" fill="#1C1C1C"/>
<path d="M29.9942 18.8284C30.0385 19.0939 29.7508 19.3594 29.4963 19.4148C29.3193 19.459 29.1201 19.448 28.932 19.4258C28.6886 19.3926 28.5669 19.2488 28.578 19.0054C28.589 18.7066 28.6886 18.43 28.932 18.2419C29.2197 18.0096 29.5516 18.0538 29.7729 18.3526C29.8946 18.4964 30.0274 18.6292 29.9942 18.8284Z" fill="#1C1C1C"/>
<path d="M21.7291 11.0832C21.5742 11.0942 21.4635 11.0279 21.3861 10.8951C21.2091 10.5521 21.2644 10.0652 21.541 9.81076C21.6627 9.70012 21.7955 9.63373 21.9725 9.67799C22.1827 9.73331 22.3598 9.83289 22.5036 9.97673C22.7138 10.2091 22.6696 10.5078 22.4261 10.7734C22.2491 10.9725 21.9946 11.061 21.7291 11.0832Z" fill="#1C1C1C"/>
<path d="M15.2673 8.57156C15.2452 8.22856 15.4554 8.04046 15.7984 8.00727C15.9312 7.9962 16.064 7.9962 16.1968 8.01833C16.5287 8.09578 16.6283 8.42772 16.5729 8.73752C16.5287 8.99201 16.3738 9.21329 16.1525 9.3682C16.0087 9.46778 15.8648 9.46778 15.732 9.3682C15.4333 9.19117 15.2784 8.92562 15.2673 8.57156Z" fill="#1C1C1C"/>
<path d="M10.7975 10.4083C10.7864 10.4968 10.7754 10.5853 10.7643 10.6738C10.6869 11.0058 10.543 11.1164 10.2111 11.05C9.90128 10.9947 9.65787 10.8287 9.51403 10.5411C9.40338 10.3087 9.43658 10.1206 9.61361 9.94358C9.75745 9.79974 9.92341 9.6891 10.1226 9.6559C10.5209 9.60058 10.7643 9.98784 10.7754 10.2644C10.7864 10.3087 10.7864 10.353 10.7975 10.4083C10.7864 10.4083 10.7864 10.4083 10.7975 10.4083Z" fill="#1C1C1C"/>
</svg>
