<svg width="32" height="32" viewBox="0 0 32 32" fill="none" xmlns="http://www.w3.org/2000/svg">
<path d="M25.5816 7.33622C25.6329 7.2287 25.6733 7.11603 25.7021 7C25.6372 7.01414 25.5733 7.03286 25.5109 7.05604C24.6717 7.51023 23.8555 8.01752 22.9895 8.40781C21.8578 8.93864 20.5678 8.98706 19.4014 8.5425C18.5317 8.22102 17.6361 7.96541 16.7405 7.72258C16.2412 7.58003 15.7285 7.49302 15.2112 7.46304C14.7149 7.4565 14.2192 7.50163 13.7316 7.59773C13.2298 7.67404 12.7354 7.79509 12.254 7.95951C11.4893 8.2338 10.7581 8.58772 10.0021 8.87774C9.21835 9.17857 7.73495 9.09697 7.10699 8.18956C7.07736 8.1463 7.00472 8.13549 6.95215 8.10895L6.85657 8.17088C6.99516 8.48056 7.09838 8.81383 7.27808 9.095C7.78178 9.88149 8.62767 10.2108 9.38084 10.6611C9.38084 10.6611 10.2716 12.1053 11.0391 12.5211C11.6738 12.9861 12.4165 13.0559 13.3971 13.0333C13.7283 13.024 14.0556 12.9576 14.3653 12.8367C14.87 12.6401 14.9006 12.1063 14.4609 11.774C14.1245 11.5184 13.7919 11.4741 13.4153 11.6904C13.2815 11.7531 13.1419 11.8015 12.9985 11.8349L12.9536 11.7209C13.0549 11.6422 13.1553 11.5616 13.2566 11.4849C13.3579 11.4083 13.4602 11.3355 13.5615 11.2618L13.5414 11.1713C13.4659 11.1595 13.3809 11.1182 13.3168 11.1399C12.9991 11.2279 12.6892 11.3437 12.3906 11.4859C11.8583 11.7681 11.7627 12.0129 11.8717 12.5929L11.7904 12.6637C11.5553 12.4081 11.3068 12.1643 11.0869 11.8949C10.9302 11.6983 10.4953 11.1084 10.609 10.8813C10.7419 10.607 11.0076 10.4704 11.1405 9.78613C11.1537 9.71966 11.1706 9.65401 11.1911 9.58951C11.3723 9.42692 11.5836 9.30384 11.8124 9.22772C12.1441 9.09894 12.4384 8.86594 12.7472 8.6762L12.8561 8.60935C12.9032 8.57937 12.9559 8.55986 13.0107 8.55208C13.0655 8.54429 13.1214 8.5484 13.1746 8.56415C13.2278 8.57989 13.2772 8.60691 13.3196 8.64348C13.3621 8.68005 13.3966 8.72536 13.421 8.77648L13.4984 8.93869C13.5354 8.94498 13.5732 8.94498 13.6102 8.93869C14.3989 8.74566 15.2156 8.70433 16.0189 8.81678C17.2136 9.00456 18.2315 9.5433 18.9417 10.5795C19.5525 11.4643 19.4531 12.3806 18.6225 13.0599C18.1767 13.4371 17.6611 13.7172 17.1069 13.8834C16.5527 14.0495 15.9715 14.0981 15.3986 14.0263C14.9952 13.9801 14.6024 13.8365 14.2 13.7638C13.1104 13.5672 12.058 13.6429 11.1013 14.2868C10.696 14.5591 10.5049 15.149 10.6196 15.6071C10.6423 15.7681 10.6215 15.9324 10.5593 16.082C10.502 16.2501 10.3844 16.3956 10.3137 16.5607C10.1875 16.8557 10.3137 17.0523 10.6186 17.2155C10.4762 16.7957 10.7142 16.5725 10.9541 16.369C11.3062 16.0614 11.729 15.8516 12.1823 15.7595H12.2024C12.2406 15.7526 12.2798 15.7487 12.319 15.7428C12.6124 15.7084 13.1247 15.7123 13.3981 16.0879C13.7622 16.5873 13.5185 17.1506 13.4717 17.2469C13.3859 17.3899 13.29 17.5263 13.1849 17.6549C12.5818 18.3706 12.016 19.1089 11.6059 19.9613C11.432 20.3241 11.2829 20.6996 11.1223 21.0693L11.2035 21.1204C11.8971 20.28 12.7519 19.5959 13.7144 19.1109C12.4404 20.4008 12.2473 22.0819 12.0255 23.7522C12.1191 23.5746 12.1943 23.3874 12.2501 23.1938C12.8169 21.1705 14.1025 19.8512 16.0026 19.1345C16.1469 19.0804 16.341 19.1679 16.5111 19.1896C16.4532 19.3359 16.3795 19.4751 16.2913 19.6044C15.9367 20.0242 15.5362 20.4057 15.2122 20.8471C14.9531 21.199 14.7801 21.6178 14.5689 22.0072L14.6473 22.072C14.8815 21.8538 15.1023 21.6178 15.3508 21.4202C16.3486 20.6259 17.3579 19.8473 18.3558 19.0539C18.8497 18.6474 19.2428 18.1261 19.5028 17.533C19.7685 16.9589 19.3116 16.5057 18.8499 16.5332C18.3776 16.5574 17.9091 16.6335 17.4526 16.7603C17.01 16.8881 16.5981 17.1231 16.168 17.2971C16.0626 17.3212 15.9544 17.3288 15.8468 17.3197C15.8873 17.2239 15.9393 17.1338 16.0017 17.0513C17.2123 15.806 18.4275 14.564 19.6471 13.3253C20.3678 12.588 21.0808 11.8507 21.8053 11.1094C22.0595 10.8489 22.092 10.8548 22.2383 11.2077C22.3309 11.4135 22.4014 11.6291 22.4485 11.8507C22.6062 12.7738 22.5021 13.7186 21.6418 14.3084C21.6071 14.3422 21.5778 14.3813 21.5549 14.4244C22.0567 14.5119 22.5604 14.5316 23.0163 14.6938C23.6232 14.9101 23.9721 15.4213 23.8536 15.786C23.4712 15.558 23.0889 15.325 22.611 15.4616C22.6234 15.5324 22.6196 15.5599 22.633 15.5757C22.6789 15.6228 22.7286 15.6632 22.7792 15.7103C23.3521 16.2742 23.7089 17.0309 23.7847 17.8427C23.8803 18.7649 23.8459 19.6909 23.498 20.5659C23.3957 20.8264 23.2896 21.087 23.1759 21.3436C23.131 21.4242 22.8414 21.9678 22.4418 22.2411C22.1761 22.3788 22.1761 22.6521 21.9104 22.6521C21.5102 22.4891 21.1444 22.2481 20.8332 21.9423L20.4805 21.5589C20.2754 21.3049 20.1005 21.0267 19.9596 20.7301C19.8698 20.8795 19.7819 22.1064 21.378 23.1997C21.9075 23.6077 22.4753 24.576 22.7238 24.8474C22.7401 24.8798 22.7573 24.9122 22.7735 24.9457C23.1616 25.7666 23.843 26.1893 24.6507 26.4479C24.6889 26.4606 24.7415 26.4262 24.8247 26.4036C24.7128 26.2974 24.6335 26.2208 24.5532 26.147C23.8689 25.5198 23.5668 24.7313 23.7752 23.8171C23.931 23.1377 24.1957 22.482 24.4356 21.8243C24.9279 20.4725 25.3456 19.1099 25.1831 17.6372C25.1582 17.4101 25.1162 17.185 25.1057 16.9579C25.055 15.8185 24.7444 14.7439 24.2951 13.7136C23.9017 12.8414 23.7989 11.8601 24.0027 10.9216C24.2808 9.619 24.8619 8.44124 25.5816 7.33622Z" fill="#1C1C1C"/>
<path d="M12.0524 21.8754C10.4753 24.0855 10.1408 27.197 11.52 29C11.563 28.5704 11.5831 28.1673 11.6462 27.7711C11.7752 26.9601 11.8478 26.1647 11.7236 25.3301C11.628 24.6822 11.7236 23.996 11.7905 23.3314C11.8364 22.8418 11.9625 22.3611 12.0524 21.8754Z" fill="#1C1C1C"/>
</svg>
