<svg width="32" height="32" viewBox="0 0 32 32" fill="none" xmlns="http://www.w3.org/2000/svg">
<path d="M19.7939 24.9661C19.7026 25.0209 19.6113 25.0757 19.5201 25.1304C19.4288 25.1852 19.3649 25.1304 19.3101 25.0665C18.9451 24.7106 18.6439 24.2999 18.4066 23.8527C18.1876 23.4329 17.9868 23.0039 17.8134 22.5659C17.6765 22.2099 17.5487 21.8449 17.4848 21.4616C17.4118 21.0052 17.3206 20.558 17.2476 20.1017C17.1289 19.3077 17.1015 18.5137 17.1198 17.7106C17.1289 17.2725 17.1563 16.8435 17.2019 16.4146C17.2658 15.8579 17.3479 15.3011 17.5122 14.7536C17.5761 14.5528 17.6765 14.3702 17.7313 14.1603C17.9047 13.4941 18.2606 12.9191 18.6895 12.3898C18.9451 12.0795 19.2189 11.7783 19.5292 11.5319C20.2228 10.9843 20.9712 10.5188 21.7652 10.1173C22.6778 9.66095 23.6361 9.29589 24.5853 8.93082C24.85 8.83043 25.1146 8.73917 25.3702 8.63878C25.4614 8.60227 25.5527 8.54751 25.644 8.50188C25.717 8.4745 25.79 8.44712 25.863 8.41974C25.8721 8.42887 25.8904 8.43799 25.8995 8.44712C25.8721 8.59314 25.8539 8.73917 25.8174 8.88519C25.7078 9.25938 25.6075 9.63357 25.4797 10.0078C25.361 10.3546 25.1237 10.6192 24.8317 10.8291C24.7404 10.893 24.6309 10.9478 24.5397 11.0117C24.494 11.0482 24.4393 11.0938 24.421 11.1486C24.2932 11.6232 23.9464 11.8422 23.4992 11.9152C23.3441 11.9426 23.1889 11.9608 23.0246 11.9791C22.8878 11.9973 22.8147 12.0795 22.7782 12.2164C22.687 12.5814 22.4771 12.8552 22.1759 13.0743C21.9112 13.2568 21.6283 13.3207 21.318 13.3207C21.0442 13.3207 20.7613 13.3298 20.4875 13.3207C20.3414 13.3116 20.2045 13.3024 20.0677 13.3481C19.9125 13.4028 19.803 13.5854 19.8486 13.7496C19.876 13.8592 19.9216 13.9687 19.9673 14.0691C20.1407 14.3976 20.0403 14.6532 19.7117 14.8722C19.657 14.9087 19.6022 14.9361 19.5474 14.9635C19.2189 15.1004 18.9998 15.3559 18.8447 15.6662C18.5709 16.2229 18.3792 16.807 18.2241 17.4094C18.1237 17.8109 18.0416 18.2216 17.9959 18.6415C17.9412 19.1069 17.9503 19.5815 18.0051 20.0561C18.0598 20.558 18.1602 21.0417 18.288 21.5254C18.2971 21.5711 18.3154 21.6076 18.3336 21.6532C18.3884 21.7627 18.4888 21.781 18.58 21.6897C18.8356 21.4433 19.0455 21.1695 19.2371 20.8683C19.3649 20.6675 19.4836 20.4394 19.6478 20.2751C20.1315 19.7914 20.7156 19.472 21.4001 19.3625C21.7378 19.3077 22.0664 19.2803 22.404 19.3077C22.906 19.3442 23.3806 19.4902 23.7913 19.7914C24.1016 20.0196 24.3115 20.339 24.4575 20.7041C24.5488 20.9322 24.5762 21.1695 24.5579 21.4159C24.5488 21.4707 24.5123 21.5711 24.4666 21.5802C24.3662 21.6076 24.3024 21.5437 24.2659 21.4433C24.1928 21.2243 24.0559 21.0509 23.846 20.9413C23.6179 20.8227 23.3897 20.8136 23.1798 20.987C22.8969 21.206 22.6231 21.4342 22.331 21.6441C22.1485 21.7719 21.9386 21.8723 21.7287 21.9726C21.4001 22.1369 21.0807 22.3012 20.7339 22.429C20.3597 22.5659 19.9764 22.6936 19.5657 22.6936C19.374 22.6936 19.1824 22.721 18.9907 22.7301C18.9816 22.7301 18.9725 22.7301 18.9542 22.7301C18.7717 22.721 18.7169 22.794 18.7626 22.9766C18.8903 23.5059 19.1459 23.9805 19.4288 24.4368C19.5566 24.6193 19.6661 24.7745 19.7939 24.9661Z" fill="#1C1C1C"/>
<path d="M8.11206 4.87868C8.13031 4.86043 8.13944 4.82393 8.16682 4.8148C8.1942 4.80567 8.23071 4.8148 8.24896 4.83305C8.45887 4.99733 8.65965 5.16161 8.86956 5.32588C9.29851 5.66357 9.71833 5.99212 10.1473 6.32068C10.6127 6.68574 11.0782 7.0508 11.5436 7.40673C12.2007 7.90869 12.8852 8.38327 13.6062 8.79397C13.9804 9.00388 14.3637 9.20466 14.7379 9.41457C14.7836 9.44195 14.8292 9.47846 14.8566 9.52409C15.6049 10.6923 16.3259 11.8787 16.9922 13.0926C17.0013 13.1017 17.0013 13.1108 17.0013 13.1199C17.0104 13.1473 17.0104 13.1747 17.0104 13.2021C16.9831 13.193 16.9465 13.193 16.9283 13.1747C16.7823 13.0743 16.6362 12.9648 16.4902 12.8644C15.897 12.4902 15.2946 12.116 14.7014 11.7418C14.4185 11.5593 14.1356 11.3677 13.8618 11.1669C13.5789 10.957 13.2777 10.8748 12.9309 10.9296C12.721 10.9661 12.5019 10.957 12.2829 10.9752C12.1277 10.9843 11.9635 10.9935 11.8083 10.9935C11.6897 11.0026 11.5984 10.957 11.5163 10.8657C10.7222 9.93478 10.0104 8.91261 9.3989 7.82656C8.88782 6.90478 8.45887 5.95562 8.13944 4.96082C8.13031 4.93344 8.13031 4.91519 8.11206 4.87868Z" fill="#1C1C1C"/>
<path d="M8.98816 22.9766C9.12506 22.7484 9.25283 22.5202 9.38973 22.2921C9.46274 22.1734 9.53575 22.0548 9.60876 21.927C9.91907 21.4159 10.2385 20.8957 10.5488 20.3846C10.923 19.764 11.2972 19.1343 11.6714 18.5137C11.9543 18.0482 12.2463 17.5828 12.5384 17.1173C12.7848 16.7158 13.0403 16.3233 13.2959 15.9309C13.3324 15.8761 13.3871 15.8305 13.4419 15.8122C14.2815 15.4746 15.1212 15.146 15.9608 14.8174C16.262 14.6988 16.5632 14.5893 16.8644 14.4798C16.8826 14.4706 16.9374 14.4798 16.9374 14.4798C16.9465 14.5071 16.9465 14.5528 16.9374 14.5802C16.8552 14.7627 16.7731 14.9452 16.7001 15.1277C16.4902 15.6297 16.2803 16.1408 16.0703 16.6519C15.9243 16.9987 15.76 17.3364 15.6231 17.6832C15.5045 17.9844 15.2581 18.1395 15.0208 18.322C14.6101 18.6415 14.2085 18.97 13.7978 19.2986C13.5332 19.5085 13.2685 19.7093 13.0038 19.9192C12.4471 20.3664 11.8904 20.8136 11.3337 21.2517C10.8956 21.5985 10.4575 21.9453 10.0286 22.2921C9.86431 22.4198 9.70916 22.5659 9.554 22.6936C9.43536 22.794 9.30759 22.8762 9.17982 22.9674C9.14331 22.9948 9.08855 22.9948 9.04292 23.0131C9.00641 22.9948 8.99729 22.9857 8.98816 22.9766Z" fill="#1C1C1C"/>
<path d="M13.4237 3.5188C13.4602 3.5553 13.4876 3.56443 13.4967 3.58268C13.9348 4.1029 14.3729 4.62311 14.7927 5.15245C15.1395 5.59965 15.468 6.05598 15.7966 6.5123C16.3898 7.34282 16.983 8.17333 17.5763 9.01297C17.704 9.1955 17.8318 9.39629 17.9596 9.57882C18.0143 9.65183 18.0143 9.71572 17.9961 9.78873C17.8683 10.4093 17.7497 11.0391 17.6128 11.6597C17.5489 11.97 17.4667 12.2894 17.3846 12.5997C17.3755 12.6453 17.3298 12.6818 17.3025 12.7183C17.266 12.691 17.2112 12.6727 17.1838 12.6271C16.8005 12.0521 16.4263 11.4771 16.043 10.9022C15.7327 10.4276 15.4224 9.96213 15.1212 9.48755C15.0391 9.36891 14.9752 9.23201 14.8839 9.11336C14.8292 9.04035 14.7653 8.97647 14.6832 8.93083C14.4641 8.79394 14.236 8.66616 14.0169 8.52014C13.9165 8.45625 13.8253 8.37411 13.7522 8.29198C13.7066 8.23722 13.6884 8.14595 13.6792 8.06381C13.6427 7.63487 13.6062 7.21504 13.5697 6.7861C13.5423 6.44842 13.5332 6.11986 13.5058 5.78218C13.4876 5.481 13.4511 5.17983 13.4237 4.87865C13.4054 4.63224 13.3781 4.38582 13.3598 4.13028C13.3507 3.97513 13.3416 3.81997 13.3416 3.66482C13.3598 3.63744 13.3963 3.58268 13.4237 3.5188Z" fill="#1C1C1C"/>
<path d="M16.7732 13.4758C16.7093 13.485 16.6454 13.4941 16.5906 13.4941C16.4446 13.485 16.3077 13.4667 16.1617 13.4576C15.7875 13.4302 15.4133 13.4211 15.0391 13.3846C14.8018 13.3663 14.5737 13.3298 14.3364 13.3116C14.0443 13.2933 13.7431 13.2659 13.4511 13.2659C13.3233 13.2659 13.1956 13.3389 13.0769 13.3937C12.8396 13.4941 12.6023 13.6036 12.365 13.704C12.1825 13.7861 12 13.7496 11.8174 13.704C10.4758 13.3755 9.16162 12.983 7.88391 12.4445C7.5371 12.2985 7.20855 12.1342 6.87086 11.9791C6.84348 11.97 6.8161 11.9335 6.79785 11.9061C6.83436 11.8878 6.86174 11.8513 6.89824 11.8422C6.99864 11.8239 7.10815 11.8239 7.21767 11.8148C7.55535 11.7783 7.89304 11.7509 8.23072 11.7144C8.47713 11.687 8.72355 11.6688 8.96997 11.6414C9.27114 11.614 9.57232 11.5867 9.87349 11.5593C10.0652 11.541 10.2568 11.5319 10.4393 11.5136C10.7131 11.4863 10.9869 11.4589 11.2607 11.4315C11.498 11.4132 11.7353 11.3859 11.9726 11.3585C12.1825 11.3402 12.3924 11.3037 12.6023 11.2855C12.8122 11.2672 13.0313 11.2307 13.2412 11.2398C13.3598 11.2398 13.4876 11.3037 13.588 11.3585C14.5098 11.9152 15.4316 12.4719 16.3442 13.0378C16.5085 13.1382 16.6454 13.2751 16.7914 13.3937C16.7823 13.4393 16.7823 13.4576 16.7732 13.4758Z" fill="#1C1C1C"/>
<path d="M16.7458 14.0052C16.7184 14.0234 16.691 14.0508 16.6545 14.0691C15.4954 14.5345 14.3272 15.0091 13.1681 15.4746C13.0678 15.5111 12.9947 15.575 12.94 15.6662C12.7209 15.9857 12.5019 16.3142 12.2829 16.6336C12.1277 16.8527 11.9087 16.8983 11.6623 16.9074C11.3428 16.9074 11.0234 16.9074 10.704 16.9074C9.31675 16.9074 7.92952 16.9074 6.54229 16.9074C6.51491 16.9074 6.4784 16.9074 6.44189 16.9074C6.46015 16.88 6.46015 16.8527 6.4784 16.8527C6.77045 16.7249 7.07163 16.6154 7.35455 16.4876C7.80175 16.296 8.24895 16.0952 8.68702 15.8853C9.23461 15.6297 9.78221 15.3559 10.3298 15.0913C11.3337 14.6075 12.3285 14.133 13.3324 13.6584C13.4237 13.6128 13.5423 13.631 13.6519 13.6401C13.9257 13.6584 14.1994 13.6949 14.4732 13.7223C14.6649 13.7405 14.8474 13.7679 15.0391 13.7953C15.1486 13.8044 15.2673 13.8227 15.3768 13.8318C15.6506 13.8592 15.9152 13.8774 16.189 13.9048C16.3807 13.9231 16.5632 13.9504 16.7549 13.9778C16.7366 13.9778 16.7366 13.9869 16.7458 14.0052Z" fill="#1C1C1C"/>
<path d="M20.5059 26.4082C20.3234 26.5359 20.15 26.4721 19.9857 26.399C19.6206 26.2439 19.3012 26.0157 18.9818 25.7876C18.4433 25.3951 17.9596 24.9297 17.4759 24.4733C17.1747 24.1904 16.8736 23.9075 16.5085 23.7067C16.1617 23.5242 15.8058 23.4786 15.4407 23.6155C15.1669 23.7158 14.9844 23.9623 15.0026 24.2543C15.0117 24.5099 15.1486 24.7015 15.4589 24.8019C15.678 24.8658 15.9061 24.9205 16.1434 24.9753C16.1161 24.9936 16.0887 25.0209 16.0613 25.0483C15.532 25.3677 14.7653 25.3312 14.2451 24.8384C14.0261 24.6285 13.9166 24.3912 13.9074 24.09C13.8801 23.6337 14.0078 23.223 14.2907 22.8671C14.5098 22.6024 14.7927 22.4473 15.1121 22.3286C15.5411 22.1735 15.9335 22.2647 16.3168 22.4655C16.399 22.502 16.472 22.5385 16.5541 22.5659C16.6819 22.6024 16.7458 22.5385 16.7367 22.4108C16.7002 22.1096 16.6454 21.8084 16.618 21.5072C16.5906 21.2243 16.5633 20.9323 16.5541 20.6402C16.5359 20.0926 16.5267 19.5359 16.5085 18.9883C16.5085 18.8879 16.5359 18.7875 16.618 18.7236C16.6545 18.6963 16.7184 18.678 16.7549 18.6963C16.7914 18.7145 16.8371 18.7784 16.8371 18.824C16.8462 19.0248 16.8279 19.2165 16.8462 19.4172C16.8644 19.6637 16.8918 19.9101 16.9192 20.1474C16.9466 20.3847 16.9739 20.6311 17.0105 20.8775C17.0378 21.0509 17.0926 21.2243 17.1382 21.3977C17.2386 21.7536 17.3116 22.1096 17.4394 22.4564C17.7041 23.1683 18.0326 23.8619 18.5255 24.4551C18.8723 24.8749 19.2099 25.313 19.6298 25.6872C19.8488 25.888 20.0952 26.0614 20.3234 26.253C20.3781 26.3078 20.442 26.3534 20.5059 26.4082Z" fill="#1C1C1C"/>
<path d="M22.0848 8.89434C21.9388 8.96735 21.8019 9.04036 21.665 9.11338C20.9257 9.50582 20.1956 9.88913 19.4563 10.2816C19.2099 10.4093 19.2647 10.4276 19.1369 10.1812C18.6988 9.35979 18.2699 8.5384 17.841 7.70789C17.8318 7.68964 17.8227 7.66226 17.8044 7.63488C18.7627 7.13292 19.721 6.63096 20.6884 6.11987C21.163 7.05078 21.6193 7.97256 22.0848 8.89434Z" fill="#1C1C1C"/>
<path d="M26.0001 12.2255C25.8723 12.3806 25.7628 12.5175 25.6441 12.6544C25.2882 13.056 24.8958 13.4119 24.4394 13.6949C24.0926 13.9048 23.7276 14.0599 23.3443 14.1603C22.8788 14.2881 22.4225 14.279 21.957 14.206C21.665 14.1603 21.3821 14.0782 21.1174 13.9595C21.0809 13.9413 21.0626 13.9048 21.0261 13.8774C21.0626 13.8591 21.09 13.8135 21.1265 13.8135C21.2999 13.7953 21.4733 13.8044 21.6376 13.777C21.9479 13.7222 22.2582 13.6675 22.5594 13.5762C22.7054 13.5397 22.7967 13.3937 22.8514 13.2477C23.034 12.7183 23.4264 12.4719 23.9557 12.4171C24.2022 12.3898 24.4577 12.3806 24.7041 12.3989C25.0966 12.4354 25.4616 12.3168 25.8267 12.2346C25.8449 12.2346 25.8632 12.2255 25.8906 12.2255C25.9271 12.2164 25.9545 12.2255 26.0001 12.2255Z" fill="#1C1C1C"/>
<path d="M20.1226 15.0821C20.1226 15.1734 20.1226 15.2555 20.1226 15.3285C20.1226 15.4837 20.2047 15.5841 20.3416 15.6114C20.5606 15.6571 20.7888 15.7027 21.0078 15.7301C21.2086 15.7575 21.4094 15.7575 21.6102 15.7757C21.6284 15.7757 21.6467 15.794 21.6741 15.8031C21.5007 16.2777 21.1539 16.5515 20.6793 16.6884C20.3142 16.7979 19.9492 16.7614 19.6206 16.5697C19.4107 16.4511 19.2555 16.2685 19.1734 16.0404C19.1278 15.9309 19.2008 15.7666 19.3194 15.6753C19.5658 15.4928 19.8214 15.3011 20.0678 15.1095C20.0678 15.1003 20.0861 15.1003 20.1226 15.0821Z" fill="#1C1C1C"/>
<path d="M20.4327 14.4433C20.4327 14.4068 20.4327 14.3885 20.4327 14.3794C20.451 14.206 20.5149 14.1695 20.6609 14.2699C20.9895 14.4798 21.3454 14.5802 21.7287 14.6349C21.9112 14.6623 22.0755 14.5893 22.2489 14.5802C22.5775 14.5711 22.9152 14.5528 23.2437 14.5437C23.2802 14.5437 23.3167 14.5528 23.3532 14.5711C23.4171 14.5984 23.4354 14.6441 23.3715 14.6897C23.0064 14.9635 22.6596 15.292 22.1942 15.4016C21.8747 15.4746 21.5553 15.5202 21.2359 15.4746C20.8799 15.4198 20.5514 15.146 20.4692 14.7445C20.4601 14.6349 20.451 14.5254 20.4327 14.4433Z" fill="#1C1C1C"/>
</svg>
