<svg width="32" height="32" viewBox="0 0 32 32" fill="none" xmlns="http://www.w3.org/2000/svg">
<path fill-rule="evenodd" clip-rule="evenodd" d="M25.1463 22.3863C24.9155 22.633 24.4142 22.9036 24.1356 22.9354C22.3371 23.1662 21.6527 22.052 22.1222 20.914C22.4485 20.1182 23.2045 19.3861 24.064 18.7176C25.21 17.8183 26.2127 16.2108 26.0456 14.3884C25.8784 12.6456 24.629 11.42 22.9419 11.1892C21.1672 10.9425 18.7082 11.5712 17.3076 12.2715C17.2837 12.3511 17.2837 12.3909 17.2439 12.5103C17.2439 12.5103 21.3503 11.1892 22.5679 13.7199C23.6024 15.3991 23.3796 16.6246 22.162 18.1924C21.9233 18.4948 21.5254 18.7017 21.5333 18.4948C21.5333 18.4948 21.5413 18.3834 21.4856 18.0571C21.1911 17.7785 20.4749 17.2453 19.4483 17.6353C18.2228 18.0969 18.9231 19.3304 19.5279 19.2667C19.9099 19.2269 20.3476 18.9245 20.1327 18.4868C20.2282 18.5027 20.9205 18.5505 20.7773 19.3542C20.6977 19.7919 19.7985 20.1819 19.2414 20.1421C18.5331 20.0864 18.2307 19.7999 18.3103 19.1553C18.3182 19.0837 18.2307 18.9961 18.0875 18.9723C18.0875 18.9723 17.7532 18.8529 17.1404 19.5373C16.9495 19.7521 16.0502 19.975 15.4295 19.6964C14.2994 19.203 13.6866 17.699 14.7451 16.7758C15.6841 15.9641 17.0052 16.4097 16.9017 17.6035C16.8619 18.1207 16.1855 18.3277 16.0502 18.0093C15.7876 17.3727 16.1059 17.7388 16.1298 17.3011C16.1377 17.1101 16.09 16.9748 15.8035 16.8793C15.8035 16.8793 14.9679 16.9509 14.9122 17.8422C14.8724 18.5027 15.4215 19.4657 16.854 19.1075C18.0636 18.5425 18.0636 17.0703 18.0636 17.0703C18.0636 17.0703 18.2307 17.0146 18.366 17.1101C18.4854 17.1976 18.5649 17.4363 18.5649 17.4363C18.5649 17.4363 19.0106 16.3938 20.2361 16.8315C20.9524 17.0862 21.2309 17.309 21.3344 17.4443C21.3105 17.3568 21.2866 17.2533 21.2627 17.1499C21.0081 16.1392 19.4165 13.8234 16.663 13.8074C16.5595 13.8074 16.5038 13.712 16.5595 13.6085C16.5595 13.6085 17.0609 13.0116 16.8221 11.6349C16.655 10.7038 16.0422 9.47824 14.944 8.88138C12.859 7.73542 11.0923 8.35615 11.0923 8.35615C11.0923 8.35615 10.3124 6.15175 7.52706 6.00055C7.32015 5.99259 7.11324 6.07217 6.96204 6.15971C6.96204 6.15971 6.96204 6.24725 7.1212 6.42233C7.69418 7.05898 8.77648 8.33227 8.29104 9.76473C8.29104 9.76473 7.68622 10.4332 7.34402 11.4518C7.00183 12.4625 6.91429 13.8154 7.58277 14.8818C8.02842 15.5901 8.36266 15.8129 8.85606 16.163C8.99135 16.2585 9.33355 16.362 9.56434 16.4814C9.7235 16.5689 9.79512 16.6803 9.82695 16.744C9.89858 16.8872 9.73146 17.0623 9.64392 17.1499C9.33355 17.4523 9.15847 17.8104 9.15847 17.8104C9.15847 17.8104 8.6969 18.9245 8.59345 19.6407C8.48999 20.357 8.24329 23.2458 10.392 24.7339C12.5407 26.2221 16.0263 26.5006 18.3421 25.2194C18.3421 25.2194 19.8144 24.3997 20.2202 23.6516C20.2202 23.6516 20.8091 24.6623 22.0745 24.8374C24.1277 25.1239 26.6026 23.397 25.7113 21.678C25.7113 21.678 25.6556 21.8531 25.1463 22.3863Z" fill="#1C1C1C"/>
<path fill-rule="evenodd" clip-rule="evenodd" d="M9.46892 24.6225C9.13468 24.6225 8.22745 24.3519 7.71018 23.8346C7.1929 23.3174 7.11332 22.8956 7.60672 22.3863C8.10012 21.8769 8.04442 21.7019 8.0285 21.0573C8.01259 20.4127 7.86934 19.7123 7.86934 19.7123C7.86934 19.7123 6.65175 20.158 6.21405 21.2801C5.78432 22.4022 5.98327 23.6914 6.97803 24.4235C7.98075 25.1557 9.19038 25.2591 9.77928 25.1875C9.88274 25.1716 9.96232 25.1159 9.92253 25.0045C9.8907 24.8931 9.80316 24.6225 9.46892 24.6225Z" fill="#1C1C1C"/>
</svg>
