<svg width="32" height="32" viewBox="0 0 32 32" fill="none" xmlns="http://www.w3.org/2000/svg">
<path fill-rule="evenodd" clip-rule="evenodd" d="M16.6991 9.88906C16.3153 9.67971 15.7047 9.40058 15.4518 9.38314C15.1901 9.36569 14.2655 9.38314 13.838 9.55759C13.4019 9.73205 13.1925 9.87162 12.9745 10.0461C12.7564 10.2205 12.3639 10.3863 12.2417 10.4473C12.1196 10.5084 11.9539 10.8311 11.8754 11.0666C11.7969 11.3022 11.7097 11.4156 11.5963 11.5551C11.4829 11.6947 11.3346 12.2617 11.3433 12.3576C11.352 12.4536 11.2822 12.4361 11.3433 12.471C11.4044 12.5059 11.4392 12.4449 11.5963 12.2966C11.7533 12.1483 13.0355 11.2673 14.2044 10.9184C15.3733 10.5694 16.167 10.4299 16.5334 10.4037C16.8998 10.3863 17.1353 10.3078 17.2225 10.2729C17.2138 10.2641 17.0829 10.0984 16.6991 9.88906Z" fill="#1C1C1C"/>
<path fill-rule="evenodd" clip-rule="evenodd" d="M17.0044 10.7352C16.5857 10.8311 16.4287 11.0928 16.1234 11.3545C15.8181 11.6249 15.4691 11.8168 15.0679 11.7994C14.6666 11.7819 13.5239 11.6424 12.8436 12.314C12.1632 12.9857 12.0672 13.919 12.0672 14.4075C12.0585 14.8873 12.1719 15.7508 12.7127 16.5185C12.7563 16.5795 12.9395 16.4836 12.9308 16.2917C12.9221 16.1085 12.8523 15.6811 12.8872 15.3147C12.9221 14.9483 13.0791 14.0935 13.1838 13.9103C13.2972 13.7359 13.9601 13.3521 14.1345 13.1776C14.1345 13.1776 15.4255 12.9857 15.6436 12.8897C15.8617 12.7938 16.2019 12.567 16.2891 12.3315C16.3763 12.096 16.5508 11.9564 16.7165 11.9128C16.8823 11.8692 17.0567 11.7034 17.2312 11.5813C17.4143 11.4505 17.8592 11.2935 17.8592 11.2935C17.8592 11.2935 17.4231 10.6392 17.0044 10.7352Z" fill="#1C1C1C"/>
<path fill-rule="evenodd" clip-rule="evenodd" d="M17.5628 22.5983C15.6699 22.04 14.6319 20.9584 13.5939 20.1123C12.5559 19.2574 12.521 18.4811 12.4948 18.1584C12.4686 17.8356 12.2942 17.696 12.2767 17.1552C12.2593 16.6144 12.0848 16.1957 12.0848 16.1957C11.8144 15.8032 11.4655 14.7913 11.5004 14.2854C11.544 13.7795 11.9976 12.7502 11.9976 12.7502C11.7708 12.5757 11.2911 12.8374 11.1602 12.9682C11.0206 13.0991 10.8462 13.3433 10.663 13.4567C10.4798 13.5701 10.3577 13.701 10.3577 13.701C9.61626 14.3116 9.63371 15.1402 9.52031 15.8381C9.40691 16.5359 9.75583 16.658 9.30224 17.1029C8.85737 17.5478 8.20316 17.1465 8.20316 17.1465C8.20316 17.1465 8.13337 17.1727 8.43867 17.635C8.74398 18.0973 9.21501 18.2369 9.21501 18.2369L9.59882 17.949C9.59882 17.949 9.93029 18.7602 10.2007 19.1702C10.4711 19.5802 10.8026 20.3216 11.1689 20.6356C11.5353 20.9497 11.4219 21.3073 12.3552 21.8568C13.2886 22.4064 14.0388 22.3192 14.0388 22.3192C14.0388 22.3192 14.7628 22.7466 14.9023 22.7902C15.0419 22.8338 15.4431 22.7204 15.4431 22.7204C17.8681 23.3223 19.194 22.7466 19.194 22.7466C19.194 22.7466 18.2432 22.7989 17.5628 22.5983Z" fill="#1C1C1C"/>
<path fill-rule="evenodd" clip-rule="evenodd" d="M21.0342 11.5988C20.8249 10.6044 20.0224 10.1508 19.8915 10.1072C19.7607 10.0636 19.7869 10.1333 19.7869 10.1333C19.9875 10.2991 20.2405 10.962 20.3277 11.5988C20.4149 12.2356 20.1707 13.5004 19.9177 13.8231C19.6647 14.1459 19.2286 14.6867 19.1675 14.8262C19.1065 14.9571 19.1763 14.992 19.3594 15.4456C19.5426 15.8992 19.5513 16.8674 19.3158 18.045C19.0803 19.2226 18.0859 19.7111 17.6585 19.8942C17.2311 20.0687 16.5332 20.06 15.5912 19.8506C14.6491 19.6413 14.1083 19.1092 14.0385 18.9871C13.9687 18.8562 13.8553 18.4201 13.803 18.5684C13.6896 18.8649 13.5326 18.9347 13.4977 19.0394C13.4628 19.1353 13.7157 19.1528 13.7768 19.3098C13.8379 19.4581 14.021 19.8681 14.3176 20.0687C14.6142 20.2606 15.3644 20.9061 17.1177 21.0457C18.871 21.1852 19.6647 20.0774 20.2405 18.8213C20.8162 17.574 20.5719 16.1347 20.4585 15.7509C20.3451 15.3758 20.0485 14.8873 20.0485 14.8873L20.5632 14.5995L20.4324 14.5733C21.1651 14.1022 21.2523 12.5932 21.0342 11.5988Z" fill="#1C1C1C"/>
<path fill-rule="evenodd" clip-rule="evenodd" d="M23.756 15.4892C23.8607 12.9944 22.7703 11.4069 22.2033 10.3776C21.6363 9.34826 20.5198 8.44108 20.5198 8.44108C20.5198 8.44108 20.6681 8.58064 21.1217 8.31024C21.584 8.0311 21.741 7.70836 21.488 7.37689C21.2438 7.0367 21.0345 7.21988 21.0345 7.21988C21.1217 7.41178 20.7902 7.70836 20.5198 7.88282C20.2494 8.05727 19.6999 7.80431 19.0718 7.52518C18.4525 7.24605 16.9696 6.89713 15.9665 6.86224C14.9633 6.81862 14.3789 7.05414 13.7247 7.19371C13.0705 7.342 11.8057 7.88282 11.8057 7.88282L11.954 7.90026C12.2505 7.91771 13.7072 8.26662 14.283 8.50214C14.8587 8.73766 15.5303 9.0604 15.5303 9.0604C15.5303 9.0604 15.4693 8.78127 15.0593 8.3713C14.6493 7.96132 14.1957 7.75197 14.1957 7.75197C14.1957 7.75197 15.1029 7.65602 15.5129 7.62113C15.9229 7.57751 17.2226 7.8392 18.4699 8.46725C19.7173 9.09529 20.7902 10.142 21.4444 11.529C22.1074 12.9159 21.5055 14.1371 21.2961 14.4599C21.0781 14.7913 20.8862 14.992 20.8862 14.992C21.1391 15.21 21.4532 16.1347 21.4706 16.3004C21.4793 16.4661 21.3834 16.3876 21.3834 16.3876L21.3659 17.1203C21.3223 18.769 20.1273 20.3129 19.7871 20.6531C19.4469 20.9933 18.8363 21.5341 17.8681 21.5603C16.8998 21.5864 14.9808 20.8014 14.9808 20.8014C15.888 21.7522 18.3216 22.3802 18.3216 22.3802C18.5397 22.2843 19.0369 22.293 19.6126 22.2668C20.1883 22.2407 21.3485 21.4818 21.8282 21.0892C22.308 20.6967 22.7093 20.0425 22.7093 20.0425V19.8419C22.4737 19.9814 21.9765 19.9989 21.9765 19.9989C22.4214 19.4755 23.6513 17.9752 23.756 15.4892Z" fill="#1C1C1C"/>
<path fill-rule="evenodd" clip-rule="evenodd" d="M26.8089 11.7557C26.5995 11.2847 26.0064 10.8049 25.7709 10.7352C25.5353 10.6654 24.8986 10.4996 24.5671 10.2903C24.2356 10.0809 23.2674 9.66225 22.997 9.58375C22.7266 9.50524 22.8225 9.69714 22.8225 9.69714C22.8225 9.69714 23.3808 10.2729 23.9478 10.7875C24.5148 11.3022 24.9422 11.6249 25.1951 12.3838C25.4568 13.1514 25.4656 15.0268 25.4307 15.7421C25.4045 16.4574 25.2562 17.0331 25.2562 17.0331C25.2562 17.0331 24.8288 15.9078 24.7416 15.7683C24.6543 15.62 24.3752 15.3234 24.3752 15.3234C24.3752 15.3234 24.3141 15.367 24.2269 15.4979C24.131 15.6287 24.2531 15.8293 24.2531 15.8293L24.1484 15.9863C24.2269 17.2424 24.1048 17.9141 23.782 19.0306C23.4593 20.1471 22.4736 21.0979 21.5577 21.8307C20.6418 22.5634 19.2374 22.9995 18.5832 23.2089C17.929 23.4182 17.3358 23.5665 17.3358 23.5665H17.5539C17.5539 23.5665 17.5452 23.6276 17.1003 23.7933C16.6555 23.9503 15.286 23.7759 15.286 23.7759L15.0068 23.8456C15.4953 24.2731 17.3533 24.6307 17.5975 24.5522C17.833 24.4824 18.6094 24.369 19.2113 24.308C19.8131 24.2469 20.5982 24.0986 20.8686 23.8631C21.139 23.6363 22.1509 22.9908 22.8138 22.5983C23.468 22.2057 24.3054 21.002 24.5148 20.6182C24.7241 20.2344 25.1951 19.0742 25.2213 18.9085C25.2562 18.7428 25.2388 18.3066 25.2388 18.3066C25.2388 18.3066 25.6313 18.1234 25.6313 17.9751C25.6313 17.8181 25.7883 17.382 25.9279 16.7976C26.0762 16.2131 26.521 14.9483 26.8089 14.0847C27.1055 13.195 27.0182 12.2268 26.8089 11.7557Z" fill="#1C1C1C"/>
<path fill-rule="evenodd" clip-rule="evenodd" d="M18.147 25.0233C18.147 25.0233 17.833 24.8139 17.0654 24.779C16.2978 24.7354 15.661 24.5173 15.0155 24.1772C14.37 23.837 13.4367 23.6625 13.1139 23.6451C12.7912 23.6276 12.2068 23.2874 12.2068 23.2874C12.2068 23.2874 12.5121 23.3049 12.8959 23.2438C13.2797 23.174 13.6286 22.6681 13.6286 22.6681C13.6286 22.6681 13.2448 22.703 12.9395 22.7815C12.6342 22.8513 12.1457 22.7292 11.7357 22.293C11.3258 21.8569 10.2528 21.508 9.72947 21.3597C9.2061 21.2114 8.51699 20.4874 8.43848 20.0512C8.35126 19.6064 8.46465 19.1353 8.00234 18.9173C7.54875 18.6992 7.54875 18.3416 7.54875 18.3416C7.58364 18.4375 7.69704 18.516 7.69704 18.516C7.69704 18.516 7.78427 18.4026 7.82788 18.202C7.8715 18.0101 7.6796 18.1409 7.50514 17.7571C7.33068 17.3733 7.74066 14.1895 8.26403 12.977C8.7874 11.7645 9.38928 11.5901 9.54629 11.2411C9.69458 10.9009 9.86031 10.5346 10.8373 9.68847C11.8142 8.83363 13.0354 8.39748 13.0354 8.39748C12.5906 8.18814 12.2155 8.38876 11.8927 8.35387C11.57 8.31898 10.8111 8.08346 10.2528 8.10963C9.69458 8.1358 9.42417 8.19686 9.37183 8.39748C9.31949 8.59811 9.13631 8.79001 8.70017 9.01681C8.26403 9.25233 8.28147 9.60996 8.14191 9.81931C8.00234 10.0287 7.46152 10.3427 7.39174 10.6393C7.32196 10.9358 6.79859 11.8517 6.68519 12.0175C6.56307 12.1832 6.44095 12.2181 6.4235 12.4623C6.40606 12.7066 6.40606 12.8549 6.3101 13.0642C6.21415 13.2823 6.06586 13.3957 6.07459 13.5091C6.08331 13.6225 6.25777 13.9103 6.29266 14.0848C6.32755 14.2593 6.43222 14.6256 6.3101 14.8873C6.19671 15.149 6.45839 15.3583 6.6154 15.7509C6.76369 16.1521 6.94687 17.1901 6.87709 17.6437C6.80731 18.0973 6.35372 18.5771 6.35372 18.5771C6.35372 18.5771 6.96432 19.0917 7.40919 19.6674C7.85405 20.2431 7.88022 20.7316 8.27275 21.8045C8.66528 22.8774 9.398 23.8021 9.398 23.8021C9.398 23.8021 9.45906 23.8719 9.50267 23.9329C9.54629 23.994 10.3662 24.622 10.3662 24.622L10.4273 23.8021C10.4273 23.8021 10.5058 24.0899 11.2909 24.718C12.0759 25.346 12.8784 25.6164 13.2361 25.6949C13.5937 25.7647 14.6579 25.5815 14.6579 25.5815L14.4224 25.3373C14.4224 25.3373 14.5968 25.3984 15.0068 25.3809C15.4081 25.3635 16.2455 25.7211 16.8386 25.6252C17.4318 25.5292 18.3913 25.0494 18.3913 25.0494L18.147 25.0233Z" fill="#1C1C1C"/>
<path fill-rule="evenodd" clip-rule="evenodd" d="M7.26087 21.1764C6.5456 20.4437 6.10073 19.964 5.98733 19.3097C5.87393 18.6555 5.74309 17.7396 5.92627 17.129C5.92627 17.129 5.32439 17.6698 5.38545 18.7777C5.45524 19.8855 5.90883 20.5309 6.59793 21.316C7.27832 22.0923 7.14747 22.7989 6.78984 23.0693C6.4322 23.3484 6.44092 23.4444 6.44092 23.4444C6.44092 23.4444 6.87706 24.0463 7.39171 23.8631C7.90636 23.6799 8.28145 23.2525 8.19422 22.7989C8.08954 22.3453 7.97615 21.9092 7.26087 21.1764Z" fill="#1C1C1C"/>
<path fill-rule="evenodd" clip-rule="evenodd" d="M7.79303 9.66227C8.19428 9.26101 8.30768 8.87721 8.07216 8.31022C7.84537 7.73451 7.19115 7.79557 7.19115 7.79557C7.0167 7.86535 6.54566 8.08343 6.54566 8.08343C6.54566 8.08343 6.6765 8.1881 6.86841 8.61552C7.06031 9.04294 6.83352 9.64482 6.35376 10.2118C5.86528 10.7962 5.15 11.5377 5.01044 12.8461C4.87959 14.1545 6.02229 14.6692 6.02229 14.6692C5.78677 14.1284 5.6821 13.2125 5.93506 12.2878C6.19675 11.3632 7.39178 10.0722 7.79303 9.66227Z" fill="#1C1C1C"/>
</svg>
