<svg width="32" height="32" viewBox="0 0 32 32" fill="none" xmlns="http://www.w3.org/2000/svg">
<path d="M12.0627 15.9603H12.719L13.3518 15.5502L14.2541 15.972H28.7267C29.0549 15.89 29.383 15.7494 29.6759 15.5853C29.84 15.4916 29.9806 15.3744 30.0978 15.2338L30.133 15.1869H11.3948C11.4417 15.3392 11.5237 15.4916 11.6174 15.6088C11.7346 15.7494 11.887 15.8666 12.0627 15.9603Z" fill="#1C1C1C"/>
<path d="M10.9727 15.1751C10.9493 15.14 10.9141 15.1048 10.8673 15.0814C10.8204 15.0579 10.7852 15.0462 10.7384 15.0462V14.7298C10.7384 14.6946 10.7266 14.6595 10.7032 14.636C10.6798 14.6126 10.6563 14.6009 10.6212 14.5892H10.0821C10.0587 14.5892 10.0352 14.6009 10.0235 14.6126C10.0001 14.6243 9.98837 14.6478 9.98837 14.6712V15.3509L4.28136 15.3157C4.08214 15.3275 3.89464 15.2337 3.78917 15.0579C3.73058 14.9525 3.70714 14.8235 3.73058 14.6946C2.39465 15.3157 1.38684 16.4993 1.00012 17.9173C1.43371 17.179 2.2423 16.7337 3.09777 16.7571H9.97665V17.3313C9.97665 17.3665 9.98837 17.4017 10.0118 17.4251C10.0235 17.4368 10.047 17.4603 10.0704 17.4603H10.586C10.6095 17.472 10.6329 17.472 10.6563 17.4603C10.6798 17.4485 10.7032 17.4134 10.7032 17.3899V17.0267C10.8204 17.0384 10.9259 16.9915 10.9962 16.9095H11.0079V15.1634H10.9727V15.1751Z" fill="#1C1C1C"/>
<path d="M30.3088 15.1751C29.8752 15.6087 29.3244 15.9134 28.7385 16.0657H14.2659L13.3401 16.4993L12.6956 16.0892H12.0393C11.8752 16.1829 11.7346 16.3001 11.6291 16.4524C11.5237 16.5931 11.4417 16.7571 11.3948 16.9329H28.1994C28.8556 16.7923 29.4767 16.5228 30.0275 16.136C30.3908 15.8665 30.7189 15.5501 31.0002 15.1868L30.3088 15.1751Z" fill="#1C1C1C"/>
<path d="M12.7305 14.3197C13.0352 14.5658 13.375 14.7533 13.7383 14.8705C14.0782 14.9876 15.3438 15.4095 16.3047 14.6009C17.0547 13.9564 17.336 12.9134 16.9961 11.9877C16.9375 11.8353 16.8555 11.683 16.7617 11.5541C16.7383 11.765 16.6563 11.9642 16.5508 12.14C16.2578 12.597 15.7188 12.8431 15.1797 12.7845C14.4297 12.6673 13.9844 11.8236 14.0078 11.1322C14.043 10.2064 14.9453 9.56188 15.7071 9.43298C16.7149 9.26892 17.8281 9.9486 18.2969 11.1322C18.5078 11.4252 18.8125 11.8587 19.1875 12.3627C19.8203 13.2064 20.125 13.6283 20.3359 13.8392C21.4844 14.9759 23.207 14.9876 23.5 14.9876C24.707 14.9876 25.8789 14.5658 26.8164 13.7923C25.082 13.5931 23.875 13.0306 23.043 12.4681C22.375 12.0228 22.2344 11.765 20.2539 9.79626C18.1094 7.65173 17.7344 7.40564 17.2422 7.21814C16.8438 7.05408 15.3321 6.44471 13.6914 7.14783C12.1914 7.79236 11.5586 9.12829 11.4063 9.47985C10.9258 10.0306 10.6446 10.722 10.586 11.4486C10.5743 11.7533 10.504 12.8548 11.3243 13.6517C11.7227 14.0033 12.2149 14.2494 12.7305 14.3197Z" fill="#1C1C1C"/>
<path d="M17.3829 10.851C17.3009 10.7338 16.961 10.183 16.2931 10.0892C15.7657 10.0189 15.2501 10.2416 14.9337 10.6635C14.8868 10.7338 14.5939 11.1674 14.7579 11.6361C14.8282 11.8588 14.9923 12.0463 15.2032 12.1283C15.4845 12.222 15.7892 12.1283 15.9767 11.9056C16.0587 11.8002 16.1056 11.683 16.1056 11.5541C16.1173 11.4252 16.0704 11.39 16.0939 11.308C16.129 11.1439 16.3282 11.0267 16.4689 10.9916C16.8321 10.8978 17.1837 11.2611 17.254 11.3314C17.6759 11.7885 17.547 12.4681 17.5235 12.5619C17.5587 12.4564 17.8634 11.6127 17.3829 10.851Z" fill="#1C1C1C"/>
<path d="M18.2148 17.7063C17.9335 17.4837 17.6171 17.3313 17.2773 17.2259C16.4101 16.9681 15.0742 17.0618 14.3359 18.0227C13.8906 18.597 13.6562 19.4876 13.9843 20.2844C14.1132 20.5891 14.3125 20.8704 14.582 21.0813C14.4531 20.7766 14.4414 20.4368 14.5585 20.1321C14.7929 19.593 15.4492 19.4055 15.9296 19.4876C16.6796 19.6048 17.1249 20.4485 17.1015 21.1399C17.0663 22.0657 16.164 22.6868 15.4023 22.8391C14.5585 23.0149 13.6562 22.6399 13.0937 21.8899C12.8125 21.4798 12.3789 20.8704 11.8632 20.1438C11.0898 19.054 10.6914 18.5032 10.5039 18.3157C9.09763 16.9212 7.11717 16.8509 6.98827 16.8509C5.68749 16.8391 4.42187 17.2962 3.4375 18.1516C5.66405 18.3274 7.08202 19.0305 7.9492 19.6165C8.72263 20.1555 8.81638 20.4134 10.8086 22.2883C12.414 23.8001 13.2343 24.5501 13.8671 24.7961C15.3671 25.3821 17.6171 25.4172 18.8242 24.093C19.164 23.718 19.3984 23.2727 19.5273 22.7805C20.0429 22.2415 20.3593 21.5383 20.4179 20.8001C20.4413 20.5305 20.5234 19.4876 19.7617 18.6087C19.3632 18.1634 18.8124 17.8352 18.2148 17.7063Z" fill="#1C1C1C"/>
<path d="M13.9492 21.6673C14.0429 21.7845 14.4648 22.3118 15.1679 22.3118C15.7187 22.3235 16.2343 22.0306 16.5038 21.5501C16.539 21.4798 16.7968 20.9876 16.5742 20.5306C16.4804 20.3079 16.2929 20.1439 16.0585 20.0735C15.7656 20.015 15.4609 20.1439 15.2968 20.4017C15.2265 20.5189 15.1913 20.6478 15.1913 20.7884C15.1913 20.9173 15.2382 20.9525 15.2382 21.0462C15.2148 21.222 15.0273 21.3626 14.8867 21.4095C14.5234 21.5501 14.1132 21.222 14.0429 21.1634C13.5507 20.7415 13.5976 20.0267 13.6093 19.9212C13.5742 20.0267 13.3515 20.9407 13.9492 21.6673Z" fill="#1C1C1C"/>
<path d="M30.4141 15.0579L30.1914 15.0931C30.1797 15.1165 30.1562 15.14 30.1328 15.1751H30.3086C30.3437 15.14 30.3789 15.0931 30.4141 15.0579Z" fill="white"/>
</svg>
