<svg width="32" height="32" viewBox="0 0 32 32" fill="none" xmlns="http://www.w3.org/2000/svg">
<path fill-rule="evenodd" clip-rule="evenodd" d="M14.5707 19.4898C14.5707 19.4898 14.2651 19.4325 14.1219 19.6426C14.1219 19.6426 14.2651 20.4352 14.1219 20.8076C13.9786 21.1895 13.7399 21.4951 13.081 21.7147C12.4317 21.9248 11.3909 22.1349 11.028 22.0871C10.6651 22.0394 9.69114 21.6861 9.29008 21.4187C9.29008 21.4187 9.21369 21.4187 9.22324 21.5046C9.22324 21.5046 9.79618 22.45 10.3023 22.8701C10.8179 23.2808 11.5245 23.8919 12.2885 24.1688C12.2885 24.1688 12.6609 24.2357 13.1192 23.9492C13.5776 23.6723 14.4179 23.0707 14.7712 22.5932C15.1245 22.1158 15.516 21.5046 15.4205 20.7312C15.3346 19.9577 14.9813 19.6521 14.5707 19.4898Z" fill="#1C1C1C"/>
<path fill-rule="evenodd" clip-rule="evenodd" d="M13.3773 19.6044C13.2531 19.4134 12.2887 18.4776 12.0882 18.4203C11.8876 18.363 11.3147 18.3344 10.8659 18.3344C10.4171 18.3344 9.88234 18.3248 9.69136 18.3153C9.50038 18.3057 8.3163 17.58 8.08713 17.4463C7.8675 17.3126 7.70517 17.2172 7.59058 17.3604C7.47599 17.5036 7.54283 17.5991 7.54283 17.5991L7.50464 19.5567C7.50464 19.5567 8.26856 20.3683 9.47173 20.5498C10.6654 20.7312 10.9423 20.7407 10.9423 20.7407L12.05 21.1513C12.05 21.1513 13.0526 21.0559 13.2436 20.8744C13.4346 20.6834 13.4919 20.4447 13.4919 20.4447C13.4919 20.4447 13.4919 19.7858 13.3773 19.6044Z" fill="#1C1C1C"/>
<path fill-rule="evenodd" clip-rule="evenodd" d="M14.8382 18.172C14.695 17.9333 14.3417 17.5896 14.3417 17.5896L12.3746 16.5965L10.6176 16.6347C10.6176 16.6347 10.1401 16.5965 10.121 16.31C10.1019 16.0331 10.0637 15.5843 9.89185 15.336C9.71997 15.0877 7.57145 12.796 7.5237 12.7387C7.47596 12.6909 7.29453 12.5286 7.22768 12.1753C7.16084 11.8315 7.094 11.631 7.094 11.631L7.00806 14.4193C7.00806 14.4193 7.0558 14.6485 7.23723 14.9349C7.41866 15.2214 8.4786 16.606 9.15658 17.0548C9.15658 17.0548 9.23297 17.1694 9.51944 17.2076C9.80591 17.2362 11.4197 17.2362 11.8017 17.3126C12.1741 17.389 12.5656 17.7614 12.747 17.9429C12.9284 18.1148 13.5778 18.7259 13.7401 18.936C13.7401 18.936 13.912 19.1938 14.2366 19.0697C14.5613 18.9455 14.7809 18.7354 14.8955 18.5731C14.886 18.5827 14.991 18.4108 14.8382 18.172Z" fill="#1C1C1C"/>
<path fill-rule="evenodd" clip-rule="evenodd" d="M11.6777 14.0469C10.4841 13.4357 9.10901 12.9869 9.10901 12.9869C9.10901 12.9869 9.98752 14.0278 10.4841 14.6485C10.9806 15.2691 11.6586 15.4124 12.1742 15.4219C12.6899 15.4315 13.3965 15.5556 13.3965 15.5556C13.3965 15.5556 12.8809 14.658 11.6777 14.0469Z" fill="#1C1C1C"/>
<path fill-rule="evenodd" clip-rule="evenodd" d="M15.7453 15.04C15.7262 14.8394 15.7071 13.9132 15.7453 13.2065C15.7835 12.4904 15.8121 11.6692 15.497 11.2204C15.497 11.2204 15.3824 11.8697 15.2965 12.1753C15.2105 12.4713 14.8286 13.0347 14.7522 13.2734C14.6758 13.5121 14.4752 13.5312 14.2365 13.4071C13.9978 13.2829 13.7113 13.1493 13.6731 12.9296C13.6349 12.71 13.6158 12.4713 13.5394 12.2803C13.4631 12.0989 13.0047 11.144 11.9161 10.4469C10.818 9.74981 9.00367 9.46334 7.94373 9.60658C7.94373 9.60658 7.63817 9.62567 7.53313 9.95034C7.42809 10.275 7.61907 10.4087 7.61907 10.4087C7.61907 10.4087 8.00103 10.7143 8.54532 10.8861C9.08961 11.058 10.7702 11.6787 11.1617 11.9652C11.5533 12.2516 12.7087 13.1206 13.2625 13.8845C13.8164 14.6484 14.1219 15.1259 14.3034 15.2214C14.4752 15.3264 15.0195 15.6988 15.4301 15.8516C15.4301 15.8516 15.7071 15.9471 15.7739 15.7657C15.8312 15.5747 15.7548 15.2405 15.7453 15.04Z" fill="#1C1C1C"/>
<path fill-rule="evenodd" clip-rule="evenodd" d="M14.9051 9.35831C14.6855 8.80447 13.616 7.37212 12.8998 6.77054C12.1836 6.1594 11.3911 5.45277 11.3911 5.45277C11.3911 5.45277 11.0378 5.2427 10.7799 5.38593C10.5221 5.51962 9.49082 6.45542 9.12796 6.98061C9.12796 6.98061 8.92743 7.22889 8.87969 7.28618C8.83194 7.34348 8.82239 7.43897 8.83194 7.50581C8.85104 7.5631 8.84149 7.88777 9.14706 8.00236C9.45263 8.11695 9.88233 8.11695 10.2261 8.15514C10.5699 8.19334 10.8277 8.25063 11.4484 8.73763C12.0595 9.22463 13.1099 10.1986 13.2054 10.3323C13.3104 10.466 13.5587 10.8098 13.6542 10.8957C13.7592 10.9816 13.9789 11.3636 14.0361 11.4973C14.0934 11.6405 14.2176 11.8411 14.2176 11.8411C14.2176 11.8411 14.6855 11.4973 14.8001 11.0867C14.9338 10.6761 15.1247 9.91216 14.9051 9.35831Z" fill="#1C1C1C"/>
<path fill-rule="evenodd" clip-rule="evenodd" d="M18.5625 18.4585C19.0591 18.0097 19.336 17.7137 19.5556 17.6755C19.7753 17.6373 20.4723 17.6659 20.9116 17.5227C21.3413 17.3795 21.6278 17.3126 21.8569 17.0261C22.0861 16.7492 22.745 15.4601 23.4612 14.9063C24.1773 14.3524 24.4829 14.1042 24.7503 13.9991C24.7503 13.9991 24.9795 13.8463 24.9986 13.6076C25.0177 13.3784 24.8458 12.4426 24.7503 11.7933C24.6548 11.144 24.5116 10.657 24.3683 10.2846C24.2251 9.9026 23.9482 9.53019 23.5089 9.44424C23.0697 9.3583 21.7519 9.29146 21.5705 9.31056C21.3795 9.33921 19.9471 10.0363 19.6034 10.3037C19.2692 10.571 17.3212 12.7196 17.3212 12.7196C17.3212 12.7196 17.2352 12.7386 17.2066 12.5859C17.1779 12.4426 17.2066 11.6596 17.2066 11.6596C17.2066 11.6596 18.3811 10.1986 18.8967 9.67342C19.4124 9.14823 19.7657 9.03364 19.9567 8.8904C20.1477 8.74717 21.0357 7.60129 21.179 7.22888C21.3222 6.85647 21.5896 6.36947 21.5418 6.14984C21.4845 5.93021 21.2172 5.596 20.9593 5.41457C20.692 5.23314 19.1546 4.45967 18.2952 4.28779C17.4357 4.12545 16.2899 4.01086 16.2899 4.01086L16.2708 4.1159V10.8766V26.2791C16.2708 26.2791 16.2612 26.6897 15.9748 27.1194C15.6883 27.5491 15.7933 27.9598 15.927 27.9884C15.9748 27.9979 16.0034 27.9025 16.0607 27.7974C16.118 27.6924 16.3185 27.425 16.6432 27.1481C16.9774 26.8712 17.4835 26.1263 17.7222 25.7921C17.9609 25.4579 18.4193 24.9041 18.6485 24.7513C18.8681 24.5985 19.5843 24.1974 19.9089 24.0638C20.2432 23.9301 20.9593 23.4908 21.2363 23.2425C21.5132 22.9943 21.6182 22.9274 21.9142 22.5073C22.2102 22.0871 22.5158 21.5428 22.6113 21.2564C22.7163 20.9603 23.0028 20.3397 23.2224 19.9768C23.4421 19.6235 23.6999 19.2033 24.015 18.8978C24.3301 18.5922 24.6261 17.9715 24.693 17.7519C24.7598 17.5322 24.9317 16.9593 24.8935 16.711L24.5784 16.6633C24.5784 16.6633 24.3206 16.9593 24.0628 17.1598C23.8049 17.3604 22.5063 18.2007 22.0957 18.3917C22.0957 18.3917 21.3222 18.1243 20.8543 18.172C20.3864 18.2293 19.3551 18.3821 18.8013 18.8596C18.2474 19.337 17.9227 20.1678 18.1233 20.7407C18.3238 21.3137 19.145 21.4473 19.4124 21.4091C19.6702 21.3709 20.2336 21.1704 20.3577 20.5879C20.4819 20.0054 20.1572 19.5948 20.0426 19.528C20.0426 19.528 19.9662 19.4325 20.0904 19.4229C20.2145 19.4038 20.3577 19.3848 20.4055 19.4229C20.4532 19.4611 20.8829 20.1582 20.6347 20.8935C20.3768 21.6288 19.6798 21.8866 18.8967 21.6956C18.1137 21.5046 17.7413 21.1036 17.7031 20.3397C17.6649 19.5948 18.066 18.9073 18.5625 18.4585ZM17.7031 15.4315C17.7031 15.4315 17.9418 15.4601 18.1328 15.2978C18.3238 15.1354 18.8108 14.6484 19.1068 14.3715C19.4028 14.0851 19.9758 13.4739 20.2814 13.2734C20.5869 13.0633 21.1121 12.815 21.389 12.6432C21.666 12.4808 21.8187 12.4522 21.8187 12.4522C21.8187 12.4522 23.0792 12.4426 23.1747 12.4713C23.1747 12.4713 23.2415 12.5095 23.1556 12.5763C23.0697 12.6432 22.7354 12.9392 22.2771 13.4166C21.8187 13.9036 21.4941 14.4575 21.2649 14.8394C21.0357 15.2309 20.8734 15.5461 20.1859 15.6606C19.4983 15.7752 18.6389 15.6415 18.2474 15.5747C17.8368 15.5174 17.6649 15.4983 17.7031 15.4315Z" fill="#1C1C1C"/>
</svg>
