<svg width="32" height="32" viewBox="0 0 32 32" fill="none" xmlns="http://www.w3.org/2000/svg">
<path fill-rule="evenodd" clip-rule="evenodd" d="M24.9459 16.8632C24.4925 16.3221 23.5857 15.5245 23.5857 15.5245C23.5857 15.5245 24.0021 15.7809 24.5665 15.9138C25.3901 16.1132 25.7139 15.629 25.7139 15.629C24.9181 15.4201 24.6498 14.5656 24.6498 14.5656C25.2328 14.1953 25.1402 13.2079 24.9922 12.8187C24.8441 12.4294 24.548 12.0591 24.548 12.0591L24.8256 11.9547C24.8256 11.9547 24.3815 11.8503 24.0021 11.6319C23.6227 11.404 22.7529 10.9388 22.3643 10.635C21.9756 10.3407 21.9386 10.1603 21.9386 10.1603C23.1138 10.0843 23.2156 9.16339 23.2156 9.16339C23.2156 9.16339 22.0959 9.50519 20.9208 9.44822C19.7456 9.38176 19.431 8.84059 19.431 8.84059C19.6068 8.26144 19.4865 7.73925 19.0239 7.41645C18.5612 7.09364 17.858 7.48291 17.858 7.48291C17.6081 7.06516 17.3676 6.94174 17.1362 6.92275C16.9049 6.90376 16.7939 7.14111 16.7939 7.14111C16.7939 7.14111 16.5348 6.63792 16.4978 6.08725C16.4607 5.52709 16.6088 4.92895 16.7568 4.57767C16.9049 4.22638 17.5434 4.05548 17.5434 4.05548C17.5434 4.05548 17.2843 3.8656 16.6458 4.1884C16.0073 4.50171 15.9888 5.5081 15.9888 5.5081C15.8685 5.38468 15.7297 5.48911 15.7297 5.48911C15.5077 5.63153 15.5724 6.63792 15.6465 7.13162C15.7205 7.62532 15.4799 7.75824 15.4799 7.75824C15.1931 7.34049 14.6656 6.9987 13.9069 7.38797C13.1481 7.77723 13.4164 8.87856 13.4164 8.87856C11.5751 9.53367 9.86323 8.83109 9.86323 8.83109C9.75219 9.65709 11.1587 9.91344 11.1587 9.91344C11.1587 9.91344 10.8718 10.3217 9.96501 10.8629C9.0582 11.404 7.98483 11.8598 7.98483 11.8598L8.30869 11.9452C7.35562 13.4548 8.35496 14.3852 8.35496 14.3852C7.94782 15.2967 7.24458 15.6385 7.24458 15.6385C7.82753 16.3885 9.09521 15.3347 9.09521 15.3347C9.08596 15.4961 8.73434 15.9518 8.17915 16.436C7.62396 16.9202 6.69864 18.3538 7.09653 19.6356C7.48516 20.9173 8.88239 21.411 8.88239 21.411C8.80836 22.0661 9.18774 23.1105 10.3907 23.3288C11.5936 23.5567 12.8057 24.2118 13.1111 24.5346C13.4164 24.8669 13.7311 25.8258 12.963 26.0062C12.195 26.1866 12.158 25.2751 12.158 25.2751C11.5103 25.8733 12.195 27.0791 13.2406 26.7847C14.2862 26.4999 14.277 25.3321 13.9809 24.5346C13.6848 23.7371 12.4911 23.2814 12.4911 23.2814C12.8798 22.7402 13.6015 21.9617 14.4898 22.0091C15.3781 22.0566 15.1653 23.5187 15.1653 23.5187C14.4065 23.7466 14.3418 24.3352 14.3418 24.3352C13.9901 25.5505 15.045 25.9967 15.045 25.9967C15.1283 26.8322 15.9426 27.2689 15.9426 27.2689C16.1646 27.7247 16.4145 28 16.4145 28C16.5625 27.8291 16.8586 27.2405 16.8586 27.2405C17.6729 26.8512 17.7099 25.9208 17.7099 25.9208C18.3761 25.598 18.5057 24.9808 18.3484 24.4112C18.1911 23.832 17.4601 23.4143 17.4601 23.4143C17.4601 23.4143 17.4231 23.2339 17.5434 22.7402C17.7377 21.9901 17.9783 21.9522 18.6075 21.9806C19.2367 22.0186 20.3933 23.1674 20.3933 23.1674C20.3933 23.1674 20.162 23.2529 19.6531 23.4902C19.1442 23.7276 18.6723 24.2593 18.5427 24.9144C18.4224 25.5695 18.7 26.6423 19.5606 26.7942C20.4211 26.9461 20.8467 26.348 20.9023 25.8448C20.9578 25.3416 20.6432 25.1517 20.6432 25.1517C20.6432 25.1517 20.6432 25.2657 20.5969 25.4745C20.5506 25.6834 20.1065 26.2815 19.5328 25.7594C18.9591 25.2372 19.3847 24.4586 20.4026 23.946C21.4204 23.4238 22.7529 23.4333 23.4839 22.7971C24.2149 22.1705 23.9743 21.2686 23.9743 21.2686C23.9743 21.2686 24.3167 21.2306 24.6776 21.0787C25.0384 20.9173 25.899 20.5945 25.9915 19.4552C26.084 18.3443 25.3993 17.4139 24.9459 16.8632ZM17.8302 20.9932C17.3398 21.3635 17.0992 21.5724 16.3867 23.2149C16.3867 23.2149 15.776 21.5534 15.1745 21.1831C14.5731 20.8128 14.4991 20.6894 13.2406 20.8413C13.2406 20.8413 13.8051 20.6704 14.2585 20.2812C14.7119 19.8919 16.2294 18.05 16.3405 17.8601C16.3405 17.8601 16.3404 17.7652 16.4237 17.8601C16.507 17.9551 17.7562 19.683 18.1633 20.0248C18.5705 20.3571 18.9313 20.7179 19.6531 20.9363C19.6531 20.9268 18.3206 20.623 17.8302 20.9932ZM24.0113 18.6197C23.817 19.3697 23.086 19.2463 22.7992 19.2273C22.7992 19.2273 23.3173 18.3443 23.0583 17.8411C22.7899 17.3379 21.9109 16.7303 21.5315 17.4709C21.5315 17.4709 22.281 17.262 22.3828 17.8127C22.4846 18.3633 22.0404 18.952 21.1891 19.0184C21.1891 19.0184 22.5216 19.5026 21.9941 20.49C21.9941 20.49 21.5592 21.0502 20.8838 21.0692C20.8838 21.0692 21.4945 20.8034 21.3742 20.3381C21.2446 19.8729 21.0596 19.9584 20.7172 19.8824C20.3748 19.8065 19.5143 19.4647 18.9684 18.9994C18.4224 18.5342 17.3213 17.3379 17.1825 16.1702C17.0437 15.0024 17.0529 14.7745 17.201 14.1004C17.201 14.1004 17.4786 14.0529 17.821 14.1859C18.1633 14.3188 18.6908 14.689 18.626 15.5435C18.5612 16.398 18.2003 16.7968 18.2003 16.7968C18.2003 16.7968 18.08 17.0816 18.2651 17.2335C18.4502 17.3759 18.8296 17.6608 19.283 17.4709C19.7364 17.281 20.0972 16.2461 19.9399 15.3347C19.7919 14.4232 19.2922 13.7586 19.0424 13.5592C18.8018 13.3693 18.2003 12.9516 17.09 12.9706C17.09 12.9706 16.9789 12.6668 17.7932 12.5813C18.6075 12.4959 20.5136 12.4294 20.5136 12.4294C20.5136 12.4294 20.7265 12.344 20.7265 12.0212C20.7265 11.6984 20.5136 11.48 20.5136 11.48C20.5136 11.48 18.8573 11.2521 17.9875 11.2616C17.1177 11.2711 13.0741 11.2426 13.0741 11.2426C13.0741 11.2426 12.4449 11.2616 12.2228 11.6509C12.0192 12.0496 12.3061 12.306 12.704 12.4009C13.1018 12.4959 14.351 12.6003 14.9802 12.6383C15.6002 12.6763 15.8038 12.8946 15.7668 12.9611C15.7668 12.9611 15.2486 12.9516 14.6564 13.094C14.0642 13.2364 13.1481 13.8536 13.0001 14.4517C12.852 15.0498 12.6484 16.1607 12.852 16.7873C13.0556 17.4044 13.9069 17.7652 14.4065 17.243C14.4065 17.243 14.5638 17.1671 14.4713 16.7683C14.4713 16.7683 14.2215 16.3316 14.1752 15.9233C14.1289 15.515 13.8884 14.9834 14.4713 14.4802C15.0543 13.977 15.3966 14.0339 15.6002 14.0434C15.6002 14.0434 15.6742 13.9675 15.6835 14.2998C15.6927 14.6416 15.628 16.5594 15.1098 17.281C14.5916 18.0025 13.9994 19.3128 12.2783 19.8065C12.2783 19.8065 11.5658 19.9014 11.4918 20.3476C11.4178 20.7939 11.9452 21.0122 12.2968 20.9932L12.3801 21.0407C12.3801 21.0407 12.0747 21.1736 11.5288 21.1072C10.9829 21.0407 10.4184 20.3761 10.8533 19.8065C11.279 19.2463 11.8342 19.0944 11.8342 19.0944C11.8342 19.0944 10.585 18.838 10.4924 18.2779C10.3999 17.7177 10.8441 17.4709 11.2327 17.5183C11.2327 17.5183 10.7793 16.9582 10.1963 17.3664C9.61339 17.7747 9.64115 18.838 10.1778 19.3982C10.1778 19.3982 9.50235 19.74 9.01193 19.1419C8.52152 18.5437 9.15998 17.5088 9.52086 17.1765C9.88173 16.8442 10.5295 16.455 10.5572 16.1607C10.585 15.8758 10.6035 15.6575 10.5757 15.4296C10.5572 15.2017 10.7423 14.8505 11.0014 14.6321C11.2605 14.4137 11.6306 14.1289 11.7231 13.9865C11.8249 13.8441 11.7971 13.7016 11.7694 13.5497C11.7416 13.3978 11.5103 12.8662 11.6398 12.5339C11.7694 12.2016 11.8249 12.1066 11.9359 12.0402C12.047 11.9642 12.047 11.8693 11.8897 11.8028C11.7416 11.7363 11.1957 11.7458 10.9366 12.0876C10.6775 12.4199 10.6127 12.7142 11.0014 13.2364C11.0014 13.2364 10.6035 13.4073 10.3814 13.0181C10.1686 12.6288 10.1778 12.0876 10.8441 11.5939C11.5103 11.1002 12.2135 10.8913 13.2499 10.9008C14.2862 10.9103 14.9062 10.9388 14.9895 10.578C15.0728 10.2173 14.6841 9.85647 14.3048 9.66659C14.3048 9.66659 14.8599 9.77102 15.2208 9.38176C15.2208 9.38176 15.2948 9.33429 15.2856 9.40075C15.2763 9.46721 15.0728 9.78052 15.1745 10.1983C15.2856 10.6255 15.6742 11.1572 16.4052 11.0812C17.1362 11.0053 17.2935 10.597 17.4046 10.1698C17.5156 9.74254 17.275 9.41024 17.275 9.41024C17.275 9.41024 17.2658 9.28682 17.3583 9.32479C17.4508 9.36277 17.5619 9.56215 18.08 9.6476C18.08 9.6476 18.2559 9.75204 18.0615 9.88496C17.8672 10.0179 17.3305 10.2647 17.6359 10.6635C17.932 11.0622 18.7278 10.8913 19.1442 10.9198C19.5606 10.9483 20.893 10.8724 21.6703 11.3281C22.4568 11.7838 23.4469 13.056 21.8831 13.4453C21.8831 13.4453 22.4568 12.4674 21.7721 11.9547C21.3834 11.6604 21.1614 11.7458 20.9485 11.8503C21.0596 11.9452 21.8091 12.7522 21.1799 13.4453C21.0688 13.5687 20.856 13.6542 20.9023 13.8536C20.9485 14.0529 21.3557 14.3093 21.6703 14.5276C21.9756 14.746 22.2995 15.0119 22.3273 15.4771C22.355 15.9423 22.281 16.2936 22.8824 16.7968C23.5117 17.3095 24.2056 17.8696 24.0113 18.6197Z" fill="#1C1C1C"/>
</svg>
