<svg width="32" height="32" viewBox="0 0 32 32" fill="none" xmlns="http://www.w3.org/2000/svg">
<path d="M15.3096 11.6362C15.1769 11.7026 15.0537 11.7784 14.921 11.8258C14.6082 11.949 14.2859 12.0343 13.9446 12.0249C13.8403 12.0249 13.736 12.0059 13.6412 11.9585C13.3474 11.8068 13.063 11.6267 12.8544 11.3613C12.8355 11.3328 12.807 11.3044 12.7881 11.276C12.6364 11.0674 12.6364 10.9347 12.8165 10.7451C13.0061 10.546 13.2241 10.4039 13.4991 10.3375C13.9067 10.2427 14.3143 10.1384 14.703 10.0152C14.902 9.94884 15.0727 9.8256 15.2528 9.72133C15.2812 9.70237 15.3096 9.65497 15.3096 9.61705C15.2717 9.18099 15.2433 8.73545 15.1959 8.29939C15.158 7.93917 15.1011 7.57895 15.0158 7.2282C14.9684 7.01965 14.8641 6.82058 14.7788 6.62151C14.7504 6.55516 14.7598 6.51724 14.7977 6.46984C14.902 6.31817 15.0537 6.27077 15.2243 6.29921C15.6035 6.37505 15.9732 6.46984 16.3524 6.56464C16.4188 6.5836 16.4756 6.61203 16.542 6.64995C16.6747 6.72579 16.6842 6.8111 16.6557 6.96278C16.6273 7.10497 16.6273 7.26612 16.6368 7.4178C16.6652 8.08136 16.779 8.72597 16.9496 9.38006C16.9686 9.38006 16.997 9.38006 17.016 9.38006C17.215 9.31371 17.4236 9.24735 17.6227 9.19047C17.6795 9.17151 17.708 9.15255 17.708 9.0862C17.6985 8.19512 17.689 7.30404 17.6701 6.40348C17.6606 6.01482 17.6227 5.61668 17.6132 5.22802C17.6132 5.04791 17.6321 4.8678 17.6606 4.68769C17.689 4.47914 17.8028 4.29902 17.945 4.13787C18.0872 3.9862 18.2673 3.95776 18.4569 4.06204C18.8076 4.27059 19.1583 4.47914 19.4901 4.71612C19.803 4.94363 20.0305 5.25646 20.2106 5.59772C20.3054 5.77783 20.258 5.98638 20.1916 6.17597C20.0779 6.49828 19.9451 6.82058 19.8598 7.15237C19.7461 7.56947 19.6513 8.00553 19.6513 8.44159C19.6513 8.55534 19.7082 8.6691 19.7461 8.78285C19.7745 8.85869 19.8409 8.87765 19.9357 8.85869C20.2201 8.79233 20.5139 8.71649 20.7983 8.68806C21.4524 8.63118 21.9927 8.88713 22.4383 9.35162C22.571 9.49382 22.6847 9.65497 22.808 9.80664C22.8933 9.91092 22.9217 10.0152 22.8838 10.1479C22.8459 10.2996 22.8174 10.4513 22.7701 10.5934C22.6942 10.8399 22.4857 10.9726 22.3056 11.1243C21.6704 11.6646 21.0637 12.2334 20.6087 12.9349C20.4381 13.1908 20.1821 13.371 19.9167 13.5131C19.8503 13.5511 19.8124 13.5985 19.803 13.6743C19.765 13.9587 19.7271 14.2431 19.6892 14.518C19.6892 14.5369 19.6892 14.5559 19.6892 14.5938C19.803 14.5654 19.9072 14.5369 20.002 14.5085C21.0258 14.2052 22.0591 13.9113 23.0829 13.5985C23.3483 13.5131 23.6043 13.5226 23.8602 13.6174C24.3911 13.807 24.865 14.0819 25.2727 14.4611C25.557 14.7265 25.8319 14.992 26.1069 15.2669C26.249 15.4091 26.3628 15.5892 26.4102 15.7977C26.4292 15.8925 26.4386 15.9873 26.3438 16.0726C24.9219 17.286 23.6801 18.6605 22.6279 20.2057C22.2487 20.7555 21.8695 21.3053 21.4808 21.8457C21.405 21.9499 21.3102 22.0353 21.2344 22.1301C21.1206 22.2817 20.9595 22.3196 20.7793 22.3386C20.5044 22.3765 20.2485 22.3102 20.002 22.149C20.021 22.3007 20.0494 22.4429 20.0589 22.5756C20.0873 22.86 20.1158 23.1444 20.1442 23.4288C20.1727 23.77 20.2201 24.1018 20.2295 24.4431C20.239 24.718 20.2011 24.9929 20.1727 25.2583C20.1253 25.628 20.0873 26.0072 20.021 26.3769C19.9357 26.8698 19.7556 27.3438 19.5565 27.7988C19.5091 27.9031 19.2816 28.0169 19.1678 27.9979C19.0635 27.9789 18.9593 27.8557 18.9403 27.7135C18.855 27.1163 18.7792 26.5191 18.7033 25.9219C18.6749 25.7133 18.618 25.5048 18.599 25.2962C18.5611 24.936 18.5422 24.5853 18.5327 24.225C18.5137 23.2486 18.5043 22.2628 18.4948 21.2864C18.4948 21.2485 18.4663 21.1916 18.4284 21.1631C18.0398 20.8977 17.6511 20.6323 17.2624 20.3763C17.016 20.2152 16.76 20.1488 16.5704 20.1678C16.5609 20.2721 16.5515 20.3858 16.542 20.4996C16.5135 21.0778 16.4756 21.6561 16.4472 22.2343C16.4188 22.8031 16.3998 23.3719 16.2102 23.9122C16.0775 24.2819 15.85 24.6042 15.5182 24.8222C15.4139 24.8886 15.1959 24.8507 15.1295 24.7464C14.921 24.4336 14.8262 24.0734 14.7693 23.7131C14.7219 23.4288 14.684 23.1349 14.6935 22.8505C14.703 22.405 14.7504 21.9689 14.7693 21.5234C14.7977 20.746 14.8167 19.9687 14.8262 19.1914C14.8262 18.9828 14.7788 18.7648 14.7504 18.5468C14.7409 18.5089 14.7219 18.4615 14.703 18.4236C14.6271 18.2624 14.6176 18.2624 14.466 18.3382C13.9162 18.6321 13.3758 18.9354 12.8165 19.2198C12.7028 19.2767 12.5321 19.2767 12.4089 19.2483C11.9539 19.1345 11.5747 18.8786 11.2903 18.5278C11.0154 18.1866 10.9965 17.7505 11.1102 17.3239C11.1197 17.286 11.1671 17.2576 11.1955 17.2386C11.423 17.1343 11.6505 17.0301 11.878 16.9258C12.1435 16.812 12.3615 16.6319 12.5321 16.3949C12.8734 15.9399 13.2241 15.5039 13.5844 15.0583C13.6318 15.0014 13.6318 14.9635 13.5938 14.9066C13.4991 14.736 13.3569 14.6412 13.1767 14.5749C12.8829 14.4611 12.8734 14.4042 13.044 14.1483C13.1199 14.044 13.2052 13.9682 13.3189 13.9113C13.9067 13.6174 14.4944 13.3236 15.0727 13.0202C15.2243 12.9444 15.3191 12.7832 15.3381 12.6221C15.3665 12.3092 15.357 11.9964 15.357 11.6836C15.3191 11.6646 15.3096 11.6552 15.3096 11.6362ZM19.7745 18.6985C19.7745 18.8122 19.7745 18.926 19.7745 19.0397C19.7745 19.1535 19.7745 19.2672 19.765 19.3905C19.7556 19.5232 19.7935 19.6464 19.8598 19.7602C20.0399 20.073 20.2106 20.1014 20.4476 19.836C20.7035 19.5516 20.9405 19.2483 21.1775 18.9544C21.5851 18.4236 22.0022 17.8927 22.3909 17.3429C22.6563 16.9732 22.8838 16.575 22.9881 16.1295C23.007 16.0537 22.9976 16.0157 22.9122 15.9873C22.6373 15.883 22.353 15.8641 22.0686 15.9304C21.405 16.0726 20.7509 16.2148 20.0873 16.3475C20.0115 16.3665 19.9831 16.4044 19.9736 16.4802C19.8314 17.2007 19.803 17.9496 19.7745 18.6985ZM16.5325 19.6085C17.1487 19.6085 17.7554 19.6085 18.3621 19.6085C18.5422 18.6226 18.4758 17.6368 18.381 16.6319C18.2578 16.6888 18.1535 16.7362 18.0398 16.7836C17.5563 16.9827 17.0823 17.1723 16.5989 17.3713C16.5325 17.3998 16.5135 17.4377 16.5135 17.504C16.523 17.9117 16.523 18.3193 16.5325 18.7269C16.5325 19.0208 16.5325 19.3146 16.5325 19.6085ZM16.5041 11.9775C16.5135 11.9775 16.5135 11.9775 16.5135 11.9775C16.523 12.1386 16.5325 12.2903 16.542 12.4514C16.5515 12.6031 16.7505 12.7358 16.8927 12.6884C17.1013 12.6221 17.3098 12.5462 17.5184 12.4988C17.7364 12.4514 17.8407 12.3377 17.9165 12.1197C18.0303 11.8068 18.1251 11.494 18.0492 11.1622C18.0303 11.0579 18.0113 10.9347 17.9544 10.8494C17.8596 10.6977 17.689 10.6314 17.5279 10.5745C17.5089 10.565 17.4805 10.565 17.4615 10.5745C17.1771 10.7262 16.9022 10.8778 16.6178 11.0295C16.5894 11.0485 16.5704 11.0864 16.5704 11.1148C16.5609 11.4182 16.5325 11.6931 16.5041 11.9775ZM16.4946 15.2763C16.4851 15.3996 16.4756 15.5228 16.6368 15.5418C16.6463 15.5418 16.6557 15.5607 16.6652 15.5607C16.7031 15.5702 16.76 15.5892 16.7979 15.5797C17.2245 15.428 17.6511 15.2763 18.0777 15.1247C18.1061 15.1152 18.1346 15.0868 18.1346 15.0583C18.1535 14.8877 18.1725 14.717 18.1725 14.5559C18.1725 14.3853 18.0492 14.2999 17.8881 14.3568C17.7743 14.3947 17.6606 14.4421 17.5468 14.499C17.2624 14.6412 16.978 14.8024 16.6842 14.9161C16.5041 14.9825 16.4946 15.0962 16.4946 15.2384C16.4946 15.2479 16.4946 15.2574 16.4946 15.2763ZM19.5754 11.0674C19.5754 11.1338 19.5754 11.2096 19.5849 11.276C19.6134 11.4656 19.7556 11.5319 19.9072 11.4371C20.2864 11.2001 20.4665 10.8589 20.476 10.4133C20.4855 10.2522 20.4096 10.1289 20.2674 10.0721C20.1347 10.0152 20.021 10.091 19.9357 10.1953C19.7176 10.4323 19.5565 10.7072 19.5754 11.0674ZM15.0916 15.447C14.8831 15.5228 14.684 15.6081 14.4849 15.646C14.2669 15.6934 14.1437 15.7977 14.1247 16.0252C14.1152 16.12 14.0868 16.2148 14.1057 16.3001C14.1437 16.4802 14.2669 16.5276 14.4186 16.4423C14.5039 16.3949 14.5987 16.357 14.684 16.2907C14.7788 16.2243 14.8831 16.1579 14.9589 16.0726C15.1295 15.8925 15.1864 15.6745 15.0916 15.447Z" fill="#1C1C1C"/>
<path d="M8.47491 24.5284C8.51283 24.2155 8.55075 23.9311 8.56971 23.6373C8.58867 23.3529 8.58867 23.059 8.58867 22.7652C8.57919 22.2817 8.54127 21.8077 8.54127 21.3243C8.54127 20.983 8.57919 20.6417 8.60762 20.31C8.64554 19.7886 8.6645 19.2767 8.58867 18.7553C8.55075 18.4804 8.56023 18.2055 8.55075 17.9306C8.54127 17.6652 8.52231 17.3997 8.51283 17.1438C8.51283 17.1248 8.51283 17.1154 8.51283 17.0964C8.47491 16.8973 8.36116 16.8594 8.20948 16.9921C7.9251 17.2481 7.65967 17.5135 7.3658 17.76C7.14777 17.9496 6.90131 18.1202 6.66432 18.2908C6.64536 18.3098 6.61692 18.3193 6.58848 18.3193C6.27566 18.3477 5.98179 18.0917 6.00075 17.7789C6.00075 17.6557 6.02919 17.523 6.0671 17.3997C6.59796 15.9494 7.23309 14.5559 7.93458 13.1813C7.97249 13.1055 7.97249 13.0107 7.98197 12.9254C8.00093 12.6694 8.11469 12.4704 8.31376 12.3187C8.33272 12.2997 8.36116 12.2808 8.37064 12.2618C8.52231 12.0248 8.68346 11.7973 8.81617 11.5603C9.0816 11.0864 9.34703 10.6029 9.60298 10.1194C9.80205 9.74026 10.0106 9.36108 10.1907 8.97242C10.2855 8.76387 10.4372 8.63115 10.6268 8.52688C11.0059 8.31833 11.1861 8.32781 11.4799 8.65011C11.6411 8.83022 11.7738 9.04825 11.8781 9.2568C12.0203 9.53171 12.153 9.82558 12.2573 10.1194C12.39 10.4891 12.4563 10.8778 12.3805 11.2665C12.3236 11.5793 12.153 11.8542 11.9729 12.1101C11.6885 12.5272 11.3851 12.9349 11.1007 13.352C10.9112 13.6174 10.7121 13.8828 10.5509 14.1672C10.4751 14.2904 10.4751 14.4516 10.4561 14.6033C10.3424 15.4754 10.3993 16.3475 10.3898 17.2196C10.3803 18.0728 10.3424 18.9165 10.3329 19.7696C10.3234 20.2815 10.3613 20.7839 10.4941 21.2864C10.5509 21.4759 10.6078 21.6561 10.7595 21.7982C10.7784 21.8172 10.7784 21.8551 10.7784 21.8836C10.75 22.3386 10.6931 22.7841 10.5415 23.2107C10.513 23.2865 10.5035 23.3624 10.5035 23.4382C10.4846 23.9596 10.4467 24.4715 10.3045 24.9644C10.2002 25.3246 10.0011 25.628 9.68829 25.8555C9.61246 25.9124 9.56506 25.9124 9.48922 25.8555C9.09108 25.5901 8.79722 25.2298 8.54127 24.8317C8.48439 24.7653 8.49387 24.6232 8.47491 24.5284Z" fill="#1C1C1C"/>
</svg>
