<svg width="32" height="32" viewBox="0 0 32 32" fill="none" xmlns="http://www.w3.org/2000/svg">
<path fill-rule="evenodd" clip-rule="evenodd" d="M25.8782 15.7722C25.8307 15.4687 25.5272 15.6679 25.5272 15.6679C25.5272 15.6679 24.5501 16.5406 23.2505 17.6884C22.4347 18.4093 21.1731 19.0734 20.215 19.3864C19.6363 19.5761 19.0956 19.633 18.8016 19.7564C18.6024 19.8417 18.5834 20.2117 18.5834 20.2117C18.5834 20.2117 18.5834 22.3176 18.3273 23.8259C18.0522 25.4101 17.3881 26.2733 16.7905 26.5674L16.1929 26.5484C16.1929 26.5484 16.1929 26.5484 16.1929 26.5579C15.5289 26.4251 14.8459 25.1445 14.5233 23.6077C14.3336 22.735 14.3336 20.6765 14.4095 19.8038C14.4285 19.6141 14.2957 19.5192 14.2957 19.5192C14.2957 19.5192 12.4364 19.1682 10.302 18.1058C9.40086 17.6599 8.33842 16.6639 7.84515 16.237C7.61748 16.0283 7.3993 16.0663 7.23804 16.0378C6.97243 15.9999 7.00089 16.256 7.00089 16.256C7.00089 16.256 7.87361 17.5082 8.49969 19.32C8.72735 19.984 8.93605 21.8718 9.19217 22.9057C9.59058 24.5468 10.1503 25.0591 10.1503 25.0591C10.1503 25.0591 10.2072 24.1484 10.2356 23.5129C10.3115 21.8433 11.1937 20.6006 11.1937 20.6006C11.1937 20.6006 11.4783 20.1358 11.8483 20.5342C12.2182 20.9421 12.3036 21.7105 12.3036 21.7105C12.3036 21.7105 12.4554 21.0654 12.5882 20.705C12.7115 20.3824 12.8728 20.1832 12.8728 20.1832C12.8728 20.1832 13.2712 20.0125 13.3471 20.316C13.423 20.6196 13.2048 20.5817 13.0909 21.056C12.9297 21.701 12.8158 22.3556 13.0056 22.7065C13.2048 23.0765 12.7494 23.2472 12.5502 23.1429C11.9811 22.8488 11.3076 22.1374 11.3076 22.1374C10.7005 23.3421 10.9376 24.6512 11.5732 25.3816C12.4459 26.3871 13.9352 26.5769 13.9352 26.5769C13.2807 25.4954 12.8443 24.9453 13.0909 24.8409C13.2807 24.7555 13.5273 24.9927 13.5273 24.9927C14.6277 27.6108 16.3067 27.6678 16.3067 27.6678V27.6583C16.3162 27.6772 16.3162 27.6867 16.3257 27.6867C16.5723 27.7436 16.8285 27.6867 16.8285 27.6867C16.8285 27.6867 17.5494 27.6393 18.2419 26.814C18.7636 26.1974 19.0387 25.3721 19.4561 24.9642C19.6458 24.7745 19.9019 24.784 19.8261 25.0686C19.7691 25.2867 19.4561 25.7231 18.9628 26.5484C18.9628 26.5484 19.883 26.4535 20.6988 25.8749C21.7422 25.1255 22.6719 23.731 22.0268 22.3271C22.0268 22.3271 19.5415 24.1864 19.7691 22.5263C19.864 21.8243 19.6269 20.999 19.7312 20.705C19.7881 20.5437 20.177 20.373 20.234 21.0275C20.2624 21.3975 20.4521 21.8148 20.4521 21.8148C20.4521 21.8148 20.5944 21.35 20.8221 20.9896C21.0213 20.6765 21.3249 20.4678 21.3249 20.4678C21.3249 20.4678 22.3399 19.9081 22.5391 21.6441C22.7383 23.3042 22.8426 25.0117 22.8426 25.0117C22.8426 25.0117 23.8482 20.4868 24.5976 18.9026C25.0244 17.992 25.1003 17.6505 25.5936 17.0339C25.7264 16.8441 25.9256 16.0568 25.8782 15.7722Z" fill="#1C1C1C"/>
<path fill-rule="evenodd" clip-rule="evenodd" d="M16.3922 21.2931C15.4341 21.3026 14.8744 22.0046 14.8744 22.8394C14.8744 23.6741 15.6333 24.471 16.4586 24.471C17.2839 24.471 17.853 23.8354 17.8435 22.8868C17.8435 22.0046 17.3408 21.2836 16.3922 21.2931Z" fill="#1C1C1C"/>
<path fill-rule="evenodd" clip-rule="evenodd" d="M22.9944 14.5675C22.7193 14.6244 22.9849 15.241 21.6095 16.3034C20.9834 16.7872 20.4522 16.9675 20.0917 17.0244C19.5415 17.1098 19.6553 16.607 19.6553 16.607C19.7881 16.3793 19.9589 16.3604 20.1296 16.256C21.7612 15.2789 21.7612 13.4102 21.7612 13.4102C21.7423 12.4047 21.3439 11.4086 21.3439 11.4086C21.1447 10.8205 21.2111 10.1944 21.9984 9.36912C20.5565 9.33117 20.0917 10.2229 19.8071 11.9968C19.5225 13.7991 18.5644 14.0078 17.7676 13.8276C17.3123 13.7232 17.3787 12.9738 17.4451 12.3667C17.483 12.0062 17.4261 11.5414 17.4261 11.5414C17.3407 10.8869 17.0562 10.4505 16.468 9.34066C15.9368 8.33514 16.1834 6.75096 16.6198 5.55572C16.8949 4.79683 17.0182 4 17.0182 4C17.0182 4 15.9083 4.49328 14.8269 6.21974C13.6317 8.12644 13.9447 9.9288 14.2388 11.2948C14.789 13.8086 13.4325 13.856 13.4325 13.856C13.4325 13.856 12.7779 13.9129 12.759 13.0782C12.7495 12.5185 12.8633 12.1201 13.2617 10.7067C13.4135 10.1659 13.1858 9.13197 12.8918 8.61972C12.5028 7.92723 12.0001 7.8134 12.0001 7.8134C12.0475 10.7351 9.8752 10.2229 9.72342 13.6473C9.57164 17.0718 13.7171 18.988 15.5668 19.1493C17.5589 19.32 18.7636 19.2441 20.4522 18.5422C23.3359 17.3279 23.279 15.6489 23.279 15.6489C23.2885 15.1746 23.1936 14.5295 22.9944 14.5675Z" fill="#1C1C1C"/>
<path fill-rule="evenodd" clip-rule="evenodd" d="M19.864 5.74542C19.864 5.74542 17.6158 6.46636 17.5399 8.85685C17.483 10.6497 19.4466 10.4885 19.7122 9.74855C20.0158 8.90428 19.5604 8.75251 19.3612 8.26872C19.2095 7.88928 19.2189 6.75095 19.864 5.74542Z" fill="#1C1C1C"/>
</svg>
