<svg width="32" height="32" viewBox="0 0 32 32" fill="none" xmlns="http://www.w3.org/2000/svg">
<path d="M16.3122 24.3897C17.3142 25.0973 18.5898 25.1992 19.5871 24.6451C20.6238 24.0695 20.9379 23.0201 21 22.7935C20.8005 22.7539 20.4936 22.6951 20.1174 22.6364C18.9648 22.4565 18.8765 22.5404 18.4453 22.3965C18.2064 22.3174 17.2748 22.0115 16.9344 21.1553C16.8151 20.8417 16.7813 20.5018 16.8365 20.1707C16.6756 20.4452 16.593 20.7588 16.5976 21.0773C16.6119 21.4932 16.7717 21.8907 17.0491 22.1998L15.8918 21.96C14.2006 21.6134 13.5234 21.4803 12.5572 21.31L12.1989 21.25L12.2383 20.7187C12.0364 20.6564 11.6578 20.54 11.1789 20.4033C9.38737 19.8912 8.77944 19.8277 8.11897 19.2808C7.84329 19.0503 7.60513 18.778 7.41311 18.4737L7.099 18.8479L4.27437 18C4.25438 18.5641 4.36862 19.1249 4.60759 19.6358C4.22898 19.5504 3.88607 19.3492 3.62616 19.0598C3.36625 18.7705 3.20214 18.4073 3.15646 18.0204C3.05571 18.5926 3.00337 19.1723 3 19.7533C3 20.0004 3.00597 20.233 3.01911 20.4621C5.59094 20.8155 8.2392 21.2292 10.9639 21.7033C13.8518 22.2094 16.6386 22.7543 19.3243 23.3379C19.0009 23.8164 18.5318 24.1768 17.9873 24.3651C17.4427 24.5535 16.8521 24.5595 16.3038 24.3825L16.3122 24.3897Z" fill="black"/>
<path d="M16 22C14.4765 21.5119 13.279 21.0347 12.5454 20.8151C10.5245 20.2159 9.83821 19.8388 8.68784 19.0492C8.18021 18.7013 7.75347 18.2361 7.43959 17.6885C7.36474 17.7972 7.38777 17.9582 7.32444 18.1694C7.29632 18.2677 7.27704 18.3686 7.26687 18.4708C6.9183 18.4427 6.572 18.3888 6.2305 18.3097C5.18376 18.04 4.51243 17.5238 4 17.1077C4.13358 16.5365 4.21418 15.9972 4.50897 15.2857C4.84203 14.4777 5.25834 13.7111 5.75031 13C5.64207 13.1928 5.09049 14.2118 5.44746 15.3052C5.5593 15.6801 5.76935 16.0136 6.05316 16.2668C6.41742 16.5761 6.87283 16.7394 7.33941 16.7281C7.31051 16.4932 7.33481 16.2543 7.4103 16.0313C7.48579 15.8083 7.6103 15.6075 7.77353 15.4456C7.88178 15.8519 8.09941 16.6866 8.56808 17.2126C8.86038 17.5564 9.19777 17.854 9.56991 18.0961C10.2666 18.4622 11.2074 19.0248 12.7665 19.8974C12.6974 20.0902 12.6283 20.1622 12.5581 20.3562L16 22Z" fill="black"/>
<path d="M16 21C15.4965 20.8578 15.0235 20.6305 14.6035 20.3288C14.3863 20.1723 14.1843 19.9973 14 19.8061C14.1025 19.6515 14.2274 19.5116 14.371 19.3908C14.5909 19.2073 14.8512 19.0737 15.1325 19C14.9555 19.1364 14.8354 19.3292 14.7941 19.5432C14.736 19.9077 14.9715 20.1959 15.1437 20.4069C15.367 20.6761 15.6633 20.8813 16 21Z" fill="black"/>
<path d="M19.9931 20.254C19.9081 20.4274 19.8379 20.6078 19.7833 20.7933C19.6205 21.3485 19.7122 21.5701 19.5602 21.7588C19.33 22.0437 18.6825 22.0875 18.3425 21.8294C17.4467 21.1525 18.5836 18.2986 18.65 18.1245C18.9791 17.3124 19.6712 15.6043 21.423 14.6193C21.7847 14.4172 23.0278 13.7147 24.5855 13.795C25.2486 13.8303 25.8081 13.9984 26.6147 13.767C27.1261 13.6158 27.5988 13.3541 28 13C27.5866 13.4841 27.0633 13.8601 26.4748 14.0958C25.6803 14.4038 25.2173 14.254 24.5288 14.5925C24.1515 14.7788 23.627 15.1501 23.158 15.9841C23.2912 15.9937 23.4248 15.9742 23.5498 15.9269C23.7567 15.8459 23.9296 15.6954 24.0393 15.5008C23.7923 15.9951 23.4496 16.4344 23.0314 16.7926C22.2899 17.422 21.7558 17.3891 20.3029 18.1318C18.9948 18.7978 18.744 19.1716 18.6512 19.325C18.2521 19.9873 18.1243 20.9893 18.539 21.3266C18.6293 21.397 18.7365 21.442 18.8496 21.457C18.9627 21.472 19.0777 21.4564 19.1829 21.4118C19.383 21.3083 19.389 21.094 19.6446 20.702C19.7468 20.5421 19.8635 20.3921 19.9931 20.254Z" fill="black"/>
<path d="M28.2339 9.4134C27.4709 9.65936 27.4056 10.3384 26.4166 10.7468C25.89 10.9645 25.4217 10.9715 25.0011 10.9821C24.061 10.9974 23.7488 10.7468 23.03 10.6538C21.632 10.482 20.4321 11.161 20.0652 11.3681C19.464 11.7094 19.1635 12.0413 17.635 12.9922C17.3123 13.1934 16.8941 13.4465 16.6203 13.2817C16.3873 13.1416 16.3256 12.7333 16.3873 12.432C16.4805 12.006 16.7869 11.9613 17.0572 11.4905C17.3275 11.0198 17.4253 10.3513 17.2098 10.196C17.0386 10.0713 16.6739 10.2807 15.8713 10.8915C14.5246 11.9154 14.2403 12.3273 13.3083 13.0557C12.0269 14.0608 11.2032 14.342 10.6289 14.468C9.64801 14.6821 9.25774 14.468 9.09814 14.3503C8.59254 13.9913 8.51566 13.3241 8.48537 13.0746C8.35489 11.9448 9.00378 11.041 9.55714 10.2713C9.87983 9.82411 10.333 9.34161 11.032 8.66374C11.2767 8.41898 11.5426 8.19684 11.8265 8C10.7186 8.50251 9.07601 9.49577 7.9355 11.2881C7.51495 11.9495 6.88703 12.9639 7.01751 14.2644C7.05234 14.6096 7.1359 14.9481 7.26565 15.2694C7.47139 14.5914 7.84746 13.9787 8.35722 13.4912C8.24072 14.0078 8.14054 14.9222 8.60536 15.7531C8.91408 16.3085 9.35909 16.5969 9.84605 16.9123L13.0788 19C13.3973 18.5967 13.7425 18.2157 14.1122 17.8596C14.9207 17.0794 15.7012 16.3297 16.3699 16.5251C16.3873 16.5251 16.8172 16.664 16.9058 17.0276C17.0001 17.4195 16.6844 17.7008 16.6565 17.7243C16.5633 17.799 16.4548 17.8516 16.3389 17.8783C16.2229 17.905 16.1026 17.905 15.9866 17.8785C16.1338 17.9956 16.303 18.0813 16.484 18.1303C17.2611 18.3363 17.9193 17.7408 17.9577 17.7043C18.3806 17.31 18.3829 16.8617 18.5507 16.3521C18.9456 15.1505 19.9661 14.4856 21.0193 13.8007C21.773 13.3088 22.7947 12.6438 24.1565 12.6027C24.8229 12.5815 25.1304 12.7203 25.7059 12.505C26.2814 12.2896 26.6274 11.9071 27.2949 11.1716C28.0685 10.3196 28.1512 9.99476 28.6533 9.78057C29.0824 9.6097 29.5544 9.58247 30 9.7029C29.1449 9.25687 28.5834 9.30042 28.2339 9.4134Z" fill="black"/>
<path d="M21.8644 10.0911C21.2058 9.9019 20.648 9.90556 19.8241 9.91044C19.4093 9.91044 19.0635 9.93242 18.8233 9.95073C18.876 9.81766 19.0729 9.28416 18.8233 8.90815C18.6545 8.653 18.3545 8.58707 18.1307 8.5419C17.9069 8.49673 17.6619 8.46011 17.4275 8.42592C16.4982 8.28797 15.5912 8.25745 14.6642 8.74334C14.2048 8.9875 13.7266 9.1926 13.2778 9.44531C12.9719 9.615 12.6918 9.77981 12.6039 9.68947C12.5161 9.59913 12.6368 9.29881 12.7211 9.14743C12.9825 8.67741 13.4829 8.52969 13.8931 8.32582C14.1622 8.19264 14.4427 8.08596 14.731 8.00718C14.3044 7.98394 13.8768 8.01717 13.4583 8.10607C12.9497 8.22015 12.4593 8.40881 12.0016 8.66642C11.4104 9.00908 10.8625 9.42696 10.3703 9.91044C9.72573 10.5526 9.08117 11.2057 9.00734 12.197C9.00031 12.2923 8.95929 12.9295 9.18664 13.4179C9.26434 13.5989 9.39047 13.7527 9.54994 13.861C10.1675 14.2627 11.1051 13.717 11.9946 13.1993C12.6654 12.7918 13.2904 12.3074 13.8579 11.7551C15.1658 10.5343 15.2642 10.0203 16.1291 9.71023C16.6599 9.521 17.5072 9.39526 17.8225 9.81033C17.9795 10.0167 17.9772 10.3206 17.9772 10.4317C17.9772 10.9982 17.6092 11.2704 17.7428 11.5305C17.8283 11.6953 18.0451 11.7282 18.1471 11.7502C18.5432 11.8369 18.8678 11.5244 19.1092 11.4291C19.9835 11.0873 20.3175 10.8102 20.7839 10.6271C21.2503 10.4439 21.9722 10.317 23 10.5953C22.644 10.3767 22.2623 10.2072 21.8644 10.0911Z" fill="black"/>
</svg>
