<svg width="32" height="32" viewBox="0 0 32 32" fill="none" xmlns="http://www.w3.org/2000/svg">
<path d="M8.04985 25C8.14209 23.2017 8.17323 22.4145 9.01714 21.3029C9.83364 22.1632 10.7475 22.8472 11.7802 23.2854C12.0069 23.3815 12.2387 23.4655 12.4756 23.5368C10.948 24.8706 10.2156 24.8939 8.04985 25ZM16.3161 12.96C16.046 13.1335 15.7933 13.3362 15.5681 13.5601C15.2039 13.9225 14.9167 14.3361 14.7541 14.7643L15.756 13.8168C15.9628 13.6215 16.1905 13.2244 16.3161 12.96ZM18.643 10.8446C18.2441 10.9074 17.9131 11.0003 17.6199 11.117C17.9361 11.2082 18.2199 11.2919 18.6406 11.4151C18.6415 11.2248 18.6423 11.0347 18.643 10.8446ZM20.9209 9.79603L21.2117 9.91618L21.4387 9.69812C21.1216 9.55177 20.7872 9.42225 20.4364 9.31073L20.9209 9.79603ZM19.8069 9.13467C19.2548 9.00032 18.6667 8.90798 18.0438 8.86202C18.4195 8.57606 19.2423 8.42415 19.8165 8.2955C18.8822 7.92597 17.2505 7.8765 15.9147 8.29301C15.8406 8.51342 15.6926 8.8591 15.5127 9.01774C15.2752 9.22702 15.054 9.41201 14.8579 9.5907C16.3702 8.9352 17.9908 8.88837 19.5786 9.31922L19.8069 9.13467ZM9.31661 9.06135C9.49824 10.2172 9.01744 12.0779 8.9258 12.3149C8.83401 12.5516 8.71303 12.824 8.31428 13.7984C7.91539 14.7728 7.94728 16.6468 8.21546 17.2376C7.56531 16.7905 6.76407 16.5375 6.00012 16.8074C7.28515 17.4482 8.01376 18.87 8.8671 19.9613C10.827 22.4682 13.2422 23.6395 16.3428 22.7961C17.8747 22.3795 20.1017 19.4738 18.7887 18.3556C16.5156 19.6097 14.0701 18.0038 13.974 15.5583C13.9041 13.777 15.8885 11.9689 17.8147 11.7375C17.0287 11.5074 16.7601 11.3882 15.7501 11.5453C16.6587 10.8942 17.3436 10.3794 18.8971 10.2285C18.9925 10.054 19.1467 9.93433 19.2995 9.81096C17.3552 9.31878 14.5138 9.38303 12.0479 12.5749C12.7822 10.9914 13.3121 10.353 15.1472 8.60489C15.6312 8.14374 15.5345 7.4676 15.474 7.00002C14.9577 7.82879 14.0135 8.27984 12.7265 8.83553C11.7506 9.25687 10.8656 9.95467 10.214 10.836C10.0506 10.1533 9.8883 9.5386 9.31661 9.06135ZM18.6114 22.1155C18.8437 22.0218 19.0732 21.9221 19.3014 21.816C18.6501 22.8501 17.0763 24.0029 14.2326 24.3676C17.2728 25.1499 20.1768 24.7057 22.0059 22.8516C21.8593 23.1032 21.7068 23.3706 21.5391 23.6088C23.7827 22.3417 26.703 18.6167 24.6107 15.0272C24.9641 15.3081 25.2598 15.6496 25.5103 16.1148C25.5268 14.4082 24.9969 12.8594 23.988 11.6329L23.397 12.2209L24.4899 13.2635L23.6744 14.2271C23.2751 14.699 23.0132 14.6999 22.5185 14.7015L21.8273 14.7042C21.8143 14.9301 21.7162 15.1401 21.5455 15.2935L21.5347 15.7876C21.5244 16.2596 21.248 16.7233 20.7678 16.8646L20.7679 16.8653C20.1893 17.0336 19.7165 17.3771 19.3026 17.7951C19.5935 18.0458 19.7797 18.3519 19.8777 18.6961C20.0365 19.2536 19.9403 19.8797 19.6798 20.4935C19.4308 21.08 19.0433 21.6425 18.6114 22.1155ZM14.7522 15.6791L16.2169 14.2942C16.5153 14.0119 16.9507 13.3071 17.1099 12.7842C17.1437 12.6728 17.2891 12.5743 17.4904 12.5701L18.4614 12.5497L18.5149 12.3855C18.5442 12.2954 18.5836 12.2822 18.6662 12.2818L19.2915 12.2789C19.3234 12.2787 19.3481 12.2515 19.3483 12.2218L19.3538 10.8777C19.3549 10.6147 19.3499 10.4798 19.5624 10.308L20.0032 9.95189L21.1131 11.0633L23.9498 8.3397L24.1272 7.66152C24.1966 7.39662 24.3879 7.40555 24.5983 7.58424L25.2778 8.16159L25.8685 8.82573C26.0512 9.03135 26.0605 9.21839 25.7894 9.28614L25.0956 9.45957L22.3088 12.2322L23.4461 13.3169L23.0816 13.7476C22.906 13.9554 22.7678 13.9506 22.4989 13.9516L21.1237 13.957C21.0933 13.957 21.0654 13.9813 21.0653 14.0125L21.0623 14.6237C21.0618 14.7045 21.0484 14.7429 20.9561 14.7716L20.7881 14.824L20.7673 15.773C20.763 15.9696 20.6621 16.1118 20.5483 16.1448C20.0133 16.3004 19.2921 16.726 19.0033 17.0177L18.2333 17.7957C17.3529 18.2227 16.4629 18.1684 15.6735 17.473C15.2199 17.0733 14.8953 16.5128 14.7836 15.8954C14.77 15.8205 14.7595 15.7484 14.7522 15.6791Z" fill="black"/>
</svg>
