<svg width="32" height="32" viewBox="0 0 32 32" fill="none" xmlns="http://www.w3.org/2000/svg">
<path fill-rule="evenodd" clip-rule="evenodd" d="M12.0242 23.1572L11.8146 22.7554L11.998 21.8908L12.8801 22.1004L12.8976 19.4105L12.5832 19.1834L12.6006 18.4061L12.164 17.9258L12.2076 16.7292L11.8321 16.4585L11.8496 14.7991L12.2688 14.4236L13.0024 15.0349L13.0635 14.5284L11.3779 12.4934L10.6705 11.9869L10.9238 9.82095L10.7491 9.62881L10.7666 8.1965L11.1247 7.94322L12.4871 7.12226L12.819 7.22706L11.9806 8.15283L11.9369 8.44977L12.4609 8.4061L15.3692 5.4192L15.2033 5.01746L13.736 5.03492L13.0897 5.58514L10.2338 7.35807L8.91506 7.77728L8.81025 8.17903L9.98056 8.34497L10.6094 9.01746L10.653 10.0044L9.87576 9.98689L9.35174 9.73361L8.91506 9.82095L7.97183 8.86898L7.78842 9.27073L7.84955 11L8.24257 11.2358L11.5701 15.2533L11.5526 17.3581L11.1771 17.3319L10.653 16.703L9.14213 13.9694L8.85392 13.8472L7.74475 13.8646L8.70545 15.6113L8.61811 16.2664L9.14213 17.5327L9.24693 18.7292L9.57881 18.9651L9.91069 20.0393V20.5458L9.68362 20.7554L9.35174 20.6943L8.97619 19.5415L8.61811 19.2707L8.0941 19.1048L8.05043 19.3144L8.13776 19.8821L8.63558 20.3188L8.88886 20.869V21.8384L9.22073 22.345L9.80589 23L9.89322 23.8384L10.0417 24.1965L12.0068 25.8472L12.6356 26.9825L12.95 27L13.0548 24.4498L13.1858 24.2227L12.4522 23.3843L12.0242 23.1572Z" fill="#1C1C1C"/>
<path fill-rule="evenodd" clip-rule="evenodd" d="M23.2556 19.2271L22.8975 19.4978L22.522 20.6507L22.1901 20.7118L21.963 20.5022V19.9956L22.2949 18.9214L22.6268 18.6856L22.7316 17.4891L23.2556 16.2314L23.1683 15.5764L24.129 13.8297L23.0198 13.8122L22.7229 13.9345L21.2207 16.6681L20.6967 17.2969L20.3211 17.3144L20.3036 15.2096L23.6224 11.1921L24.0242 10.9651L24.0853 9.23581L23.9019 8.83406L22.9587 9.77729L22.522 9.68996L21.998 9.94323L21.2207 9.9607L21.2643 8.9738L21.8932 8.30131L23.0635 8.13537L22.9587 7.73362L21.6399 7.31441L18.784 5.56769L18.1377 5.01747L16.6705 5L16.5045 5.40175L19.4128 8.38865L19.9368 8.43231L19.8932 8.13537L19.0547 7.20961L19.3866 7.1048L20.7491 7.92576L21.1071 8.17904L21.1246 9.61135L20.9587 9.80349L21.2119 11.9694L20.5045 12.476L18.8102 14.4934L18.8713 15L19.605 14.3886L20.0242 14.7642L20.0416 16.4236L19.6661 16.6943L19.7098 17.8908L19.2731 18.3712L19.2905 19.1485L18.9761 19.3755L18.9936 22.0655L19.867 21.8559L20.0504 22.7205L19.8408 23.1223L19.4215 23.3493L18.6879 24.1878L18.8102 24.4148L18.915 26.9563L19.2294 26.9389L19.8582 25.8035L21.8233 24.1179L21.9718 23.7598L22.0591 22.9214L22.6443 22.2664L22.9761 21.7598V20.7904L23.2294 20.2402L23.7272 19.7948L23.8058 19.2271L23.7622 19.0175L23.2556 19.2271Z" fill="#1C1C1C"/>
<path fill-rule="evenodd" clip-rule="evenodd" d="M20.7055 9.73364L20.688 8.79041L20.4871 8.66814L19.8321 9.32316L19.2731 9.27949L16.2513 6.36246L15.9369 6.31006L15.6225 6.38866L12.6006 9.30569L12.0417 9.34063L11.3867 8.6856L11.1858 8.80788L11.1683 9.75111L11.3255 10.048L11.2033 11.7511L11.7011 12.1092L13.3517 14.2053L13.3343 15.6725L13.1945 15.69L12.4609 15.0699L12.26 15.3144L12.3212 16.3799L12.5832 16.5371L12.5657 17.7948L12.9587 18.1965L12.9413 18.8952L13.4216 19.3144V22.0306L13.2469 22.5284L12.9063 22.4847L12.3736 22.3625L12.3561 22.5371L12.4609 22.8341L12.7579 22.9913L15.5613 26.3887L15.6924 26.7729L15.9544 26.8079L16.2164 26.7729L16.3561 26.3712L19.1421 22.9913L19.4303 22.8253L19.5613 22.5546L19.5089 22.3537L19.0024 22.4673L18.6618 22.5022L18.4784 22.0044V19.3057L18.9587 18.8865L18.9413 18.1878L19.343 17.786L19.3255 16.5284L19.5875 16.3712L19.6487 15.3057L19.4478 15.0699L18.7142 15.69L18.5744 15.6725L18.557 14.2053L20.2076 12.1005L20.7055 11.7424L20.5832 10.0393L20.7055 9.73364ZM17.1683 14.4673L16.4609 15.2358L16.426 21.393L15.9369 21.9345L15.4653 21.3843L15.474 15.2271L14.7229 14.5284V14.3188L14.8889 14.1529L16.9413 14.1703L17.1683 14.3013V14.4673ZM15.4129 12.5721L15.7884 11.8559L15.9369 11.7686L16.129 11.8734L16.5046 12.6507L16.3386 12.8166H15.5264L15.4129 12.5721ZM17.8845 12.8253L17.7011 13.0349H16.8976L17.0024 12.2402L15.998 10.9825L15.8583 10.9913L14.8539 12.3013V12.4673L15.1072 13.0786L14.2688 13.0612L13.998 12.869L13.8932 12.4498L15.4653 9.73364L15.8321 9.50657H16.0155L16.4172 9.71617L17.9631 12.4498L17.8845 12.8253Z" fill="#1C1C1C"/>
</svg>
