<svg width="32" height="32" viewBox="0 0 32 32" fill="none" xmlns="http://www.w3.org/2000/svg">
<path d="M26.323 18.1045C26.2794 18.3419 26.2468 18.5888 26.2032 18.8262C25.8329 20.5831 24.7654 21.9411 23.1207 22.9858C22.9791 23.0807 22.8266 23.1567 22.685 23.2422C22.6741 23.2517 22.6523 23.2517 22.6306 23.2517C22.6306 23.2327 22.6197 23.2232 22.6197 23.2042C22.7177 22.6914 22.3365 22.4729 21.8463 22.4255C21.3126 22.3685 20.8007 22.4444 20.2887 22.5584C19.9293 22.6439 19.5916 22.7578 19.2213 22.8243C18.3499 22.9763 17.5875 23.3466 16.8795 23.793C16.226 24.2013 15.6922 24.7141 15.3764 25.3694C15.0278 26.0912 15.1367 26.8034 15.4417 27.5062C15.518 27.6676 15.6051 27.8291 15.6705 28C15.616 27.9335 15.5507 27.867 15.4962 27.8101C14.9952 27.2308 14.5812 26.623 14.407 25.9107C14.1129 24.7047 14.603 23.736 15.6922 23.0142C16.3458 22.5774 17.0756 22.207 17.7944 21.8462C18.448 21.5233 19.1342 21.2479 19.8095 20.963C20.6482 20.6211 21.4215 20.1937 21.977 19.548C23.1861 18.1519 23.3821 16.471 22.1404 14.8851C21.6829 14.2963 21.1165 13.793 20.5502 13.2896C19.7768 12.5964 19.1777 11.8177 18.9054 10.868C18.644 9.93732 18.7421 9.02564 19.1668 8.14245C19.1886 8.09497 19.2213 8.05698 19.2431 8.0095C19.2431 8 19.2649 8 19.254 8C19.254 8.40836 19.2213 8.82621 19.2649 9.23457C19.3411 10.1178 19.6897 10.8965 20.4848 11.4853C21.1819 11.9981 21.8899 12.5014 22.5761 13.0237C23.6653 13.8594 24.4604 14.8661 24.8417 16.1007C25.212 17.3352 24.9942 18.5128 24.4713 19.6714C24.4387 19.7379 24.406 19.8044 24.3733 19.8803C25.2882 19.548 26.0725 18.114 26.2141 16.5945C26.2468 16.8034 26.2794 17.0123 26.3121 17.2213C26.323 17.5252 26.323 17.8101 26.323 18.1045Z" fill="#1C1C1C"/>
<path d="M5.677 16.7296C5.70216 16.5974 5.73989 16.4558 5.76505 16.3236C5.82793 17.9006 6.58259 19.1849 8.48181 19.997C8.4315 19.9404 8.38119 19.8931 8.33088 19.8365C7.40013 18.8449 7.01023 17.7495 7.11085 16.5408C7.19889 15.502 7.72715 14.586 8.50696 13.7361C9.37482 12.8012 10.3936 11.9796 11.5256 11.2147C12.7205 10.412 13.865 9.58101 14.8083 8.59891C15.5001 7.87177 15.9529 7.05964 16.1164 6.17197C16.2422 5.46372 16.1416 4.77435 15.8774 4.09443C15.8649 4.07555 15.8649 4.04722 15.8523 4.01889C15.8523 4.01889 15.8523 4.00944 15.8649 4C16.129 4.37773 16.3177 4.77435 16.456 5.18986C16.8082 6.2664 16.7705 7.3335 16.1164 8.34394C15.89 8.69334 15.6133 9.02386 15.3115 9.32604C14.5316 10.1004 13.7015 10.837 12.7834 11.5263C11.425 12.5557 10.3559 13.7455 9.81504 15.1526C9.14842 16.8902 9.53833 18.4955 11.0351 19.912C11.9532 20.7808 13.1607 21.3852 14.4939 21.829C15.1354 22.0462 15.802 22.2068 16.4686 22.3956C16.5189 22.4051 16.5692 22.424 16.6069 22.4617C16.4309 22.4523 16.2673 22.4523 16.0913 22.4428C15.9152 22.4334 15.7517 22.424 15.5756 22.4145C14.4562 22.3484 13.3493 22.1784 12.2551 21.9707C11.752 21.8762 11.2363 21.8196 10.708 21.8574C9.97854 21.914 9.62637 22.2445 9.73957 22.7922C9.75215 22.8584 9.76473 22.915 9.73957 23C9.34966 22.7545 8.94718 22.5278 8.58243 22.2729C6.94734 21.1302 6.0166 19.7137 5.75247 18.0517C5.72731 17.9195 5.70216 17.7778 5.677 17.6456C5.677 17.3434 5.677 17.0413 5.677 16.7296Z" fill="#1C1C1C"/>
<path d="M15.752 20.7826C16.1607 19.68 17.0161 19.0336 17.9666 18.4729C18.3849 18.2257 18.7841 17.9596 19.1262 17.6174C19.592 17.1612 19.8106 16.6004 19.8486 15.9635C19.8866 15.3552 19.7726 14.7659 19.5254 14.2051C19.554 14.2336 19.573 14.2622 19.6015 14.3002C20.1052 15.0511 20.3619 15.8685 20.2953 16.781C20.2098 17.9216 19.5825 18.701 18.594 19.2237C17.9001 19.5849 17.3773 20.1077 17.0922 20.8396C16.9781 21.1342 16.9401 21.4669 16.826 21.7711C16.7405 22.0182 16.6264 22.2558 16.4839 22.4744C16.3698 22.655 16.3033 22.6455 16.1512 22.503C15.8565 22.2273 15.733 21.8756 15.7045 21.4859C15.695 21.3909 15.6664 21.3338 15.5904 21.2768C15.2482 21.0297 14.9631 20.7255 14.7254 20.3738C14.6969 20.3263 14.6494 20.2883 14.6019 20.2503C14.1742 19.8986 13.7274 19.5659 13.3187 19.1857C12.6819 18.5964 12.4443 17.836 12.5108 16.9711C12.5583 16.4293 12.7294 15.935 13.0811 15.5073C13.1096 15.4693 13.1476 15.4313 13.2047 15.3742C13.1666 15.5358 13.1286 15.6499 13.1001 15.7734C13.0336 16.0966 13.0811 16.4103 13.2332 16.7049C13.4233 17.0946 13.4898 17.5034 13.4898 17.9311C13.4898 18.3873 13.6039 18.8055 13.8795 19.1762C14.0601 19.4234 14.2502 19.6515 14.4403 19.8891C14.4498 19.8796 14.4593 19.8796 14.4688 19.8701C14.4308 19.7085 14.3833 19.5469 14.3643 19.3853C14.2502 18.4443 14.5068 17.6174 15.1437 16.9045C15.3718 16.6479 15.6284 16.4198 15.8851 16.2012C16.2557 15.8685 16.6359 15.5358 16.7595 15.0226C16.8546 14.6043 16.8165 14.1861 16.6169 13.8059C16.1892 12.9695 15.0106 12.7889 14.2977 13.4447C13.927 13.7869 13.7464 14.2146 13.7369 14.7184C13.7369 14.7564 13.7369 14.7849 13.7369 14.823C13.7369 14.8325 13.7274 14.842 13.7179 14.88C13.6229 14.3667 13.6324 13.8915 13.8605 13.4352C14.3833 12.4182 15.4003 11.9239 16.5409 12.0095C17.9476 12.114 19.0027 13.4542 19.1452 14.6329C19.3353 16.2297 18.6415 17.3133 17.2728 18.0546C16.788 18.3208 16.3318 18.6249 15.9326 19.0146C15.4098 19.5089 15.3338 20.2123 15.752 20.7826Z" fill="#1C1C1C"/>
<path d="M14.3785 6C14.5877 6.44673 14.7112 6.91248 14.7968 7.38772C15.0249 8.72792 14.8348 10.0206 14.3215 11.2752C14.274 11.3893 14.217 11.4273 14.1029 11.4463C12.9718 11.6269 12.2019 12.2638 11.7837 13.3283C11.6411 13.6895 11.6316 14.0697 11.6696 14.4499C11.6791 14.4974 11.6601 14.564 11.6316 14.5925C11.0518 15.0677 10.6906 15.676 10.5671 16.4174C10.3675 17.5865 10.6811 18.5846 11.5841 19.3735C11.9548 19.6966 12.335 19.9913 12.7152 20.2954C12.7627 20.3335 12.8007 20.3905 12.8482 20.438C13.1049 20.7137 13.352 20.9798 13.6086 21.2554C13.6657 21.3125 13.7132 21.398 13.7322 21.4741C13.8082 21.7022 13.8653 21.9303 13.9318 22.1869C13.5041 22.0158 13.0669 21.8638 12.6486 21.6737C11.6031 21.1984 10.6621 20.5806 9.95874 19.6491C9.16032 18.5846 8.86567 17.3774 9.05577 16.0562C9.22686 14.9251 9.73062 13.9461 10.3675 13.0242C10.7667 12.4539 11.2514 11.9501 11.7362 11.4558C12.4871 10.6764 13.1809 9.8495 13.7512 8.92752C14.274 8.07208 14.4641 7.12158 14.388 6.12356C14.3785 6.08554 14.3785 6.03802 14.3785 6Z" fill="#1C1C1C"/>
<path d="M19.6311 12C19.7451 12.2281 19.8497 12.4467 19.9638 12.6558C20.2584 13.1691 20.6386 13.6253 21.0473 14.0531C21.5226 14.5378 21.9883 15.0226 22.359 15.5929C22.9103 16.4293 23.1384 17.3418 22.8818 18.3303C22.5966 19.4519 21.9123 20.2788 20.9048 20.8206C20.2964 21.1438 19.6786 21.4289 19.0608 21.7331C18.8707 21.8281 18.6901 21.9327 18.5 22.0372C18.6426 21.0772 19.1273 20.3834 19.9638 19.9366C20.5151 19.642 20.9998 19.2713 21.361 18.758C21.8172 18.1022 21.9693 17.3608 21.9123 16.5719C21.8552 15.7354 21.5606 14.9846 21.0568 14.3192C20.9238 14.1386 20.7147 14.0246 20.5436 13.8725C20.4675 13.8059 20.3915 13.7489 20.3345 13.6729C20.2489 13.5588 20.1919 13.4162 20.0968 13.3117C19.7927 13.017 19.7261 12.6273 19.6501 12.2471C19.6406 12.1806 19.6311 12.1236 19.6216 12.057C19.6216 12.0475 19.6311 12.0285 19.6311 12Z" fill="#1C1C1C"/>
<path d="M16.8187 23.4756C16.6382 23.6277 16.4481 23.7703 16.2865 23.9414C15.9063 24.3406 15.8302 24.7968 16.0488 25.3006C16.258 25.7853 16.6191 26.1465 17.0184 26.4697C17.1514 26.5743 17.294 26.6788 17.4366 26.7834C17.1609 27.1255 17.1609 27.1731 17.313 28C16.9518 27.7339 16.5811 27.4772 16.2294 27.2016C15.8968 26.945 15.6211 26.6313 15.4025 26.2701C15.1649 25.8519 15.0413 25.4147 15.1934 24.9394C15.298 24.5972 15.5166 24.3121 15.7922 24.084C16.0869 23.8273 16.41 23.6372 16.7712 23.4947C16.7807 23.4852 16.8092 23.4852 16.8187 23.4756Z" fill="#1C1C1C"/>
<path d="M13.2164 18.3715C13.1879 18.1433 13.1404 17.9152 13.1309 17.6871C13.1214 17.2309 13.0643 16.7936 12.8647 16.3849C12.6746 16.0047 12.6746 15.634 12.8647 15.2158C13.0073 15.3869 13.1689 15.539 13.264 15.7196C13.4445 16.0713 13.6727 16.3849 13.9673 16.6701C13.5396 17.1643 13.378 17.7536 13.264 18.3715C13.2544 18.3715 13.2354 18.3715 13.2164 18.3715Z" fill="#1C1C1C"/>
</svg>
