<svg width="32" height="32" viewBox="0 0 32 32" fill="none" xmlns="http://www.w3.org/2000/svg">
<g clip-path="url(#clip0_12_799)">
<path fill-rule="evenodd" clip-rule="evenodd" d="M16.8303 4.77632C16.7977 4.50533 16.3533 3.32382 16.1474 3.05283C16.039 2.90107 15.768 2.8252 15.6379 2.8252C15.5078 2.8252 15.2585 2.94443 15.1718 3.03115C15.0851 3.11786 14.7491 3.83328 14.5865 4.34274C14.4239 4.84136 14.4781 5.14487 14.5431 5.22074C14.5973 5.29662 14.89 5.29662 14.89 5.29662C14.89 5.29662 16.4075 5.32914 16.6243 5.29662C16.8303 5.2641 16.8628 5.04731 16.8303 4.77632Z" fill="#1C1C1C"/>
<path fill-rule="evenodd" clip-rule="evenodd" d="M23.8002 13.8165C23.6918 13.7624 23.1715 13.4697 22.8246 13.4046C22.4777 13.3396 22.2393 13.3938 21.849 13.6106C21.4588 13.8274 21.2529 14.2501 21.2312 14.4886C21.2095 14.7271 21.4046 14.9005 21.5997 14.9547C21.7948 14.9981 21.9141 14.7488 21.9683 14.6946C22.0116 14.6404 22.1309 14.6404 22.2609 14.7162C22.391 14.7921 22.391 15.0197 22.3368 15.2257C22.2826 15.4425 22.055 15.7785 21.8274 15.7352C21.5889 15.7026 20.9602 15.4533 20.7759 15.0197C20.3857 14.0984 20.8735 13.5347 21.4154 13.0686C21.9574 12.6025 22.5644 12.6784 22.7921 12.7868C23.0089 12.8952 23.4316 13.1445 23.6701 13.0144C23.9085 12.8952 23.9627 12.5917 23.9627 11.6486C23.9627 10.7164 23.811 9.38316 23.7134 8.85202C23.6159 8.32088 23.2365 7.32364 23.0739 7.08517C22.9221 6.83586 22.3368 6.28304 22.0008 6.00121C21.6648 5.73022 21.0794 5.10153 20.8735 4.79802C20.6675 4.48367 20.5049 4.01757 20.364 3.89833C20.2231 3.7791 20.1906 3.86582 20.1255 4.07177C20.0605 4.28856 19.7678 4.73298 19.6161 4.99313C19.4535 5.25328 18.7923 5.67603 18.5646 5.78442C18.337 5.90366 18.1202 5.96869 18.1202 5.96869C18.1202 5.96869 18.0769 6.06625 18.1636 6.09877C18.2611 6.13129 18.8248 6.34808 19.2909 6.53235C19.757 6.71663 20.5591 7.19357 21.177 7.71387C21.7948 8.23417 21.8599 9.18805 21.8165 9.79507C21.7623 10.4021 21.3829 10.9007 20.906 11.486C20.429 12.0714 19.6703 12.9711 19.3451 13.4372C19.0091 13.9033 18.9007 14.3152 18.9007 14.7488C18.9007 15.1823 19.4101 15.4642 19.7028 15.7026C20.0063 15.9411 21.2203 16.9817 21.5889 17.2419C21.9574 17.502 22.3368 17.5454 22.6186 16.96C22.8896 16.3855 23.8218 14.7488 23.9411 14.4236C24.0386 14.1092 23.9085 13.8707 23.8002 13.8165Z" fill="#1C1C1C"/>
<path fill-rule="evenodd" clip-rule="evenodd" d="M21.4586 17.9464C21.2852 17.838 20.3422 17.1551 20.2121 17.025C20.0712 16.8841 19.8544 16.8191 19.6484 17.0034C19.4425 17.1876 18.5753 19.0412 18.2826 20.5154C17.99 22.0004 17.99 23.3987 18.0333 23.7998C18.0875 24.2008 18.3477 24.6453 18.3477 24.6453C18.3477 24.6453 18.4669 23.2036 19.1823 21.8161C19.8977 20.4395 20.7432 19.4639 21.166 19.0954C21.5887 18.7269 21.8055 18.5751 21.773 18.38C21.7513 18.1849 21.6212 18.0548 21.4586 17.9464Z" fill="#1C1C1C"/>
<path fill-rule="evenodd" clip-rule="evenodd" d="M11.9632 6.55398C12.4293 6.36971 12.993 6.15292 13.0905 6.1204C13.1881 6.08788 13.1447 5.99032 13.1447 5.99032C13.1447 5.99032 12.9388 5.92529 12.7003 5.80605C12.4618 5.68682 11.8006 5.27491 11.6489 5.01476C11.4863 4.75461 11.2044 4.31019 11.1394 4.0934C11.0744 3.87661 11.0418 3.78989 10.8901 3.90913C10.7492 4.02836 10.5757 4.49446 10.3806 4.80881C10.1747 5.11232 9.58933 5.74101 9.25331 6.012C8.91728 6.28299 8.33194 6.84665 8.18019 7.09596C8.01759 7.33443 7.63821 8.33167 7.54065 8.86281C7.4431 9.39395 7.29134 10.7272 7.29134 11.6594C7.29134 12.5916 7.34554 12.8951 7.58401 13.0252C7.82248 13.1444 8.24523 12.906 8.46202 12.7976C8.67881 12.6892 9.28583 12.6133 9.8278 13.0794C10.3698 13.5455 10.8576 14.1092 10.4673 15.0305C10.2831 15.475 9.65437 15.7134 9.4159 15.7459C9.17743 15.7785 8.96064 15.4424 8.8956 15.2365C8.8414 15.0197 8.8414 14.7921 8.97148 14.727C9.10155 14.6511 9.22079 14.6511 9.26415 14.7053C9.3075 14.7595 9.43758 15.0089 9.63269 14.9655C9.8278 14.9221 10.0229 14.7379 10.0012 14.4994C9.97956 14.2609 9.78445 13.849 9.39422 13.6214C9.004 13.4046 8.76553 13.3504 8.41866 13.4154C8.07179 13.4805 7.54065 13.7731 7.4431 13.8273C7.34554 13.8815 7.20463 14.12 7.32386 14.4452C7.4431 14.7704 8.3753 16.4072 8.64629 16.9817C8.91728 17.567 9.3075 17.5236 9.67605 17.2635C10.0446 17.0033 11.2586 15.9627 11.5621 15.7243C11.8656 15.4858 12.3643 15.204 12.3643 14.7704C12.3643 14.3368 12.2559 13.9249 11.9198 13.4588C11.5838 12.9927 10.825 12.093 10.3481 11.5077C9.87116 10.9223 9.49178 10.4237 9.43758 9.8167C9.38338 9.20968 9.45926 8.2558 10.0771 7.7355C10.695 7.2152 11.4971 6.73826 11.9632 6.55398Z" fill="#1C1C1C"/>
<path fill-rule="evenodd" clip-rule="evenodd" d="M13.0148 20.5154C12.7221 19.0304 11.8441 17.1768 11.6381 17.0034C11.4322 16.8191 11.2154 16.895 11.0745 17.0251C10.9444 17.166 9.99051 17.8381 9.82791 17.9464C9.66532 18.0548 9.53525 18.1849 9.51357 18.38C9.49189 18.5751 9.70868 18.7269 10.1314 19.0954C10.5542 19.464 11.3997 20.4396 12.1151 21.8162C12.8305 23.1928 12.9497 24.6453 12.9497 24.6453C12.9497 24.6453 13.2207 24.2009 13.2641 23.7998C13.3074 23.3988 13.3074 22.0005 13.0148 20.5154Z" fill="#1C1C1C"/>
<path fill-rule="evenodd" clip-rule="evenodd" d="M20.0823 9.93596C19.9956 9.68665 19.6704 9.67581 19.6704 9.67581H16.8846C16.8196 9.07964 16.4185 8.79781 16.4185 8.79781C16.4185 8.79781 16.4294 6.48898 16.4185 6.38058C16.4077 6.28302 16.1692 5.99036 16.0717 5.8928C15.9849 5.79524 15.8874 5.73021 15.6814 5.74105C15.4755 5.74105 15.4104 5.74105 15.2695 5.84944C15.1286 5.947 14.8576 6.33722 14.8576 6.33722L14.8034 8.85201C14.3915 8.9604 14.2398 9.45902 14.2181 9.54574C14.1964 9.63246 14.1747 9.67581 14.0772 9.67581C13.9796 9.67581 11.79 9.66497 11.4865 9.67581C11.1613 9.68665 11.0529 10.0118 11.0529 10.0118C11.0529 10.0118 11.0313 10.3912 11.1505 10.6297C11.2806 10.8682 11.6383 10.8573 11.6383 10.8573C11.6383 10.8573 19.5728 10.879 19.8113 10.8356C20.0498 10.7923 20.104 10.4237 20.104 10.4237L20.0823 9.93596Z" fill="#1C1C1C"/>
<path fill-rule="evenodd" clip-rule="evenodd" d="M18.1743 12.5266C18.1418 12.3966 17.925 12.3749 17.7624 12.3749C17.5998 12.3749 17.1879 12.3315 17.1228 12.2773C17.0578 12.2123 16.8844 11.8004 16.7326 11.6053C16.5809 11.421 16.3316 11.421 16.1906 11.4535C16.0497 11.486 15.9305 11.5836 15.9196 11.6595C15.9196 11.7354 16.0172 12.6134 16.0172 12.7434C16.0172 12.8735 15.9847 12.9819 15.8221 13.0795C15.6595 13.1662 15.3993 13.1228 15.2151 13.0253C15.0308 12.9385 15.2476 12.2231 15.2584 12.0497C15.2801 11.8763 15.2368 11.6812 15.1609 11.5836C15.085 11.486 14.8465 11.4752 14.6948 11.5077C14.5105 11.5511 14.3587 11.9196 14.2829 12.0931C14.1962 12.2665 14.0336 12.299 14.0336 12.299C14.0336 12.299 13.5024 12.3424 13.2748 12.3532C13.0472 12.3641 13.0255 12.6134 13.0255 12.6134C12.9496 13.0361 13.264 13.3071 13.3723 13.4588C13.4699 13.6106 14.0227 13.9358 14.1528 14.0225C14.2829 14.1092 14.2937 14.4561 14.2937 14.4561V17.3611C14.2937 17.3611 14.3587 26.8024 14.3696 27.095C14.3804 27.3769 14.4888 27.5828 14.4888 27.5828C14.4888 27.5828 15.2259 29.2738 15.3885 29.6098C15.5619 29.9459 15.6812 30 15.6812 30C15.9196 29.8158 16.8735 27.5395 16.9277 27.3552C16.9819 27.1709 16.9711 26.9216 16.9711 26.9216L16.9277 15.1932C16.9277 15.1932 16.8952 14.4236 16.9711 14.2176C17.047 14.0117 17.7624 13.5239 17.9683 13.2421C18.2176 12.9494 18.2068 12.6567 18.1743 12.5266Z" fill="#1C1C1C"/>
</g>
<defs>
<clipPath id="clip0_12_799">
<rect width="32" height="32" fill="white"/>
</clipPath>
</defs>
</svg>
