<svg width="32" height="32" viewBox="0 0 32 32" fill="none" xmlns="http://www.w3.org/2000/svg">
<path d="M8.42178 6C9.59084 6.50787 10.3958 7.35112 10.7024 8.62558C10.9132 9.49758 10.8557 10.36 10.6353 11.2224C10.3862 12.2573 10.1849 13.2922 10.1945 14.3654C10.1945 14.5283 10.2137 14.7008 10.252 14.8637C10.2712 14.7008 10.2904 14.5475 10.3191 14.3846C10.597 12.6502 11.4498 11.2607 12.7818 10.1396C13.9029 9.20053 15.1774 8.63516 16.6339 8.49143C18.7037 8.2902 20.5244 8.88431 22.1342 10.1875C22.2875 10.3121 22.4313 10.4462 22.5654 10.5804C22.6325 10.6475 22.6708 10.6571 22.7571 10.6187C23.7057 10.2067 24.664 9.82338 25.6605 9.54549C26.178 9.40176 26.6954 9.2676 27.2321 9.22927C27.3375 9.21969 27.4524 9.22927 27.5579 9.25802C27.8741 9.3251 28.0466 9.54549 27.9891 9.87129C27.9507 10.0917 27.8932 10.3217 27.7878 10.5229C27.3758 11.2895 26.8008 11.9507 26.1588 12.5352C25.6414 13.0143 25.0856 13.4647 24.5394 13.9247C24.4915 13.963 24.4532 13.9917 24.4723 14.078C24.9898 16.0807 24.7598 18.0259 23.9453 19.9041C22.9391 22.2134 21.2622 23.8424 18.8858 24.7144C17.6017 25.1936 16.2698 25.3277 14.9187 25.2127C14.4395 25.1744 13.9604 25.0786 13.4813 25.0019C13.4621 25.0019 13.4334 25.0019 13.3855 24.9923C16.5764 26.2668 20.7064 25.8356 23.7728 21.8397C23.7345 21.9451 23.7057 22.0505 23.6674 22.1464C23.3991 22.8363 23.0445 23.4783 22.6708 24.1203C22.2779 24.7911 21.9138 25.4715 21.6838 26.2285C21.6743 26.2764 21.6551 26.3147 21.6359 26.3818C21.4251 25.9793 21.3676 25.5673 21.3772 25.1361C21.3293 25.1552 21.291 25.1744 21.2526 25.1936C19.7194 25.9218 18.1 26.2381 16.4135 26.1422C13.5484 25.9793 11.1528 24.8199 9.18837 22.7405C9.15004 22.6926 9.11172 22.6638 9.04464 22.6926C8.07682 23.1238 7.0515 23.3729 6.0166 23.5646C5.64288 23.6316 5.25959 23.6795 4.87629 23.7179C4.74214 23.7275 4.5984 23.6987 4.45466 23.6604C4.09053 23.5646 3.93721 23.2962 4.02346 22.9321C4.10011 22.6159 4.24385 22.3188 4.47383 22.0889C4.97211 21.581 5.47998 21.0827 5.99743 20.6036C6.35198 20.2682 6.73528 19.952 7.10899 19.6358C7.17607 19.5783 7.18565 19.5399 7.14732 19.4633C6.62029 18.208 6.46697 16.9144 6.60112 15.5632C6.69695 14.5379 6.92693 13.5509 7.32939 12.6023C7.59769 11.9794 7.91391 11.3757 8.18222 10.7529C8.5751 9.83296 8.83383 8.88431 8.86257 7.87815C8.88174 7.44694 8.85299 7.02532 8.69967 6.62286C8.63259 6.40246 8.51761 6.20123 8.42178 6ZM13.7975 10.4654C13.7592 10.82 13.6825 10.9541 13.4238 11.1649C11.469 12.7364 10.6257 14.7679 11.0474 17.2498C11.7181 21.1402 15.8577 23.3921 19.5086 21.9068C19.7865 21.7918 20.0644 21.7631 20.3519 21.8685C20.4477 21.5043 20.5339 21.3893 20.7831 21.2073C22.8625 19.6262 23.7345 17.5276 23.2649 14.9691C22.5654 11.0883 18.3683 8.87472 14.7366 10.4271C14.43 10.5421 14.1329 10.7145 13.7975 10.4654ZM11.7756 20.6323C11.7565 20.6036 11.7373 20.5844 11.7277 20.5748C11.0186 19.8274 10.5012 18.9554 10.137 17.9972C9.45668 16.2244 9.39919 14.4038 9.75374 12.564C9.79207 12.3723 9.8304 12.1902 9.86873 11.9986C9.82081 12.0369 9.79207 12.0848 9.76332 12.1232C9.48543 12.6214 9.25545 13.1389 9.08297 13.6851C8.68051 14.9308 8.54635 16.1957 8.80508 17.4893C9.05422 18.7446 9.62917 19.837 10.4628 20.8048C10.6832 21.0635 10.6832 21.0635 10.9995 20.939C11.2582 20.8432 11.5169 20.7377 11.7756 20.6323ZM11.4211 21.7247C12.7434 22.8075 14.2096 23.4687 15.9152 23.5358C17.458 23.5933 18.8762 23.1908 20.1986 22.4243C20.1411 22.4243 20.0836 22.4434 20.0357 22.453C18.6654 22.8842 17.2759 23.0279 15.8577 22.7788C14.7078 22.5776 13.6442 22.1559 12.7147 21.4468C12.5039 21.2839 12.3506 21.2552 12.1302 21.3894C11.9098 21.5139 11.6702 21.6097 11.4211 21.7247ZM23.8015 13.4455C24.0507 13.2156 24.2711 13.0143 24.4819 12.8035C24.9994 12.3052 25.4881 11.7782 25.8522 11.1553C25.9576 10.9637 26.0343 10.7433 26.0917 10.5325C26.1492 10.2929 26.0247 10.1109 25.7851 10.0534C25.651 10.0246 25.4976 10.0054 25.3539 10.015C24.5873 10.0821 23.8686 10.3408 23.1595 10.6379C23.0829 10.6666 23.0158 10.7337 22.9583 10.8008C22.9008 10.8583 22.9104 10.9254 22.9679 11.002C23.1308 11.2224 23.3128 11.4428 23.447 11.6824C23.7441 12.2094 23.9836 12.7652 23.8015 13.4455ZM10.0891 21.3223C10.0891 21.3127 10.0795 21.3031 10.0795 21.2839C9.97413 21.2935 9.86873 21.3031 9.76332 21.3031C9.29378 21.3223 8.82424 21.2935 8.38345 21.1019C7.98099 20.9294 7.66477 20.6611 7.53062 20.2299C7.42521 19.9137 7.20482 19.8274 6.95567 20.0478C6.63945 20.3257 6.33282 20.6228 6.04534 20.9294C5.84411 21.1498 5.69079 21.4085 5.64288 21.7056C5.61414 21.8781 5.69079 22.041 5.84411 22.108C5.93994 22.1559 6.04534 22.1943 6.15075 22.1943C6.48614 22.1943 6.82152 22.1943 7.1569 22.1559C7.81809 22.0697 8.45053 21.8685 9.07339 21.6577C9.41835 21.5618 9.75374 21.4468 10.0891 21.3223Z" fill="#1C1C1C"/>
<path d="M16.95 11.7015C15.3114 12.2094 14.4202 13.8767 14.7844 15.4483C15.1102 16.8569 16.5188 18.093 18.3299 17.8726C17.8699 18.1218 17.4004 18.3805 16.9404 18.6296C16.4421 18.0355 15.8288 17.8055 15.091 18.0259C14.4586 18.208 14.0657 18.7159 13.9315 19.4537C13.347 18.8788 12.9445 18.208 12.7337 17.4414C12.5133 16.6652 12.5037 15.8795 12.705 15.0937C13.232 13.0527 15.0239 11.759 16.95 11.7015Z" fill="#1C1C1C"/>
<path d="M20.8692 13.7713C21.6933 14.9212 21.9424 16.7993 21.0417 18.4092C20.026 20.2203 18.1574 20.8431 16.8063 20.7185C17.1896 20.2586 17.3141 19.7411 17.18 19.1662C17.2087 19.147 17.2375 19.1279 17.2662 19.1087C17.7358 18.8404 18.2149 18.5817 18.694 18.3134C18.7611 18.275 18.7994 18.2655 18.8665 18.3229C19.3456 18.7446 20.0355 18.7158 20.4668 18.2655C20.898 17.8151 20.898 17.1251 20.4572 16.6556C20.438 16.6364 20.4188 16.6077 20.3901 16.5885C20.6872 16.1765 20.8788 15.7261 20.965 15.2278C21.0513 14.7391 21.0034 14.26 20.8692 13.7713Z" fill="#1C1C1C"/>
<path d="M15.5798 20.9294C14.8516 20.9294 14.2574 20.3353 14.2574 19.5975C14.2574 18.8596 14.8611 18.2655 15.599 18.2751C16.3272 18.2847 16.9214 18.8788 16.9118 19.607C16.9118 20.3353 16.3081 20.9294 15.5798 20.9294Z" fill="#1C1C1C"/>
<path d="M16.8926 14.1163C16.9405 14.3463 16.8926 14.5379 16.7776 14.7296C17.4772 15.3429 18.1767 15.9561 18.8762 16.5694C18.7899 16.6844 18.7037 16.7898 18.6175 16.9144C18.5791 16.8856 18.5408 16.8473 18.5121 16.8186C17.8988 16.2053 17.2759 15.6016 16.6626 14.9883C16.6052 14.9308 16.5668 14.9212 16.4806 14.95C16.1548 15.0937 15.8002 14.9787 15.6086 14.6913C15.4265 14.4134 15.4553 14.0397 15.6852 13.8001C15.9248 13.5509 16.2889 13.5126 16.5956 13.6947C16.6339 13.7234 16.7106 13.733 16.7489 13.7139C17.6209 13.3018 18.5025 12.8898 19.3553 12.4873C19.3553 12.3244 19.3361 12.1807 19.3649 12.0369C19.4224 11.7207 19.7099 11.5003 20.0261 11.4811C20.3519 11.4716 20.6489 11.6824 20.7448 11.9794C20.8406 12.2861 20.716 12.6119 20.4477 12.7939C20.1794 12.9664 19.8153 12.9473 19.5757 12.7173C19.4895 12.6406 19.4415 12.6406 19.3553 12.6981C18.5791 13.1485 17.803 13.5893 17.0268 14.0397C16.9789 14.0684 16.9405 14.0876 16.8926 14.1163ZM16.2123 13.8672C15.9727 13.8672 15.7715 14.0588 15.7715 14.2984C15.7715 14.5475 15.9631 14.7488 16.2123 14.7488C16.4614 14.7488 16.6531 14.5571 16.6531 14.3175C16.6531 14.0588 16.4614 13.8672 16.2123 13.8672Z" fill="#1C1C1C"/>
<path d="M19.6427 18.3517C19.154 18.3517 18.7516 17.9588 18.742 17.4797C18.7324 16.9814 19.1253 16.579 19.6236 16.579C20.1123 16.5694 20.5243 16.9718 20.5243 17.4605C20.5243 17.9492 20.1314 18.3517 19.6427 18.3517Z" fill="#1C1C1C"/>
</svg>
