<svg width="32" height="32" viewBox="0 0 32 32" fill="none" xmlns="http://www.w3.org/2000/svg">
<path d="M16.4899 16.6367V17.0269C16.7055 16.914 16.9211 16.8113 17.1573 16.6983V16.3492C16.9622 16.4313 16.7363 16.5237 16.4899 16.6367Z" fill="#1C1C1C"/>
<path d="M17.4652 16.226V16.5956C17.65 16.5237 17.8349 16.4519 18.0403 16.38V15.9692C17.8349 16.0514 17.65 16.1438 17.4652 16.226Z" fill="#1C1C1C"/>
<path d="M20.053 14.4906C21.0901 13.4124 21.7678 11.9234 21.737 11.6153C21.7678 11.1841 20.2378 8.86336 18.7797 8.8531C18.8208 8.83256 18.7694 8.64772 18.7591 8.58611C19.1185 8.40128 19.5088 8.67853 20.4945 8.09322C21.3058 7.62087 21.3879 7.07663 21.4187 6.51186C21.275 6.86099 20.1762 7.65167 19.0775 7.66194C18.0403 7.67221 17.4037 7.67221 16.5719 7.71328C15.7813 7.75436 14.8879 8.15483 14.6106 8.47316C14.3437 8.79148 14.395 9.0482 14.4155 9.18169C14.4155 9.18169 14.5696 9.2125 14.5696 9.20223C14.5798 8.70934 15.3294 8.64772 15.4835 8.83256C15.6683 9.0482 15.6683 9.37679 15.3602 9.63351C14.8982 10.0237 14.0561 10.1572 13.7481 9.43841C13.3373 8.48343 15.0008 7.14851 16.2844 7.14851C18.79 7.14851 19.2828 7.02529 20.1659 6.17299C20.5562 5.79306 20.7718 4.01659 19.3753 3C19.3753 3.63665 19.5601 4.49921 17.5577 5.46446C15.6067 6.40917 14.282 6.74804 13.3373 8.0008C12.6493 8.90444 11.7046 11.0403 12.8855 13.1762C13.7378 14.7062 15.5143 15.2094 17.1367 14.7165C18.6051 14.2646 19.7963 13.0735 18.5538 11.5435C18.6359 12.0158 18.9029 12.7449 17.7323 13.1556C17.0854 13.3815 16.0482 13.0632 15.7915 12.252C15.5656 11.5127 15.925 10.2599 17.3113 10.1059C19.9298 9.80807 19.8065 12.5806 19.3547 13.5458C19.211 13.8539 18.8516 14.2646 18.3484 14.6343V15.8152C18.8618 15.5174 19.4266 15.1477 20.053 14.4906Z" fill="#1C1C1C"/>
<path d="M18.0299 15.959V14.8192C17.8553 14.9321 17.6602 15.0348 17.4548 15.1169V16.226C17.6499 16.1438 17.8348 16.0514 18.0299 15.959Z" fill="#1C1C1C"/>
<path d="M14.7646 15.3223C11.838 14.4186 11.6943 11.8823 11.8278 10.9992C12.0023 9.91072 12.4233 8.04184 11.6532 7.31277C10.5853 6.29618 9.77405 6.20376 9.18874 6.14215C10.5237 7.76459 9.99996 10.2701 10.1848 11.8515C10.308 12.8578 10.6572 13.3302 10.9036 13.6588C10.9857 13.7717 11.3349 14.1003 11.3246 14.1003C11.0884 13.8949 10.5647 13.5458 9.80486 13.2994C9.40438 13.1659 8.83961 13.0734 8.49048 13.3507C9.09633 13.4945 9.75351 14.0387 10.4004 15.0142C10.842 15.6817 11.3862 16.154 11.9613 16.5237C12.2488 16.7085 13.2551 17.1295 13.5221 17.1603C13.5529 17.1603 13.5221 17.4581 13.5221 17.4581C11.9407 17.2528 11.8278 18.9676 11.8586 19.594C11.8791 20.2409 12.2282 21.083 12.3104 21.1035C12.3104 21.1035 12.1461 19.8302 13.7788 18.3926C14.744 17.5403 15.5553 17.0782 16.2022 16.7701V15.4558C15.7401 15.4968 15.2575 15.4763 14.7646 15.3223Z" fill="#1C1C1C"/>
<path d="M17.1675 16.3492V15.2402C16.9518 15.3223 16.7259 15.3737 16.5 15.4147V16.6264C16.7362 16.5237 16.9621 16.4313 17.1675 16.3492Z" fill="#1C1C1C"/>
<path d="M18.3278 16.2567V23.6706L18.03 23.9171V16.3697C17.8246 16.4416 17.6398 16.5134 17.4549 16.5853V24.7386H17.1571V16.6983C16.9107 16.801 16.6951 16.9139 16.4897 17.0269V27.3365H16.1919V17.1809C14.5079 18.1461 14.0458 19.1627 14.0458 19.1627V19.44C14.1587 19.3989 14.4257 19.707 14.5079 20.0048C14.6105 20.3847 14.6105 21.0111 14.3333 21.6683C13.902 22.6643 13.2859 24.0095 13.2859 24.0198C13.2962 24.3073 13.3783 24.7283 13.481 24.8413C14.2409 25.5806 14.5387 26.4945 14.59 26.5253C14.9905 26.053 15.1137 24.831 14.7954 24.3073C14.7646 24.4511 14.4154 24.5845 14.1587 24.41C13.7582 24.1327 14.0868 23.5782 14.5079 23.5166C14.9494 23.455 15.545 24.0711 15.5552 25.139C15.5655 25.9195 15.0007 26.895 15.0007 26.895C15.1548 27.0798 16.9723 29 17.1982 29C17.4549 29 19.3957 26.2891 19.56 25.2212C19.5908 25.0056 19.6011 20.5387 19.6319 18.5363C19.6421 18.5363 19.7448 17.797 19.9091 16.9755C20.0118 16.4313 20.0221 16.267 20.1042 16.0205C20.1966 15.7433 20.2685 15.5071 20.3815 15.312C20.3815 15.3325 20.3918 14.9115 20.4123 14.6754C19.6627 15.579 19.3444 15.9179 18.3278 16.2567Z" fill="#1C1C1C"/>
</svg>
