<svg width="32" height="32" viewBox="0 0 32 32" fill="none" xmlns="http://www.w3.org/2000/svg">
<path fill-rule="evenodd" clip-rule="evenodd" d="M18.6885 7.31136C17.4831 6.91829 16.7931 6.95323 16.7931 6.95323C16.7931 6.95323 16.6096 7.09299 16.2253 7.28515C15.841 7.47732 15.2295 7.64328 14.6006 7.3463C13.9717 7.04931 13.7621 6.18457 13.7621 6.18457C13.7708 6.79601 14.1027 7.3463 14.2687 7.59961C14.9063 8.42941 15.6837 8.42941 15.6837 8.42941C15.9458 8.16737 16.3388 7.92279 16.7319 7.80924C18.1644 7.45111 18.8807 8.62158 18.8981 9.03211C18.9768 9.93179 18.7584 10.3685 18.3042 10.7092C18.0072 10.9363 17.5617 11.0062 17.2909 11.0324C17.3346 11.1285 17.4394 11.2595 17.4394 11.2595C17.6229 11.4953 18.0509 11.8098 18.671 11.5652C18.9768 11.4429 19.2737 10.9974 19.4834 10.7354C19.693 10.4821 20.1559 9.83571 20.287 9.66101C20.5752 9.29415 20.8635 8.91856 20.9246 8.5779C20.5228 8.24598 19.6755 7.63454 18.6885 7.31136Z" fill="#1C1C1C"/>
<path fill-rule="evenodd" clip-rule="evenodd" d="M13.5261 11.443C13.1505 11.2246 12.9146 10.4647 13.4387 10.0105C13.9628 9.55624 14.7053 9.92311 14.7053 9.92311C14.6354 9.62612 14.4258 9.31167 13.989 9.01469C13.5523 8.7177 13.002 8.72644 13.002 8.72644C12.5827 8.97975 12.0586 9.53004 10.6261 9.4951C9.18489 9.46016 8.68701 8.41199 8.68701 8.41199C8.82677 8.90114 9.17616 9.43396 9.50808 9.7222C10.4427 10.4734 11.6132 10.6394 11.6132 10.6394C11.7005 11.0324 11.8927 11.5565 12.1635 11.967C12.9321 13.0764 13.7619 13.2511 13.7619 13.2511C14.2511 12.7706 14.7227 12.5435 14.9499 12.4475C14.9586 12.3252 14.9761 12.0544 15.0896 11.8273C15.1944 11.6177 15.2992 11.4779 15.3604 11.3731C14.4869 11.871 13.8493 11.6351 13.5261 11.443Z" fill="#1C1C1C"/>
<path fill-rule="evenodd" clip-rule="evenodd" d="M23.3614 13.0851C23.2566 12.5785 23.0644 11.7661 22.75 11.0674C22.6364 10.8228 22.5491 10.6656 22.4792 10.552C22.3656 10.718 22.2259 10.8752 22.2259 10.8752C22.025 11.0936 21.8939 11.2508 21.7018 11.443C21.562 11.5827 21.5795 11.6701 21.5795 11.6701C21.5795 11.705 21.6232 11.7923 21.8066 11.8448C21.9551 11.8884 22.0948 12.0107 22.0948 12.0107C21.431 12.3776 21.0467 12.9803 21.3437 13.7227C21.4747 14.0459 21.8241 14.2643 22.2259 14.3953C22.7063 14.5089 23.2566 14.3604 23.4749 14.2992C23.4749 14.0197 23.4487 13.4607 23.3614 13.0851Z" fill="#1C1C1C"/>
<path fill-rule="evenodd" clip-rule="evenodd" d="M26.9865 16.0898C26.9253 15.4697 26.7943 14.9543 26.6284 14.5176C26.4624 14.0721 26.2615 13.7052 26.0606 13.1462C25.851 12.5872 25.8684 12.4038 25.851 12.0456C25.816 11.3818 26.3576 10.8053 26.3576 10.8053C26.1305 10.98 25.7112 11.2595 25.519 11.8884C25.3181 12.5173 25.519 13.0763 25.6064 13.5306C25.6937 13.9848 25.6937 14.6137 25.6675 15.0242C25.6413 15.4347 25.4404 16.0811 25.1784 16.5615C24.9251 17.0419 24.6194 17.3913 24.104 17.4088C23.5974 17.4263 23.3353 17.1293 23.2655 16.7886C23.1956 16.448 23.3615 15.8802 23.3877 15.7492C23.2829 15.8103 22.7326 16.151 22.3046 16.2995C21.7369 16.4916 21.4836 16.4567 21.4399 16.4654C21.4312 16.841 21.2914 17.697 20.8023 18.6142C20.2258 19.706 19.3523 20.3087 18.4613 20.7892C17.9198 21.0861 17.2035 21.3045 16.7406 21.4355C16.6008 21.6102 16.3562 21.9247 16.0418 22.1955C15.6837 22.4924 15.4042 22.6497 14.7927 23.0689C14.1988 23.4795 14.0153 23.9424 14.0153 23.9424C13.7708 24.449 13.7708 25.1653 13.7708 25.3487C16.199 25.6981 18.7933 25.3225 20.5664 24.6936C22.4531 24.021 23.2567 23.1912 23.7895 22.6147C24.3311 22.047 24.6718 21.2696 24.6718 21.2696C24.4971 21.453 24.0516 22.0906 23.3877 22.5186C22.7152 22.9466 21.929 23.034 21.929 23.034C21.929 23.034 20.9769 23.165 20.8809 22.5186C20.776 21.8635 21.37 21.3394 21.7194 21.0861C22.0688 20.8328 23.0733 20.5533 23.3441 20.4834C23.6061 20.4136 25.1347 20.0991 25.9732 19.0771C26.9341 17.9766 27.0476 16.71 26.9865 16.0898Z" fill="#1C1C1C"/>
<path fill-rule="evenodd" clip-rule="evenodd" d="M8.42513 19.8458C7.77002 19.0859 7.50798 18.3347 7.70888 17.3389C7.91851 16.3344 8.77452 15.4697 9.648 15.2251C9.648 15.2251 8.56489 15.2426 7.54292 16.3694C6.52095 17.4961 6.32878 19.2431 6.52968 20.1253C6.72185 20.9813 7.00136 22.0819 8.39019 23.1301C8.4426 23.0602 8.52995 22.9466 8.59983 22.8331C8.59983 22.8331 9.09771 22.143 9.40343 21.7587C9.70914 21.3831 9.84017 21.2434 9.84017 21.2434C9.84017 21.2434 9.98866 21.1123 10.1284 20.9813C9.77029 20.8241 8.93175 20.431 8.42513 19.8458Z" fill="#1C1C1C"/>
<path fill-rule="evenodd" clip-rule="evenodd" d="M10.1807 13.81C10.1807 13.81 8.90543 13.3646 7.50786 14.0197C6.1103 14.6748 5.41152 15.9326 5.19315 16.5091C4.97478 17.0856 5.00098 17.5223 5.00098 17.5223C5.00098 17.5223 5.36784 17.7756 5.49013 18.5006C5.61242 19.2256 5.57748 20.1166 5.57748 20.1166C5.57748 20.1166 6.12777 21.418 7.26329 22.2566C7.26329 22.2566 6.25879 21.0949 6.0841 19.5575C5.9094 18.0202 6.31993 16.5877 6.86149 15.8627C7.38558 15.1465 8.48616 13.6616 10.1807 13.81Z" fill="#1C1C1C"/>
<path fill-rule="evenodd" clip-rule="evenodd" d="M23.4314 14.4739C22.4968 14.701 21.9989 14.535 21.5622 14.2643C21.1167 13.9935 20.942 13.2947 21.0381 12.9104C21.1429 12.2553 21.7543 12.002 21.7543 12.002C21.5709 11.9932 21.3263 12.098 20.9769 12.4998C20.6275 12.8929 20.5839 13.4345 20.1122 14.3866C19.6405 15.3386 18.8194 16.448 18.3827 16.876C17.9547 17.304 16.6008 18.6229 15.1421 19.2431C13.6834 19.8633 13.8493 19.61 12.5741 19.9331C11.2988 20.2476 10.9669 20.5795 10.6786 20.7804C10.3904 20.9813 9.93616 21.4268 9.83134 21.5491C9.73526 21.6714 8.64341 23.1563 8.27655 23.6192C7.90969 24.0909 6.3811 26.1086 6.3811 26.1086C6.3811 26.1086 8.23288 26.5541 10.0672 26.3794C11.9015 26.2047 13.334 25.5496 13.334 25.5496C13.3253 24.0909 13.6048 23.7502 14.024 23.2262C14.4346 22.7195 15.1334 22.44 15.5439 22.1256C15.9544 21.8111 16.2601 21.584 16.7406 20.9202C17.2297 20.2563 17.352 19.3654 17.352 19.3654C17.3258 19.5051 17.0113 20.1515 17.0113 20.1515C16.5746 20.9901 15.6138 21.4617 15.0111 21.6015C14.4084 21.7412 13.7009 21.6976 13.3253 21.6452C12.9497 21.5928 12.8274 21.5753 12.443 21.6888C11.4385 22.012 11.4647 22.7545 11.6045 23.0602C11.7443 23.3659 12.2683 23.5057 12.5915 23.331C12.7924 23.2262 12.8798 23.034 12.9147 22.903C12.9235 22.8593 12.9409 22.8156 12.9497 22.7719C12.9497 22.7719 12.9409 22.8331 12.9147 22.903C12.8274 23.3572 12.478 23.7764 11.9539 23.7502C11.0629 23.6716 10.8883 22.9292 11.0105 22.3789C11.1241 21.8373 11.5346 21.3132 12.4605 21.0512C13.3864 20.7892 13.8406 21.0512 14.6093 21.0337C15.3779 21.0163 16.1379 20.562 16.4261 20.2651C16.7056 19.9681 17.0113 19.5401 17.0987 19.4091C17.186 19.278 17.6402 18.6579 17.8324 18.3958C18.0333 18.125 19.3872 16.2995 19.3872 16.2995C19.3872 16.2995 20.2869 15.0679 20.4616 14.867C20.6363 14.6661 20.776 14.6137 20.8197 14.5962C21.1953 14.3866 21.7281 14.6661 21.8067 15.0329C21.8853 15.3736 21.8417 15.6706 21.536 15.9501C21.2302 16.2209 20.5664 16.1947 20.5664 16.1947C21.4311 16.4654 22.2522 16.1685 22.5841 15.9676C22.9248 15.7667 23.4489 15.4085 23.8681 14.9106C24.663 13.9498 24.9251 13.0851 24.9251 13.0851C24.5582 13.9236 23.8856 14.3429 23.4314 14.4739Z" fill="#1C1C1C"/>
<path fill-rule="evenodd" clip-rule="evenodd" d="M24.8638 9.37279C24.8638 9.37279 24.925 9.2243 24.8813 9.04087C24.8463 8.85744 24.7153 8.70021 24.462 8.6478C24.3834 8.63907 24.2174 8.65654 24.0427 8.58666C23.868 8.51678 23.772 8.27221 23.8331 8.10625C23.868 8.0189 23.8768 7.95776 23.772 7.86167C23.6671 7.76559 23.5012 7.67824 23.2828 7.57343C23.0732 7.46861 22.7238 7.32885 22.6539 7.0144C22.584 6.69995 22.6976 6.6388 22.6976 6.6388C22.6976 6.6388 22.7587 6.94452 23.1431 7.15416C23.5274 7.36379 23.9205 7.55596 24.1126 7.75686C24.3048 7.95776 24.2349 8.08878 24.2349 8.08878C24.2349 8.08878 24.2 8.34209 24.4009 8.4207C24.6105 8.49931 24.7852 8.41196 24.8463 8.23727C24.9075 8.06257 24.8638 7.70445 24.5756 7.42493C24.2786 7.14542 23.4924 6.87464 23.309 6.68248C23.1256 6.49031 22.8548 6.28068 23.0994 5.93129C23.0994 5.93129 22.4967 5.92255 22.2783 6.38549C22.0599 6.85717 22.2084 7.27644 22.6801 7.69571C22.6801 7.69571 22.4967 7.6433 22.2346 7.69571C22.2346 7.69571 21.7892 6.8135 20.8633 6.4117C19.9374 6.0099 19.3609 6.14966 18.994 6.21953C18.994 6.21953 20.182 6.00116 20.9768 7.15416C21.2389 7.57343 21.4572 8.41196 20.9594 9.20683C20.8371 9.399 20.1383 10.3161 19.8413 10.7267C19.7365 10.8577 19.5007 11.1372 19.3609 11.3294C19.2211 11.5215 19.0552 11.7487 18.6272 11.8709C18.1992 11.9845 17.5179 11.9408 17.1772 11.2857C17.1772 11.2857 16.9676 10.9363 16.9676 10.3686C16.9676 9.8008 16.9763 9.27671 16.6531 8.85744C16.6531 8.85744 16.4784 8.58666 16.2775 8.48184C16.2775 8.48184 16.592 8.97973 16.5308 9.6261C16.4697 10.2725 15.9369 10.98 15.7709 11.1809C15.6049 11.3731 15.1769 11.705 15.1158 12.4038C15.0546 13.1025 15.3778 13.7052 16.2338 14.0197C16.557 14.1158 16.9326 14.0372 17.2209 13.8101C17.5179 13.583 17.5353 13.1025 17.5353 13.1025C17.5353 13.1025 17.1859 13.5043 16.7143 13.251C16.2426 12.9977 16.4173 12.3339 16.8016 12.2116C17.1859 12.0893 17.8672 12.2029 18.0681 13.0414C18.2603 13.8799 17.5528 14.8233 16.723 15.0155C15.8845 15.2076 15.2293 14.8932 14.9498 14.6835L12.8622 17.5049C12.8622 17.5049 12.4342 18.1512 11.8053 18.422C11.1764 18.6841 10.399 18.588 10.137 18.5006C10.137 18.5006 11.0803 19.0597 12.7661 19.0859C14.4519 19.1033 15.6049 18.4133 16.0766 18.1512C16.5483 17.8892 17.7624 17.173 18.7495 15.9676C19.7365 14.7709 20.0684 13.8887 20.2868 13.3908C20.5052 12.9016 20.7323 12.1592 21.3437 11.4779C21.9551 10.8053 22.2783 10.5345 22.3133 10.2987C22.3133 10.2987 22.7587 10.7442 23.3003 10.421C23.3003 10.421 22.7762 10.2812 22.7325 9.77459C22.6976 9.46014 22.8199 9.18936 22.8199 9.18936L22.6714 9.0234C22.6714 9.0234 23.1605 9.06707 23.3265 9.10201C23.4924 9.14569 23.7982 9.2505 23.8768 9.55622C23.9554 9.86194 23.6759 10.1065 23.3876 10.0978C23.3876 10.0978 23.5012 10.4734 23.9117 10.3074C23.9117 10.3074 24.1301 10.4996 24.3135 10.4734C24.4969 10.4384 24.5668 10.3511 24.5668 10.3511C24.5668 10.3511 24.9075 10.2812 25.0123 10.0454C25.0822 9.80953 24.9424 9.48634 24.8638 9.37279Z" fill="#1C1C1C"/>
</svg>
